<?xml version="1.0" standalone="no"?>
<!DOCTYPE svg PUBLIC "-//W3C//DTD SVG 1.1//EN" "http://www.w3.org/Graphics/SVG/1.1/DTD/svg11.dtd" >
<svg xmlns="http://www.w3.org/2000/svg">
<metadata></metadata>
<defs>
<font id="ortodoxaitalic" horiz-adv-x="1228" >
<font-face units-per-em="2048" ascent="1536" descent="-512" />
<missing-glyph horiz-adv-x="606" />
<glyph unicode="&#xfb01;" horiz-adv-x="1273" d="M74 0l164 848h-150l29 145h149l17 78q38 197 165.5 301.5t329.5 104.5q81 0 137 -11l-30 -161q-70 8 -131 8q-72 0 -120.5 -16.5t-80 -54t-49.5 -85.5t-33 -125l-8 -39h266l-27 -145h-268l-164 -848h-196zM811 0l195 995h190l-192 -995h-193zM1044 1303q8 42 43.5 73 t79.5 31q54 0 85 -39t22 -92q-9 -44 -45.5 -75.5t-79.5 -31.5q-54 0 -85 40t-20 94z" />
<glyph unicode="&#xfb02;" horiz-adv-x="1214" d="M74 0l164 848h-150l29 145h149l17 78q38 197 165.5 301.5t329.5 104.5q81 0 137 -11l-30 -161q-70 8 -131 8q-72 0 -120.5 -16.5t-80 -54t-49.5 -85.5t-33 -125l-8 -39h266l-27 -145h-268l-164 -848h-196zM793 0l282 1454h195l-283 -1454h-194z" />
<glyph horiz-adv-x="0" />
<glyph horiz-adv-x="682" />
<glyph unicode="&#xd;" horiz-adv-x="606" />
<glyph unicode=" "  horiz-adv-x="606" />
<glyph unicode="&#x09;" horiz-adv-x="606" />
<glyph unicode="&#xa0;" horiz-adv-x="606" />
<glyph unicode="!" horiz-adv-x="520" d="M53 129q9 50 53 88.5t93 38.5q60 0 97 -47t26 -107q-9 -50 -54 -87.5t-96 -37.5q-60 0 -95.5 46t-23.5 106zM156 399l172 981h207l-209 -981h-170z" />
<glyph unicode="&#x22;" horiz-adv-x="786" d="M256 909l59 508h211l-135 -508h-135zM594 909l61 508h211l-137 -508h-135z" />
<glyph unicode="#" d="M115 397l24 131h213l92 281h-200l24 131h219l127 391h140l-127 -391h227l127 391h139l-127 -391h189l-27 -131h-205l-92 -281h195l-27 -131h-211l-131 -397h-139l131 397h-227l-132 -397h-139l131 397h-194zM489 528h228l92 281h-227z" />
<glyph unicode="$" horiz-adv-x="1224" d="M133 150l72 131q43 -28 68.5 -42.5t83.5 -34t120 -24.5l86 445q-156 70 -214.5 153.5t-35.5 198.5q27 134 130.5 225.5t252.5 104.5l39 198h137l-38 -198q142 -14 266 -86l-74 -131q-136 60 -221 71l-80 -422q83 -37 132 -65.5t92 -70t55.5 -95t-0.5 -123.5 q-27 -133 -133 -231.5t-285 -116.5l-41 -213h-137l41 213q-110 11 -192.5 44t-123.5 69zM487 975q-10 -60 18 -99.5t93 -74.5l70 352q-64 -16 -114.5 -62t-66.5 -116zM616 190q87 19 143 73t70 128q13 60 -18 94.5t-121 79.5z" />
<glyph unicode="%" horiz-adv-x="2058" d="M311 952q34 177 137 289.5t232 112.5q140 0 207.5 -120t32.5 -306q-35 -177 -139.5 -289.5t-233.5 -112.5q-140 0 -206.5 120t-29.5 306zM403 -23l1135 1377h162l-1135 -1377h-162zM454.5 715q21.5 -78 86.5 -78q77 0 139.5 85t91.5 230q25 135 2 213t-90 78 q-74 0 -135.5 -86.5t-87.5 -228.5q-28 -135 -6.5 -213zM1188 403q34 177 136.5 289.5t231.5 112.5q140 0 207.5 -120t32.5 -306q-35 -177 -139.5 -289.5t-233.5 -112.5q-139 0 -205.5 120t-29.5 306zM1330.5 166q21.5 -78 86.5 -78q77 0 140 85.5t92 229.5q25 135 2 213 t-90 78q-74 0 -136 -86.5t-88 -228.5q-28 -135 -6.5 -213z" />
<glyph unicode="&#x26;" horiz-adv-x="1406" d="M61 387q13 67 42.5 123t63.5 93.5t86.5 71.5t95 54t104.5 45q-55 87 -71 158.5t-1 154.5q29 144 132 230t243 86q149 0 219 -89.5t43 -234.5q-14 -70 -44 -126.5t-74.5 -99t-89.5 -72.5t-105 -60l286 -352q72 80 130.5 177t80.5 154l23 58h182l-11 -33t-35 -83 t-60.5 -121.5t-88.5 -137.5t-118 -141l196 -242h-227l-102 127q-213 -150 -472 -150q-105 0 -190.5 24.5t-146.5 73t-86 128.5t-5 184zM244 356q-20 -99 37 -166t196 -67q208 0 385 129l-317 397q-50 -23 -84 -41t-74.5 -45.5t-66 -55.5t-47 -67t-29.5 -84zM556.5 959 q11.5 -51 55.5 -117q100 47 160.5 107t79.5 155q16 84 -12.5 126t-83.5 42q-69 0 -124.5 -54t-74.5 -155q-12 -53 -0.5 -104z" />
<glyph unicode="'" horiz-adv-x="446" d="M236 909l61 508h209l-135 -508h-135z" />
<glyph unicode="(" horiz-adv-x="681" d="M134.5 368.5q2.5 111.5 25.5 229.5q90 459 444 827l166 -61q-68 -77 -108.5 -125.5t-99 -130.5t-95 -154t-72.5 -172t-57 -209q-26 -130 -27 -242.5t22.5 -210t50.5 -166.5t73 -159l-166 -37q-33 57 -58.5 111.5t-51.5 136.5t-37.5 166.5t-9 196z" />
<glyph unicode=")" horiz-adv-x="681" d="M-55 -193q67 75 109.5 125.5t100 131.5t95 154t74 173t57.5 209q20 105 23 201.5t-6 169t-33 151t-46.5 130.5t-58.5 124l166 37q33 -58 58.5 -112.5t51.5 -137t37.5 -166.5t8.5 -196t-27 -230q-87 -457 -442 -825z" />
<glyph unicode="*" horiz-adv-x="892" d="M193 918l233 131l-233 133l63 110l231 -131v264h127v-266l238 133l61 -110l-233 -133l233 -131l-61 -109l-238 131v-272h-127v268l-231 -127z" />
<glyph unicode="+" horiz-adv-x="1263" d="M72 461v172h479v457h180v-457h479v-172h-479v-461h-180v461h-479z" />
<glyph unicode="," horiz-adv-x="520" d="M-92 -244l250 510h231l-330 -510h-151z" />
<glyph unicode="-" horiz-adv-x="819" d="M98 481l33 162h614l-32 -162h-615z" />
<glyph unicode="." horiz-adv-x="512" d="M49 129q9 50 53 88.5t93 38.5q60 0 96.5 -47t25.5 -107q-9 -50 -53.5 -87.5t-95.5 -37.5q-60 0 -95.5 46t-23.5 106z" />
<glyph unicode="/" horiz-adv-x="856" d="M-92 -82l915 1485h189l-920 -1485h-184z" />
<glyph unicode="0" d="M132 503q2 86 20 175q25 132 78.5 251.5t130 215t182 152.5t223.5 57q82 0 149.5 -27.5t114 -76t78 -115t44.5 -144.5t11 -163.5t-20 -174.5q-21 -104 -59 -201.5t-94.5 -184t-126 -151t-157 -102t-182.5 -37.5q-82 0 -149.5 27.5t-113 76t-76.5 114.5t-43 144t-10 164z M322 462q-2 -89 14.5 -167t65.5 -123t128 -45q82 0 154 48t123.5 129t87 175.5t55.5 198.5q20 102 22 190.5t-14.5 166.5t-65.5 123.5t-128 45.5q-83 0 -155 -47.5t-123 -128.5t-86.5 -175t-55.5 -200q-20 -102 -22 -191z" />
<glyph unicode="1" d="M410 1153l372 176h189l-258 -1329h-189l226 1153l-312 -143z" />
<glyph unicode="2" horiz-adv-x="1226" d="M43 0l31 160q12 58 35 109.5t50.5 91t68 77t76.5 64t86 55t86.5 46.5t88.5 43q10 5 15 7q89 39 141 66.5t104 65.5t80 83t39 103q21 101 -31 161t-170 60q-84 0 -175.5 -28t-217.5 -83l-35 160q241 113 465 113q69 0 126 -12.5t97 -34.5t69.5 -53t46 -66.5t24 -75.5 t7 -79.5t-8.5 -80.5q-12 -59 -37.5 -109t-61.5 -91.5t-94.5 -85t-122.5 -81t-159 -87.5q-164 -78 -215 -109q-135 -83 -171 -195q-5 -16 -8 -32h752l-31 -162h-950z" />
<glyph unicode="3" horiz-adv-x="1226" d="M49 68l74 139q138 -72 354 -72q148 0 250 71t123 179q25 129 -93 191.5t-349 64.5h-27l31 145h12q452 3 500 244q13 74 -44 120t-157 46q-82 0 -183.5 -23t-174.5 -57l-33 156q75 36 183.5 59t197.5 23q215 0 325 -95t78 -258q-18 -92 -101.5 -169t-203.5 -117 q122 -34 192 -123t44 -227q-36 -180 -199.5 -284t-386.5 -104q-243 0 -412 91z" />
<glyph unicode="4" horiz-adv-x="1230" d="M63 360l27 148l850 823h188l-159 -821h205l-29 -150h-205l-70 -360h-184l70 360h-693zM293 510h491l117 588z" />
<glyph unicode="5" horiz-adv-x="1226" d="M61 68l74 139q55 -30 156 -52t182 -22q163 0 267.5 85t129.5 214q15 74 -11.5 130t-82.5 87.5t-136 47.5t-170 15.5t-187 -14.5l204 633h711l-33 -164h-569l-102 -317q75 8 148 4t145.5 -21t129 -49.5t99 -83t55.5 -120.5t-2 -162q-39 -200 -210 -320.5t-400 -120.5 q-104 0 -215.5 25.5t-182.5 65.5z" />
<glyph unicode="6" horiz-adv-x="1226" d="M132 257q-31 129 1 300q30 156 104 287.5t175.5 224t225.5 157.5t256 95.5t267 30.5l-28 -154q-139 0 -256 -31t-203.5 -88t-149 -129t-106.5 -162q84 52 154.5 75.5t150.5 23.5q143 0 243 -62.5t139.5 -166.5t14.5 -228q-39 -196 -204.5 -324.5t-387.5 -128.5 q-163 0 -264 75.5t-132 204.5zM326.5 390.5q3.5 -78.5 26 -137.5t75.5 -92.5t133 -33.5q131 0 230 84t127 221q28 136 -38.5 220.5t-205.5 84.5q-144 0 -318 -119l-14 -59q-19 -90 -15.5 -168.5z" />
<glyph unicode="7" d="M217 0q75 185 178.5 369t213 334.5t200.5 260.5t180 205h-684l31 162h915l-30 -157q-11 -10 -30.5 -28.5t-80 -82t-120.5 -132.5t-143 -176.5t-156.5 -217.5t-153 -252.5t-140.5 -284.5h-180z" />
<glyph unicode="8" d="M96 371q20 94 113.5 180.5t239.5 146.5q-95 50 -143 139t-30 189q31 151 163.5 239.5t328.5 88.5q203 0 308 -95.5t73 -254.5q-17 -92 -95.5 -172.5t-197.5 -131.5q121 -57 181.5 -151t39.5 -201q-34 -172 -182 -271.5t-369 -99.5q-231 0 -348 107t-82 287zM289 342 q-19 -103 45 -163t194 -60q139 0 237 68t118 178q8 42 -2 79t-32.5 62t-52.5 46t-61 33.5t-57 20.5t-43 12l-17 5q-1 -3 -31.5 -13.5t-74.5 -30.5t-89.5 -49.5t-83.5 -78.5t-50 -109zM467 1006q-10 -49 8 -91t51.5 -67.5t69 -44t60.5 -25.5l26 -8l16 6q15 6 37 16t50 24.5 t56.5 36t54 46.5t44.5 58.5t27 70.5q15 89 -39 139t-162 50q-117 0 -199.5 -58t-99.5 -153z" />
<glyph unicode="9" horiz-adv-x="1226" d="M137 -23l31 154q140 0 257.5 33.5t202 93.5t144.5 131.5t102 159.5q-71 -47 -137 -67.5t-153 -20.5q-220 0 -332.5 128.5t-75.5 321.5q36 191 198 316t380 125q101 0 180 -28.5t129.5 -81t79.5 -126t31 -163.5t-17 -193q-30 -154 -103 -283.5t-173 -220.5t-223.5 -155 t-254.5 -94t-266 -30zM375 885q-27 -132 38.5 -204.5t196.5 -72.5q98 0 173.5 30.5t158.5 94.5l10 49q20 87 17.5 163.5t-23.5 133.5t-73 90t-130 33q-137 0 -239.5 -87t-128.5 -230z" />
<glyph unicode=":" horiz-adv-x="514" d="M49 129q9 50 53 88.5t93 38.5q60 0 96.5 -47t25.5 -107q-9 -50 -53.5 -87.5t-95.5 -37.5q-60 0 -95.5 46t-23.5 106zM193 868q9 50 53 88.5t94 38.5q60 0 96.5 -46t24.5 -105q-9 -51 -54 -89t-96 -38q-60 0 -95 45.5t-23 105.5z" />
<glyph unicode=";" horiz-adv-x="522" d="M-129 -244l250 510h237l-329 -510h-158zM215 868q8 50 51 88.5t94 38.5q60 0 96.5 -46t24.5 -105q-9 -51 -53.5 -89t-95.5 -38q-60 0 -95.5 45.5t-21.5 105.5z" />
<glyph unicode="&#x3c;" horiz-adv-x="1349" d="M117 465v162l1044 465v-193l-829 -354l829 -352v-193z" />
<glyph unicode="=" horiz-adv-x="1349" d="M117 240v172h1138v-172h-1138zM117 690v172h1138v-172h-1138z" />
<glyph unicode="&#x3e;" horiz-adv-x="1351" d="M209 0v193l829 352l-829 354v193l1044 -465v-162z" />
<glyph unicode="?" horiz-adv-x="897" d="M170 129q9 50 52.5 88.5t92.5 38.5q60 0 97 -47t26 -107q-9 -49 -54 -87t-95 -38q-60 0 -95.5 46t-23.5 106zM258 1303q211 100 375 100q64 0 114.5 -14t81.5 -38t52.5 -55.5t28 -66t9 -70.5t-5.5 -69q-10 -48 -30.5 -91.5t-56 -87t-60 -68.5t-72.5 -71 q-59 -58 -87.5 -88.5t-68 -80t-61.5 -98.5t-33 -106h-174q6 33 15.5 64t18.5 55.5t24 52t24.5 45t29.5 42.5t29.5 37.5t33 36.5t32 32.5t34.5 33.5t32 31q77 77 117 132.5t51 115.5q15 78 -25 123t-131 45q-58 0 -118.5 -19t-157.5 -61z" />
<glyph unicode="@" horiz-adv-x="1607" d="M85.5 316q-6.5 91 14.5 186q39 200 165 365.5t305 259.5t370 94q204 0 349.5 -87.5t206 -238.5t24.5 -336q-35 -182 -134 -295.5t-241 -113.5q-130 0 -164 114q-119 -125 -268 -125q-139 0 -217 101.5t-50 244.5t143 243.5t251 100.5q121 0 200 -90l15 76h127l-66 -342 q-39 -199 66 -199q60 0 110 72t78 217q26 137 -21 257.5t-160.5 195t-268.5 74.5q-114 0 -226.5 -48t-201 -128.5t-153 -189.5t-87.5 -226q-16 -72 -11 -143t22 -136.5t55.5 -121.5t88.5 -97t121.5 -64.5t155.5 -23.5q147 0 307 68l60 -93q-21 -13 -48.5 -27.5t-78.5 -35.5 t-120 -34t-142 -13q-107 0 -198.5 27t-157.5 76t-116 116.5t-74 148t-30.5 171.5zM602 481q-17 -85 29 -148t125 -63q77 0 146 60.5t87 152.5t-27 153.5t-118 61.5q-82 0 -153.5 -65t-88.5 -152z" />
<glyph unicode="A" horiz-adv-x="1329" d="M-76 0l801 1380h221l266 -1380h-202l-72 424h-565l-240 -424h-209zM457 573h456l-104 627z" />
<glyph unicode="B" horiz-adv-x="1212" d="M68 0l268 1380h416q230 0 339 -100q85 -77 85 -193q0 -33 -7 -69q-22 -116 -106 -195t-191 -100q30 -5 60.5 -16t62 -30t55.5 -46t42 -63q18 -37 22 -83q1 -12 2 -25q0 -36 -8 -79q-33 -174 -192 -277.5t-418 -103.5h-430zM291 152h198q184 0 288.5 60.5t131.5 193.5 q6 30 6 55q0 83 -59 125q-77 55 -260 55h-211zM414 782h198q86 0 160 24t130 80t71 136q5 23 5 43q0 29 -10 53q-16 41 -53.5 64.5t-88.5 35t-115 11.5h-211z" />
<glyph unicode="C" horiz-adv-x="1304" d="M102 511q-2 23 -1 47q0 70 16 144q28 143 102.5 271t182 223.5t251.5 151t301 55.5q210 0 414 -119l-78 -145q-135 100 -321 100q-149 0 -284 -65.5t-235.5 -195t-134.5 -300.5q-13 -68 -12 -127q-1 -53 9 -101q22 -100 80 -169.5t144.5 -105.5t192.5 -36q193 0 379 111 l33 -162q-227 -111 -439 -111q-108 0 -202 26.5t-163.5 74t-122 114t-78.5 147t-34 172.5z" />
<glyph unicode="D" horiz-adv-x="1501" d="M68 0l268 1380h500q154 0 283 -51t215 -141t121 -222q19 -71 19 -150q0 -67 -14 -138q-38 -199 -169 -355t-317.5 -239.5t-393.5 -83.5h-512zM295 156h260q123 0 231.5 33t187.5 87.5t140.5 126t97 147t50.5 152.5q7 52 9 104v13q0 47 -12 91q-14 52 -36.5 98.5t-64 86.5 t-94 69.5t-126.5 46t-162 16.5h-274z" />
<glyph unicode="E" horiz-adv-x="1110" d="M68 0l268 1380h848l-31 -161h-653l-86 -433h614l-33 -159h-612l-90 -465h670l-31 -162h-864z" />
<glyph unicode="F" horiz-adv-x="1093" d="M68 0l268 1380h848l-31 -161h-653l-92 -459h614l-33 -160h-612l-115 -600h-194z" />
<glyph unicode="G" horiz-adv-x="1470" d="M102 470q-2 30 -2 60q0 81 15 168q28 146 105 275.5t187 224.5t254 150t300 55q212 0 411 -119l-78 -145q-59 44 -150.5 73t-187.5 29q-117 0 -225.5 -44t-192 -120.5t-142.5 -180.5t-81 -222q-14 -73 -14 -139q0 -69 15 -131q30 -121 118.5 -194t220.5 -73 q181 0 328 119t176 303h-463l29 156h674q-31 -216 -129 -382.5t-256.5 -261t-354.5 -94.5q-122 0 -223.5 37t-169.5 102.5t-112 156t-52 197.5z" />
<glyph unicode="H" horiz-adv-x="1472" d="M68 0l268 1380h196l-116 -596h751l117 596h197l-269 -1380h-196l119 614h-752l-119 -614h-196z" />
<glyph unicode="I" horiz-adv-x="522" d="M68 0l268 1380h194l-268 -1380h-194z" />
<glyph unicode="J" horiz-adv-x="813" d="M-94 2l31 162q112 -23 178 -23q268 0 327 299l183 940h194l-190 -991q-39 -202 -168.5 -307t-329.5 -105q-75 0 -225 25z" />
<glyph unicode="K" horiz-adv-x="1265" d="M68 0l268 1380h194l-122 -628l751 628h230l-684 -581l444 -799h-217l-379 670l-193 -166l-98 -504h-194z" />
<glyph unicode="L" horiz-adv-x="1042" d="M68 0l268 1380h196l-237 -1218h663l-30 -162h-860z" />
<glyph unicode="M" horiz-adv-x="1736" d="M45 0l268 1380h265l229 -1116l670 1116h268l-268 -1380h-183l222 1130l-678 -1130h-150l-239 1130l-222 -1130h-182z" />
<glyph unicode="N" horiz-adv-x="1431" d="M47 0l268 1380h217l527 -1130l221 1130h180l-268 -1380h-231l-517 1112l-217 -1112h-180z" />
<glyph unicode="O" horiz-adv-x="1548" d="M117 702q27 143 105.5 273t187.5 224t247 149t279 55q195 0 340.5 -97t207.5 -264q39 -104 39 -219q0 -70 -14 -145q-37 -193 -160 -354t-299.5 -254t-365.5 -93q-145 0 -265.5 57.5t-196.5 154.5q-74 97 -104 231q-15 68 -15 139q0 70 14 143zM315 678q-12 -63 -12 -121 q1 -80 23 -152q40 -125 136.5 -197.5t229.5 -72.5q140 0 273 76.5t226.5 207t123.5 283.5q11 60 11 117q0 82 -24 156q-40 125 -138 197.5t-232 72.5q-139 0 -271 -76.5t-224.5 -207t-121.5 -283.5z" />
<glyph unicode="P" horiz-adv-x="1189" d="M68 0l268 1380h412q264 0 380 -108q86 -81 86 -214q0 -45 -10 -95q-38 -194 -191 -302t-413 -108h-231l-107 -553h-194zM397 709h199q176 0 284.5 72.5t135.5 203.5q5 28 5 52q1 83 -57 131q-74 62 -253 61h-209z" />
<glyph unicode="Q" horiz-adv-x="1548" d="M108 477q-4 38 -4 77q0 71 13 148q27 143 105.5 273t187.5 224t247 149t279 55q195 0 340.5 -97t207.5 -264q39 -104 39 -219q0 -71 -14 -145q-49 -248 -233.5 -437t-425.5 -245q-8 -45 -8 -80t11.5 -71t36.5 -59.5t74 -37.5q42 -12 100 -12h17l-30 -160q-27 -2 -53 -2 q-41 0 -79 6q-62 9 -118.5 36t-91 74.5t-50.5 118.5q-7 32 -7 70q0 45 10 98q-113 4 -211 42.5t-168 104.5t-117 156.5t-58 196.5zM315 678q-12 -63 -12 -121q0 -80 23 -152q39 -125 136 -197.5t230 -72.5q140 0 273 76.5t226.5 207t123.5 283.5q11 60 11 117q0 82 -24 156 q-40 125 -138 197.5t-232 72.5q-139 0 -271 -76.5t-224.5 -207t-121.5 -283.5z" />
<glyph unicode="R" horiz-adv-x="1241" d="M68 0l268 1380h412q265 0 382 -100q88 -75 87 -206q0 -44 -9 -95q-52 -265 -329 -350l188 -629h-199l-176 594h-315l-115 -594h-194zM406 745h198q178 0 284 66t132 195q5 27 5 51q0 79 -58 119q-76 52 -256 53h-209z" />
<glyph unicode="S" horiz-adv-x="1085" d="M6 106l80 146q170 -111 346 -111q145 0 238 64.5t114 169.5q3 27 4 46.5t-9.5 38.5t-22.5 33.5t-35.5 30t-48.5 29.5t-61.5 31t-75.5 35q-20 9 -31 14q-190 82 -256 174q-47 65 -47 151q0 35 8 72q31 161 163 267t333 106q202 0 382 -103l-81 -145q-172 86 -293 86 q-48 0 -95 -11.5t-92.5 -35.5t-78.5 -67.5t-44 -100.5q-6 -27 -3.5 -49.5t11 -42t24 -36t35.5 -31.5t46 -29.5t55.5 -29.5t64.5 -31q21 -10 32 -15q38 -16 67.5 -29.5t61 -30.5t55 -32.5t46.5 -35.5t38 -40.5t27.5 -45.5t18 -52.5t5 -60t-7.5 -68.5q-15 -75 -54.5 -142 t-103 -124t-160.5 -90.5t-215 -33.5q-143 0 -265 41.5t-175 87.5z" />
<glyph unicode="T" horiz-adv-x="1167" d="M160 1217l33 163h1128l-31 -163h-469l-237 -1217h-193l238 1217h-469z" />
<glyph unicode="U" horiz-adv-x="1439" d="M168 448q2 80 20 170l148 762h196l-143 -729q-22 -116 -22 -205q0 -117 38 -187q67 -124 242 -124q384 0 488 529l139 716h194l-149 -774q-27 -138 -79 -248.5t-132.5 -198t-198.5 -135t-266 -47.5q-102 0 -183.5 23t-136 65.5t-90.5 100.5t-51 130q-14 66 -14 138v14z " />
<glyph unicode="V" horiz-adv-x="1320" d="M193 1380h202l205 -1161l662 1161h211l-801 -1380h-215z" />
<glyph unicode="W" horiz-adv-x="1982" d="M233 1380h203l66 -1114l557 1114h201l116 -1130l506 1130h213l-659 -1380h-191l-137 1085l-557 -1085h-203z" />
<glyph unicode="X" d="M-76 0l608 702l-319 678h213l250 -563l471 563h223l-592 -680l334 -700h-215l-260 586l-492 -586h-221z" />
<glyph unicode="Y" horiz-adv-x="1232" d="M193 1380h217l256 -626l493 626h227l-657 -788l-117 -592h-196l121 608z" />
<glyph unicode="Z" horiz-adv-x="1282" d="M-14 0l30 156l1092 1063h-813l31 161h1040l-29 -155l-1091 -1063h884l-30 -162h-1114z" />
<glyph unicode="[" horiz-adv-x="677" d="M-2 -229l317 1634h457l-24 -139h-289l-264 -1356h288l-28 -139h-457z" />
<glyph unicode="\" horiz-adv-x="817" d="M176 1403h191l338 -1485h-187z" />
<glyph unicode="]" horiz-adv-x="677" d="M-61 -229l28 139h287l264 1356h-289l27 139h457l-318 -1634h-456z" />
<glyph unicode="^" d="M45 385l479 944h135l484 -942h-191l-358 756l-358 -758h-191z" />
<glyph unicode="_" horiz-adv-x="1257" d="M-90 -276l29 149h1136l-28 -149h-1137z" />
<glyph unicode="`" horiz-adv-x="1081" d="M338 1421h225l207 -295h-156z" />
<glyph unicode="a" horiz-adv-x="1234" d="M61 508q27 141 114 258t213 184.5t263 67.5q213 0 324 -193l33 170h196l-194 -995h-193l35 158q-171 -178 -381 -178q-143 0 -247 70t-148 192q-26 73 -27 154q0 54 12 112zM254 485q-8 -40 -8 -78q0 -97 53 -171q73 -103 209 -103q144 0 264.5 110t151.5 265q8 42 8 80 q0 96 -52 171q-72 105 -206 105q-145 0 -268 -112t-152 -267z" />
<glyph unicode="b" horiz-adv-x="1280" d="M53 0l283 1454h192l-125 -616q173 180 381 180q142 0 247 -71.5t149 -194.5q27 -75 27 -159q0 -53 -11 -110q-43 -212 -213 -357.5t-377 -145.5q-219 0 -325 190l-35 -170h-193zM332 483q-8 -41 -8 -78q0 -96 52 -170q72 -102 206 -102q145 0 267.5 111t151.5 266 q8 40 8 78q-1 52 -15 98q-26 82 -90 130t-152 48q-145 0 -267.5 -113t-152.5 -268z" />
<glyph unicode="c" horiz-adv-x="1009" d="M86 510q42 215 221 361.5t408 146.5q158 0 309 -90l-66 -127q-47 28 -110 44.5t-119 16.5q-91 0 -171 -33t-136 -87.5t-93 -121t-50 -137.5q-7 -44 -6 -86q-1 -8 -1 -16q2 -50 23.5 -95t54.5 -79t88 -54t125 -20q62 0 135 19.5t131 48.5l31 -142q-168 -82 -321 -82 q-158 0 -272 71q-113 72 -161 194q-30 77 -30 163q0 51 10 105z" />
<glyph unicode="d" horiz-adv-x="1280" d="M86 508q27 141 114 258t213 184.5t263 67.5q212 0 323 -193l125 629h193l-283 -1454h-192l35 158q-171 -178 -381 -178q-143 0 -247.5 70t-148.5 192q-26 73 -26 154q0 54 12 112zM279 485q-8 -40 -8 -78q0 -97 53 -171q73 -103 208 -103q144 0 264.5 110t151.5 265 q8 42 8 80q0 96 -52 171q-72 105 -206 105q-145 0 -267 -112t-152 -267z" />
<glyph unicode="e" horiz-adv-x="1120" d="M76 338q-1 19 -1 38q0 60 11 126q20 104 71.5 197t126.5 164.5t177 113t215 41.5q222 0 322 -153q60 -92 61 -225q0 -88 -27 -194h-770q-2 -18 -2 -36q0 -118 71 -194q81 -88 249 -87q74 0 153.5 19.5t122.5 39.5l43 19l23 -135q-7 -4 -19.5 -10.5t-53.5 -22.5t-84 -28.5 t-107.5 -23t-127.5 -10.5q-105 0 -189.5 27t-138 75.5t-88 114.5t-38.5 144zM293 586h575q4 30 4 57q0 95 -44 157q-56 80 -183 79q-124 0 -215 -80t-137 -213z" />
<glyph unicode="f" horiz-adv-x="727" d="M74 0l164 848h-150l29 145h149l17 78q38 197 165.5 301.5t329.5 104.5q81 0 137 -11l-30 -161q-70 8 -131 8q-72 0 -120.5 -16.5t-80 -54t-49.5 -85.5t-33 -125l-8 -39h266l-27 -145h-268l-164 -848h-196z" />
<glyph unicode="g" horiz-adv-x="1259" d="M51 -315l78 139q46 -28 77 -44.5t99.5 -36t138.5 -19.5q342 0 418 387l12 45q-169 -179 -378 -179q-143 0 -247.5 71.5t-147.5 193.5q-26 74 -26 157q0 53 11 111q42 214 210 361t376 147q216 0 325 -195l37 172h191l-181 -927q-47 -245 -193 -370.5t-382 -125.5 q-70 0 -132.5 10t-119 30t-87.5 34t-79 39zM276 483q-8 -40 -8 -78q0 -96 53 -170q73 -102 207 -102q145 0 267 111t151 266q8 40 8 78q0 51 -14 98q-26 81 -90 129.5t-152 48.5q-145 0 -269 -113t-153 -268z" />
<glyph unicode="h" d="M63 0l283 1454h195l-119 -612q85 87 175 131.5t204 44.5q73 0 130.5 -17.5t94.5 -48t61.5 -70t34 -86t9.5 -93t-9 -93.5l-118 -610h-195l111 573q13 62 13 110q0 175 -171 175q-126 0 -235 -83t-158 -206l-111 -569h-195z" />
<glyph unicode="i" horiz-adv-x="542" d="M84 0l192 995h193l-195 -995h-190zM317 1303q8 42 43.5 73t79.5 31q54 0 85 -39q23 -29 23 -65q0 -13 -3 -27q-8 -44 -44.5 -75.5t-80.5 -31.5q-54 0 -84 40q-22 29 -22 65q0 14 3 29z" />
<glyph unicode="j" horiz-adv-x="542" d="M-281 -428l29 149q277 0 338 297l188 979h197l-199 -1015q-23 -120 -80 -206.5t-135 -131t-163 -62.5q-60 -12 -124 -12q-25 0 -51 2zM315 1303q8 42 43.5 73t79.5 31q54 0 85 -39q24 -30 24 -69q0 -11 -2 -23q-9 -44 -46 -75.5t-81 -31.5q-54 0 -84 40q-22 29 -22 65 q0 14 3 29z" />
<glyph unicode="k" horiz-adv-x="1093" d="M63 0l283 1454h195l-179 -917l545 458h242l-512 -411l342 -584h-231l-261 463l-165 -135l-64 -328h-195z" />
<glyph unicode="l" horiz-adv-x="483" d="M63 0l283 1454h195l-283 -1454h-195z" />
<glyph unicode="m" horiz-adv-x="1849" d="M53 0l195 995h190l-32 -157q44 55 86.5 91.5t110 62.5t149.5 26q141 0 217.5 -65t89.5 -160q82 113 171 169t214 56q70 0 125.5 -17t90 -47.5t57 -69t30.5 -85.5q7 -42 7 -83v-10q-1 -46 -11 -96l-119 -610h-192l110 573q10 50 14 88q2 17 2 34q0 21 -3 43 q-5 39 -21 64.5t-49.5 41.5t-83.5 16q-123 0 -213.5 -83t-140.5 -212l-113 -565h-191l111 573q10 49 14 88q1 16 1 32q0 23 -3 45q-5 38 -21.5 64t-50 42t-83.5 16q-123 0 -214 -83t-141 -212l-110 -565h-193z" />
<glyph unicode="n" horiz-adv-x="1220" d="M53 0l197 995h194l-30 -151q86 86 175.5 130t201.5 44q73 0 130.5 -17.5t95 -48t62 -70t34.5 -86t10 -93t-9 -93.5l-119 -610h-196l110 573q13 63 13 112q0 175 -168 175q-127 0 -236 -84t-158 -209l-112 -567h-195z" />
<glyph unicode="o" horiz-adv-x="1216" d="M78 510q43 214 221.5 361t396.5 147q149 0 261 -71q113 -71 161 -194q30 -77 30 -163q0 -52 -11 -107q-27 -140 -118 -256.5t-223.5 -183t-275.5 -66.5q-150 0 -262 71q-112 72 -160 194q-31 78 -30 164q0 51 10 104zM272 485q-8 -44 -8 -83q0 -100 52 -174 q73 -104 208 -105q145 0 267 113t153 274q9 45 9 86q0 97 -51 171q-73 105 -208 105q-144 0 -267 -112.5t-155 -274.5z" />
<glyph unicode="p" horiz-adv-x="1290" d="M-16 -406l274 1401h191l-35 -157q173 180 381 180q142 0 246.5 -71.5t148.5 -194.5q27 -75 27 -159q0 -53 -11 -110q-43 -212 -213 -357.5t-377 -145.5q-219 0 -325 190l-115 -576h-192zM342 483q-8 -41 -8 -78q0 -97 52 -170q72 -102 206 -102q145 0 268 111t152 266 q8 40 8 77q0 51 -15 99q-26 81 -90.5 129.5t-152.5 48.5q-145 0 -267.5 -113t-152.5 -268z" />
<glyph unicode="q" horiz-adv-x="1280" d="M86 508q27 141 114 258t213 184.5t263 67.5q212 0 323 -193l37 170h191l-273 -1401h-192l115 564q-171 -178 -381 -178q-143 0 -247.5 70t-148.5 192q-26 72 -26 154q0 54 12 112zM279 485q-8 -40 -8 -78q0 -97 53 -171q73 -103 208 -103q144 0 264.5 110t151.5 265 q8 42 8 80q0 96 -52 171q-72 105 -206 105q-145 0 -267 -112t-152 -267z" />
<glyph unicode="r" horiz-adv-x="718" d="M53 0l195 995h190l-37 -186q163 209 400 209l-37 -182q-156 0 -275 -97.5t-147 -240.5l-96 -498h-193z" />
<glyph unicode="s" horiz-adv-x="884" d="M0 72l76 131q140 -80 260 -80q98 0 159 43.5t74 107.5q2 9 2 18q1 34 -25 55q-32 27 -134 77q-3 1 -5 2l-5 2.5t-5.5 3t-5.5 2.5q-65 27 -107 51.5t-80.5 60.5t-51.5 85q-6 24 -6 52.5t6 59.5q22 122 124.5 198.5t255.5 76.5q163 0 304 -74l-74 -131q-113 61 -221 61 q-73 0 -131.5 -34.5t-71.5 -102.5q-5 -28 -0.5 -48t33 -41t44 -29.5t71.5 -35.5q13 -7 20 -10q26 -11 46 -20t43 -20.5t40.5 -23t35.5 -24.5t31 -27t25 -30.5t19 -35t11.5 -39t4.5 -44t-6 -49.5q-25 -119 -130 -201t-276 -82q-109 0 -206.5 31.5t-143.5 63.5z" />
<glyph unicode="t" horiz-adv-x="735" d="M88 848l29 147h151l39 201h191l-39 -201h280l-28 -147h-281l-94 -494q-13 -76 -13 -114q0 -11 1 -18q11 -70 106 -78q13 -1 27 -1q22 0 53 2.5t52 5.5l20 3l-31 -164q-54 -10 -152 -10q-69 0 -116.5 9t-85 31.5t-53.5 60t-20 94.5q-1 11 -1 24q0 49 14 112l103 537h-152z " />
<glyph unicode="u" horiz-adv-x="1202" d="M100 290q0 46 9 93l120 612h195l-111 -573q-13 -63 -13 -111q0 -176 171 -176q128 0 238 85.5t155 211.5l111 563h194l-194 -995h-195l29 150q-85 -85 -174.5 -129t-202.5 -44q-73 0 -131 17.5t-95 48t-61.5 70t-34.5 85.5t-10 92z" />
<glyph unicode="v" horiz-adv-x="1052" d="M117 995h207l145 -768l446 768h213l-602 -995h-194z" />
<glyph unicode="w" horiz-adv-x="1632" d="M117 995h202l91 -747l417 747h162l123 -747l387 747h209l-545 -995h-174l-119 766l-421 -766h-175z" />
<glyph unicode="x" horiz-adv-x="1042" d="M-76 0l488 506l-281 489h213l199 -383l354 383h221l-483 -499l278 -496h-211l-202 387l-357 -387h-219z" />
<glyph unicode="y" horiz-adv-x="1050" d="M-20 -287q80 0 164 66t124 145l49 82l-200 989h207l141 -782l448 782h215l-610 -995l-123 -203q-154 -249 -393 -252z" />
<glyph unicode="z" horiz-adv-x="1030" d="M-10 0l26 147l752 693h-600l31 155h835l-26 -147l-746 -692h619l-31 -156h-860z" />
<glyph unicode="{" horiz-adv-x="747" d="M145 518l25 131q87 0 129 56t66 176l36 190q18 96 63.5 165t107.5 105.5t130 51t142 8.5l-29 -141q-47 0 -83.5 -8t-61.5 -25t-42.5 -36t-29 -47t-17.5 -50.5t-12 -55.5l-39 -190q-34 -176 -168 -264q100 -89 66 -265l-37 -190q-5 -29 -7.5 -47.5t-3 -44.5t4.5 -42 t16.5 -34.5t30.5 -28.5t49.5 -17t71.5 -7l-27 -141q-77 -6 -139 8.5t-110 50.5t-66 105t0 165l37 191q14 75 13.5 126.5t-28.5 78t-88 26.5z" />
<glyph unicode="|" horiz-adv-x="892" d="M367 -512v2048h165v-2048h-165z" />
<glyph unicode="}" horiz-adv-x="747" d="M-61 -233l26 141q56 0 98 13t67 32t42.5 51t25.5 59t15 66l39 190q32 177 166 265q-100 89 -64 264l37 190q7 41 9.5 66.5t-3 58.5t-22.5 51.5t-54.5 32t-93.5 13.5l29 141q76 6 138.5 -8.5t110 -51t66 -105.5t0.5 -165l-36 -190q-14 -74 -13.5 -125.5t28 -79t87.5 -27.5 l-25 -131q-88 0 -129 -55t-63 -176l-39 -191q-18 -96 -63.5 -165t-107.5 -105t-130 -50.5t-141 -8.5z" />
<glyph unicode="~" horiz-adv-x="1185" d="M78 414q4 340 280 340q57 0 114 -19.5t102.5 -47t86.5 -54.5t82 -46.5t74 -19.5q82 0 116 43t32 142h178q0 -50 -9 -98t-31 -96.5t-55 -84t-86 -58t-120 -22.5q-70 0 -141.5 29t-120 63.5t-103 63.5t-94.5 29q-69 0 -99.5 -39t-27.5 -125h-178z" />
<glyph unicode="&#xa1;" horiz-adv-x="520" d="M-18 -399l211 981h167l-172 -981h-206zM199 879q9 50 52.5 87.5t92.5 37.5q60 0 98 -46t27 -106q-11 -50 -57 -88.5t-95 -38.5q-59 0 -94 46.5t-24 107.5z" />
<glyph unicode="&#xa2;" d="M238 676q37 186 184 324t342 167l41 213h139l-41 -206q122 -7 240 -80l-70 -127q-85 51 -199 61l-135 -702q113 9 222 59l18 -127q-146 -71 -268 -78l-39 -203h-140l41 209q-184 29 -277 167t-58 323zM421.5 538q10.5 -66 57.5 -122t123 -78l131 678q-125 -33 -207 -130 t-104 -210q-11 -72 -0.5 -138z" />
<glyph unicode="&#xa3;" horiz-adv-x="1234" d="M55 0l31 162q35 0 65.5 6t53 14t42 25t32 28.5t24.5 36t17.5 36.5t12 40t8.5 37t6 38t5 32l19 143h-195l29 145h188l31 218q39 197 170 299t324 102q181 0 307 -74l-72 -141q-104 53 -227 53q-265 0 -320 -297l-26 -160h344l-29 -145h-336l-31 -195q-19 -141 -116 -241 h602l-31 -162h-928z" />
<glyph unicode="&#xa4;" d="M66 281l180 155q-52 108 -29 244q28 135 123 240l-121 147l131 115l127 -156q110 64 240 64t227 -70l193 162l94 -115l-189 -160q62 -108 35 -252q-24 -127 -116 -233l116 -141l-131 -113l-119 145q-117 -69 -249 -69q-138 0 -236 75l-180 -151zM375 655 q-25 -124 34 -208.5t169 -84.5q117 0 217.5 93.5t126.5 226.5q25 121 -34 206t-167 85q-119 0 -219.5 -92.5t-126.5 -225.5z" />
<glyph unicode="&#xa5;" horiz-adv-x="1226" d="M88 336l23 104h387l28 144h-389l21 104h342l-291 643h209l239 -581l467 581h217l-540 -643h323l-20 -104h-387l-29 -144h389l-22 -104h-387l-66 -336h-190l65 336h-389z" />
<glyph unicode="&#xa6;" horiz-adv-x="833" d="M336 356h166v-716h-166v716zM336 664v716h166v-716h-166z" />
<glyph unicode="&#xa7;" horiz-adv-x="956" d="M0 -18l68 118q133 -90 280 -90q120 0 197.5 49t91.5 121q5 26 -0.5 44.5t-33 38t-46 28.5t-73.5 34q-49 22 -76 35q-165 69 -219 138.5t-33 175.5q27 154 180 250q-115 75 -88 217q22 115 127 188.5t260 73.5q173 0 313 -84l-65 -115q-134 68 -238 68q-84 0 -157.5 -38 t-86.5 -108q-4 -20 -0.5 -37.5t19 -34t29 -28t46 -28.5t52.5 -26.5t65 -29.5q41 -17 66 -28t57 -27t50.5 -29t39 -31t30.5 -37t17.5 -43t7 -52.5t-7.5 -61.5q-26 -154 -182 -252q127 -80 101 -221q-11 -52 -41 -100t-80 -90t-129 -67.5t-176 -25.5q-127 0 -224 35t-141 70z M306 628.5q3 -16.5 4.5 -28.5t12.5 -24t19 -20t25 -17.5t31 -16t35 -15t39 -15.5t43 -17.5t46 -19.5q61 31 104 81t56 113q12 59 -24 87t-180 88q-31 13 -48 20q-136 -63 -160 -182q-6 -17 -3 -33.5z" />
<glyph unicode="&#xa8;" horiz-adv-x="1024" d="M350 1294q8 39 42 69t73 30q49 0 79 -37.5t21 -87.5q-8 -40 -42 -69.5t-74 -29.5q-51 0 -80.5 37.5t-18.5 87.5zM762 1294q9 39 43.5 69t73.5 30q49 0 79 -37.5t21 -87.5q-8 -40 -42.5 -69.5t-74.5 -29.5q-50 0 -79.5 37.5t-20.5 87.5z" />
<glyph unicode="&#xa9;" horiz-adv-x="1574" d="M111 688q0 148 54.5 280.5t148.5 228t227 151t284 55.5q200 0 363.5 -94.5t255.5 -258.5t92 -362q0 -147 -53.5 -278t-147 -226.5t-226 -151t-284.5 -55.5q-203 0 -367 94.5t-255.5 257t-91.5 359.5zM266 688q0 -154 71.5 -281.5t199.5 -201.5t286 -74q239 0 397 161 t158 396q0 154 -71.5 281.5t-199 201.5t-284.5 74t-285 -74t-200 -201.5t-72 -281.5zM465 690q0 157 112 265t281 108q108 0 225 -62l-49 -129q-80 39 -160 39q-61 0 -108 -23t-72.5 -58t-38 -70.5t-12.5 -67.5q0 -24 6 -50.5t22 -57.5t40.5 -55.5t66.5 -41t94 -16.5 q82 0 162 39l49 -133q-117 -62 -225 -62q-168 0 -280.5 108.5t-112.5 266.5z" />
<glyph unicode="&#xaa;" horiz-adv-x="761" d="M90 748q20 105 122.5 174t233.5 69q110 0 170 -18q32 194 -127 194q-130 0 -227 -55l-22 115q134 63 297 63q140 0 204 -80.5t35 -224.5l-86 -446h-158l17 88q-124 -105 -258 -105q-107 0 -163.5 65.5t-37.5 160.5zM246 756q-9 -52 17.5 -82.5t86.5 -30.5q70 0 147.5 56 t84.5 96l12 61q-73 21 -143 21q-180 0 -205 -121z" />
<glyph unicode="&#xab;" horiz-adv-x="1011" d="M43 518l391 379h197l-389 -379l241 -379h-196zM422 518l391 379h197l-389 -379l241 -379h-196z" />
<glyph unicode="&#xac;" horiz-adv-x="1341" d="M104 670v151h1147v-573h-151v422h-996z" />
<glyph unicode="&#xad;" horiz-adv-x="819" d="M98 481l33 162h614l-32 -162h-615z" />
<glyph unicode="&#xae;" horiz-adv-x="1574" d="M111 688q0 148 54.5 280.5t148.5 228t227 151t284 55.5q200 0 363.5 -94.5t255.5 -258.5t92 -362q0 -147 -53.5 -278t-147 -226.5t-226 -151t-284.5 -55.5q-203 0 -367 94.5t-255.5 257t-91.5 359.5zM266 688q0 -154 71.5 -281.5t199.5 -201.5t286 -74q239 0 397 161 t158 396q0 154 -71.5 281.5t-199 201.5t-284.5 74t-285 -74t-200 -201.5t-72 -281.5zM553 344v707h313q128 0 195 -55t67 -144q0 -68 -37.5 -122.5t-101.5 -84.5l170 -301h-178l-135 274h-119v-274h-174zM727 745h84q82 0 116 22.5t34 76.5q0 51 -32.5 70.5t-117.5 19.5h-84 v-189z" />
<glyph unicode="&#xaf;" horiz-adv-x="1021" d="M406 1200l26 141h486l-27 -141h-485z" />
<glyph unicode="&#xb0;" horiz-adv-x="673" d="M188 1130q0 115 79.5 194t193.5 79t193 -79t79 -194q0 -114 -79 -192t-193 -78t-193.5 78t-79.5 192zM328 1130q0 -57 39 -97t94 -40t94 40t39 97q0 58 -38.5 99t-94.5 41t-94.5 -41t-38.5 -99z" />
<glyph unicode="&#xb1;" horiz-adv-x="1386" d="M106 0v172h1139v-172h-1139zM106 635v172h480v334h178v-334h481v-172h-481v-338h-178v338h-480z" />
<glyph unicode="&#xb2;" horiz-adv-x="720" d="M143 901l23 113q5 26 14.5 51t18.5 44t26.5 39t27.5 32.5t33.5 30t32.5 25t36.5 22.5t34 18.5t36 18.5t31.5 16q92 41 140.5 82.5t59.5 99.5q10 50 -17 76t-83 26q-104 0 -227 -69l-31 121q148 71 283 71q123 0 188.5 -65.5t44.5 -179.5q-15 -78 -80.5 -142t-208.5 -141 q-101 -45 -149 -81t-62 -95l433 8l-23 -121h-582z" />
<glyph unicode="&#xb3;" horiz-adv-x="716" d="M158 950l51 101q87 -47 203 -47q76 0 131 38.5t67 100.5q13 67 -46 104t-177 37h-35l21 100h20q105 0 179 38t87 102q8 37 -17.5 59.5t-80.5 22.5q-47 0 -107.5 -14.5t-105.5 -37.5l-24 111q43 23 110.5 38t130.5 15q132 0 199.5 -59t48.5 -152q-23 -119 -192 -172 q80 -28 121.5 -85.5t25.5 -139.5q-20 -99 -115.5 -159t-240.5 -60q-158 0 -254 59z" />
<glyph unicode="&#xb4;" horiz-adv-x="966" d="M557 1126l205 295h225l-274 -295h-156z" />
<glyph unicode="&#xb6;" horiz-adv-x="1310" d="M217 987q76 393 596 393h590l-27 -141h-137l-268 -1376h-144l269 1376h-138l-268 -1376h-143l135 694h-14q-261 0 -375.5 114t-75.5 316z" />
<glyph unicode="&#xb7;" horiz-adv-x="401" d="M74 549q9 50 52.5 87.5t92.5 37.5q60 0 98 -46.5t27 -105.5q-10 -51 -55.5 -89t-95.5 -38q-59 0 -94.5 46.5t-24.5 107.5z" />
<glyph unicode="&#xb8;" horiz-adv-x="1021" d="M137 -371l56 97q45 -27 104 -27q88 0 100 59q4 21 -5.5 35t-33 20.5t-48.5 8.5t-64 2l100 176h139l-79 -113q64 -12 101 -49.5t25 -105.5q-14 -73 -75 -115.5t-154 -42.5q-104 0 -166 55z" />
<glyph unicode="&#xb9;" horiz-adv-x="716" d="M336 1597l235 111h138l-158 -807h-154l133 676l-174 -84z" />
<glyph unicode="&#xba;" horiz-adv-x="839" d="M121 918q29 151 156 257.5t282 106.5q166 0 257.5 -114.5t60.5 -276.5q-30 -151 -157 -257t-284 -106q-163 0 -254.5 114.5t-60.5 275.5zM276 891q-22 -103 24.5 -172.5t137.5 -69.5q100 0 181.5 77.5t103.5 191.5q20 105 -25.5 174t-136.5 69q-100 0 -181.5 -77.5 t-103.5 -192.5z" />
<glyph unicode="&#xbb;" horiz-adv-x="1011" d="M10 139l389 379l-241 379h196l244 -379l-391 -379h-197zM389 139l389 379l-241 379h194l244 -379l-391 -379h-195z" />
<glyph unicode="&#xbc;" horiz-adv-x="1681" d="M184 -23l1135 1377h166l-1135 -1377h-166zM238 1231l235 110h137l-157 -806h-154l133 675l-174 -84zM864 211l21 104l501 488h136l-92 -484h114l-20 -108h-117l-43 -215h-145l43 215h-398zM1036 319h246l59 295z" />
<glyph unicode="&#xbd;" horiz-adv-x="1734" d="M168 -23l1135 1377h161l-1134 -1377h-162zM238 1231l235 110h137l-157 -806h-154l133 675l-174 -84zM952 0l23 113q5 26 14.5 51t18.5 44t26.5 39t27.5 32.5t33.5 30t32.5 25t36.5 22.5t34 18.5t36 18.5t31.5 16q92 41 140.5 82.5t59.5 99.5q10 50 -17 76t-83 26 q-104 0 -227 -69l-31 120q150 72 283 72q123 0 188.5 -66t44.5 -180q-15 -78 -80.5 -141.5t-208.5 -140.5q-101 -45 -149 -81t-62 -95l432 8l-22 -121h-582z" />
<glyph unicode="&#xbe;" horiz-adv-x="1794" d="M111 573l51 101q87 -47 203 -47q76 0 131 38.5t67 100.5q13 67 -46 104t-177 37h-35l21 101h20q106 0 179.5 37.5t86.5 101.5q8 37 -17.5 59.5t-80.5 22.5q-47 0 -107.5 -14t-105.5 -37l-25 110q43 23 111 38t131 15q132 0 199.5 -59t48.5 -152q-23 -118 -193 -172 q80 -28 122 -85.5t26 -139.5q-20 -99 -115.5 -159t-240.5 -60q-158 0 -254 59zM307 -23l1135 1377h162l-1135 -1377h-162zM977 211l20 104l502 488h135l-92 -484h115l-21 -108h-116l-43 -215h-146l43 215h-397zM1149 319h246l59 295z" />
<glyph unicode="&#xbf;" horiz-adv-x="897" d="M-22.5 -174q-2.5 36 6.5 68q10 49 30.5 93t54.5 86t60 68.5t72 69.5q57 55 88 87.5t69 81t60 98t33 106.5h176q-15 -75 -40.5 -136t-66 -113.5t-67.5 -81.5t-80 -79q-14 -13 -21 -20q-76 -76 -116.5 -132t-51.5 -114q-15 -79 25.5 -123.5t130.5 -44.5q59 0 120.5 18.5 t155.5 59.5l23 -135q-211 -103 -375 -103q-65 0 -115.5 14.5t-81.5 38.5t-53 55.5t-28 66.5t-8.5 71zM457 881q10 51 54.5 88t94.5 37q60 0 95.5 -46t23.5 -106q-7 -49 -51 -87t-94 -38q-60 0 -97 46.5t-26 105.5z" />
<glyph unicode="&#xc0;" horiz-adv-x="1329" d="M-76 0l801 1380h221l266 -1380h-202l-72 424h-565l-240 -424h-209zM457 573h456l-104 627zM496 1751h225l207 -295h-156z" />
<glyph unicode="&#xc1;" horiz-adv-x="1329" d="M-76 0l801 1380h221l266 -1380h-202l-72 424h-565l-240 -424h-209zM457 573h456l-104 627zM774 1458l205 295h225l-274 -295h-156z" />
<glyph unicode="&#xc2;" horiz-adv-x="1329" d="M-76 0l801 1380h221l266 -1380h-202l-72 424h-565l-240 -424h-209zM457 573h456l-104 627zM561 1458l258 295h174l142 -295h-168l-84 189l-152 -189h-170z" />
<glyph unicode="&#xc3;" horiz-adv-x="1329" d="M-76 0l801 1380h221l266 -1380h-202l-72 424h-565l-240 -424h-209zM457 573h456l-104 627zM545 1483q0 65 18 112.5t48 72t62.5 35.5t67.5 11q61 0 139.5 -34.5t123.5 -34.5q33 0 50.5 23.5t14.5 64.5h156q0 -66 -18 -113.5t-48.5 -72t-63 -35.5t-67.5 -11q-61 0 -139 35 t-123 35q-33 0 -51 -23t-15 -65h-155z" />
<glyph unicode="&#xc4;" horiz-adv-x="1329" d="M-76 0l801 1380h221l266 -1380h-202l-72 424h-565l-240 -424h-209zM457 573h456l-104 627zM567 1626q8 39 42 68.5t73 29.5q49 0 79 -37.5t21 -87.5q-8 -40 -42 -69t-74 -29q-51 0 -80.5 37.5t-18.5 87.5zM979 1626q9 39 43.5 68.5t73.5 29.5q49 0 79 -37.5t21 -87.5 q-7 -40 -42 -69t-75 -29q-50 0 -79.5 37.5t-20.5 87.5z" />
<glyph unicode="&#xc5;" horiz-adv-x="1329" d="M-76 0l801 1380h221l266 -1380h-202l-72 424h-565l-240 -424h-209zM457 573h456l-104 627zM688 1626q17 83 83 139t149 56q82 0 126 -56.5t27 -138.5q-14 -80 -79 -136t-148 -56q-84 0 -128.5 55.5t-29.5 136.5zM778 1626q-8 -42 16 -71t68 -29q42 0 76.5 29t42.5 71 q9 43 -15 73t-65 30q-43 0 -78.5 -30t-44.5 -73z" />
<glyph unicode="&#xc6;" horiz-adv-x="1824" d="M-76 0l1112 1380h862l-30 -161h-654l-86 -433h615l-31 -159h-614l-90 -465h669l-30 -162h-865l84 424h-397l-334 -424h-211zM586 573h309l102 527z" />
<glyph unicode="&#xc7;" horiz-adv-x="1304" d="M117 702q28 143 102.5 271t182 223.5t251.5 151t301 55.5q210 0 414 -119l-78 -145q-135 100 -321 100q-149 0 -284 -65.5t-235.5 -195t-134.5 -300.5q-24 -128 -2.5 -228.5t79.5 -169.5t144.5 -105t192.5 -36q193 0 379 111l33 -162q-227 -111 -439 -111h-14l-63 -90 q64 -12 101.5 -49.5t25.5 -105.5q-14 -72 -75.5 -115t-154.5 -43q-104 0 -166 55l56 97q45 -27 104 -27q88 0 100 59q4 21 -5.5 35t-33 20.5t-48.5 8.5t-64 2l94 166q-170 31 -283 134t-153.5 253t-5.5 325z" />
<glyph unicode="&#xc8;" horiz-adv-x="1110" d="M68 0l268 1380h848l-31 -161h-653l-86 -433h614l-33 -159h-612l-90 -465h670l-31 -162h-864zM461 1753h225l207 -295h-156z" />
<glyph unicode="&#xc9;" horiz-adv-x="1110" d="M68 0l268 1380h848l-31 -161h-653l-86 -433h614l-33 -159h-612l-90 -465h670l-31 -162h-864zM696 1458l205 295h225l-274 -295h-156z" />
<glyph unicode="&#xca;" horiz-adv-x="1110" d="M68 0l268 1380h848l-31 -161h-653l-86 -433h614l-33 -159h-612l-90 -465h670l-31 -162h-864zM487 1458l258 295h175l141 -295h-168l-84 189l-152 -189h-170z" />
<glyph unicode="&#xcb;" horiz-adv-x="1110" d="M68 0l268 1380h848l-31 -161h-653l-86 -433h614l-33 -159h-612l-90 -465h670l-31 -162h-864zM500 1626q8 39 41.5 68.5t72.5 29.5q49 0 79.5 -37.5t21.5 -87.5q-7 -40 -42 -69t-75 -29q-51 0 -80 37.5t-18 87.5zM911 1626q9 39 43.5 68.5t73.5 29.5q49 0 79 -37.5 t21 -87.5q-8 -40 -42 -69t-74 -29q-51 0 -80.5 37.5t-20.5 87.5z" />
<glyph unicode="&#xcc;" horiz-adv-x="522" d="M68 0l268 1380h194l-268 -1380h-194zM94 1753h225l207 -295h-155z" />
<glyph unicode="&#xcd;" horiz-adv-x="473" d="M68 0l268 1380h194l-268 -1380h-194zM371 1458l204 295h226l-275 -295h-155z" />
<glyph unicode="&#xce;" horiz-adv-x="524" d="M68 0l268 1380h194l-268 -1380h-194zM160 1458l258 295h174l141 -295h-168l-84 189l-151 -189h-170z" />
<glyph unicode="&#xcf;" horiz-adv-x="522" d="M68 0l268 1380h194l-268 -1380h-194zM166 1626q8 39 42 68.5t73 29.5q49 0 79 -37.5t21 -87.5q-7 -40 -42 -69t-75 -29q-51 0 -80 37.5t-18 87.5zM578 1626q9 39 43 68.5t73 29.5q49 0 79.5 -37.5t21.5 -87.5q-7 -40 -42 -69t-75 -29q-50 0 -79.5 37.5t-20.5 87.5z" />
<glyph unicode="&#xd0;" horiz-adv-x="1536" d="M45 627l31 155h176l117 598h499q154 0 283.5 -51t215.5 -141t121 -222.5t5 -287.5q-38 -199 -169.5 -355t-318 -239.5t-393.5 -83.5h-512l121 627h-176zM328 156h260q123 0 231.5 33t187.5 87.5t140 126t96.5 147t50.5 152.5q9 45 9.5 90.5t-7 91t-25 88t-44.5 81.5 t-67.5 70.5t-90.5 54.5t-116.5 36t-143.5 13h-274l-86 -445h413l-31 -155h-413z" />
<glyph unicode="&#xd1;" horiz-adv-x="1431" d="M47 0l268 1380h217l527 -1130l221 1130h180l-268 -1380h-231l-517 1112l-217 -1112h-180zM590 1483q0 65 18 112.5t48 72t62.5 35.5t67.5 11q61 0 139.5 -34.5t123.5 -34.5q33 0 50.5 23.5t14.5 64.5h156q0 -66 -18 -113.5t-48.5 -72t-63 -35.5t-67.5 -11q-61 0 -139 35 t-123 35q-33 0 -51 -23t-15 -65h-155z" />
<glyph unicode="&#xd2;" horiz-adv-x="1548" d="M117 702q27 143 105.5 273t187.5 224t247 149t279 55q195 0 340.5 -97t208 -264t24.5 -364q-37 -193 -160 -354t-299.5 -254t-365.5 -93q-145 0 -265.5 57.5t-196 154.5t-105 231t-0.5 282zM315 678q-29 -148 10.5 -273t136.5 -197.5t230 -72.5q140 0 273 76.5t226.5 207 t123.5 283.5q28 148 -12.5 273t-138.5 197.5t-232 72.5q-139 0 -271 -76.5t-224.5 -207t-121.5 -283.5zM614 1753h226l207 -295h-156z" />
<glyph unicode="&#xd3;" horiz-adv-x="1548" d="M117 702q27 143 105.5 273t187.5 224t247 149t279 55q195 0 340.5 -97t208 -264t24.5 -364q-37 -193 -160 -354t-299.5 -254t-365.5 -93q-145 0 -265.5 57.5t-196 154.5t-105 231t-0.5 282zM315 678q-29 -148 10.5 -273t136.5 -197.5t230 -72.5q140 0 273 76.5t226.5 207 t123.5 283.5q28 148 -12.5 273t-138.5 197.5t-232 72.5q-139 0 -271 -76.5t-224.5 -207t-121.5 -283.5zM883 1458l204 295h226l-275 -295h-155z" />
<glyph unicode="&#xd4;" horiz-adv-x="1548" d="M117 702q27 143 105.5 273t187.5 224t247 149t279 55q195 0 340.5 -97t208 -264t24.5 -364q-37 -193 -160 -354t-299.5 -254t-365.5 -93q-145 0 -265.5 57.5t-196 154.5t-105 231t-0.5 282zM315 678q-29 -148 10.5 -273t136.5 -197.5t230 -72.5q140 0 273 76.5t226.5 207 t123.5 283.5q28 148 -12.5 273t-138.5 197.5t-232 72.5q-139 0 -271 -76.5t-224.5 -207t-121.5 -283.5zM666 1458l258 295h174l141 -295h-168l-84 189l-151 -189h-170z" />
<glyph unicode="&#xd5;" horiz-adv-x="1548" d="M117 702q27 143 105.5 273t187.5 224t247 149t279 55q195 0 340.5 -97t208 -264t24.5 -364q-37 -193 -160 -354t-299.5 -254t-365.5 -93q-145 0 -265.5 57.5t-196 154.5t-105 231t-0.5 282zM315 678q-29 -148 10.5 -273t136.5 -197.5t230 -72.5q140 0 273 76.5t226.5 207 t123.5 283.5q28 148 -12.5 273t-138.5 197.5t-232 72.5q-139 0 -271 -76.5t-224.5 -207t-121.5 -283.5zM643 1483q0 65 18 112.5t48.5 72t63 35.5t67.5 11q61 0 139 -34.5t123 -34.5q33 0 50.5 23.5t14.5 64.5h156q0 -66 -18 -113.5t-48.5 -72t-63 -35.5t-67.5 -11 q-61 0 -139 35t-123 35q-33 0 -50.5 -23t-14.5 -65h-156z" />
<glyph unicode="&#xd6;" horiz-adv-x="1548" d="M117 702q27 143 105.5 273t187.5 224t247 149t279 55q195 0 340.5 -97t208 -264t24.5 -364q-37 -193 -160 -354t-299.5 -254t-365.5 -93q-145 0 -265.5 57.5t-196 154.5t-105 231t-0.5 282zM315 678q-29 -148 10.5 -273t136.5 -197.5t230 -72.5q140 0 273 76.5t226.5 207 t123.5 283.5q28 148 -12.5 273t-138.5 197.5t-232 72.5q-139 0 -271 -76.5t-224.5 -207t-121.5 -283.5zM676 1626q8 39 42 68.5t73 29.5q49 0 79 -37.5t21 -87.5q-7 -40 -42 -69t-75 -29q-51 0 -80 37.5t-18 87.5zM1087 1626q9 39 43.5 68.5t73.5 29.5q49 0 79.5 -37.5 t21.5 -87.5q-7 -40 -42 -69t-75 -29q-51 0 -80.5 37.5t-20.5 87.5z" />
<glyph unicode="&#xd7;" horiz-adv-x="1396" d="M160 111l430 432l-430 432l114 119l431 -435l432 435l116 -119l-432 -432l432 -432l-116 -115l-432 432l-431 -432z" />
<glyph unicode="&#xd8;" horiz-adv-x="1548" d="M55 2l174 180q-80 100 -111 234.5t-1 285.5q27 143 105.5 273t187.5 224t247 149t279 55q213 0 367 -121l174 180l94 -84l-176 -180q81 -102 112.5 -235.5t1.5 -284.5q-37 -193 -160 -354t-299.5 -254t-365.5 -93q-208 0 -365 117l-169 -174zM315 678q-41 -204 47 -363 l822 842q-101 88 -252 88q-139 0 -271 -76.5t-224.5 -207t-121.5 -283.5zM442 221q103 -86 250 -86q140 0 273 76.5t226.5 207t123.5 283.5q38 210 -51 363z" />
<glyph unicode="&#xd9;" horiz-adv-x="1439" d="M168.5 448q1.5 80 19.5 170l148 762h196l-143 -729q-51 -268 16 -392t242 -124q384 0 488 529l139 716h194l-149 -774q-27 -138 -79 -248.5t-132.5 -198t-198.5 -135t-266 -47.5q-102 0 -183.5 23t-136 65.5t-90.5 100t-51 130t-13.5 152.5zM573 1753h226l207 -295h-156z " />
<glyph unicode="&#xda;" horiz-adv-x="1439" d="M168.5 448q1.5 80 19.5 170l148 762h196l-143 -729q-51 -268 16 -392t242 -124q384 0 488 529l139 716h194l-149 -774q-27 -138 -79 -248.5t-132.5 -198t-198.5 -135t-266 -47.5q-102 0 -183.5 23t-136 65.5t-90.5 100t-51 130t-13.5 152.5zM819 1458l205 295h225 l-274 -295h-156z" />
<glyph unicode="&#xdb;" horiz-adv-x="1439" d="M168.5 448q1.5 80 19.5 170l148 762h196l-143 -729q-51 -268 16 -392t242 -124q384 0 488 529l139 716h194l-149 -774q-27 -138 -79 -248.5t-132.5 -198t-198.5 -135t-266 -47.5q-102 0 -183.5 23t-136 65.5t-90.5 100t-51 130t-13.5 152.5zM625 1458l258 295h174 l141 -295h-168l-84 189l-151 -189h-170z" />
<glyph unicode="&#xdc;" horiz-adv-x="1439" d="M168.5 448q1.5 80 19.5 170l148 762h196l-143 -729q-51 -268 16 -392t242 -124q384 0 488 529l139 716h194l-149 -774q-27 -138 -79 -248.5t-132.5 -198t-198.5 -135t-266 -47.5q-102 0 -183.5 23t-136 65.5t-90.5 100t-51 130t-13.5 152.5zM637 1626q8 39 42 68.5 t73 29.5q49 0 79 -37.5t21 -87.5q-7 -40 -42 -69t-75 -29q-51 0 -80 37.5t-18 87.5zM1049 1626q9 39 43 68.5t73 29.5q49 0 79.5 -37.5t21.5 -87.5q-7 -40 -42 -69t-75 -29q-50 0 -79.5 37.5t-20.5 87.5z" />
<glyph unicode="&#xdd;" horiz-adv-x="1232" d="M193 1380h217l256 -626l493 626h227l-657 -788l-117 -592h-196l121 608zM723 1458l205 295h225l-274 -295h-156z" />
<glyph unicode="&#xde;" horiz-adv-x="1189" d="M68 0l268 1380h194l-45 -243h215q264 0 380 -109t77 -309q-38 -194 -191 -302t-413 -108h-229l-62 -309h-194zM352 465h197q176 0 283.5 72.5t134.5 203.5q24 121 -50.5 182.5t-254.5 61.5h-207z" />
<glyph unicode="&#xdf;" horiz-adv-x="1210" d="M68 0l190 975q44 233 181.5 356t351.5 123q221 0 319 -103t61 -294q-24 -126 -97 -206.5t-195 -107.5q135 -25 195.5 -119.5t31.5 -242.5q-35 -187 -194.5 -284.5t-428.5 -96.5l31 154q164 0 268 67t127 189q25 120 -50.5 182.5t-248.5 62.5l29 148q136 0 225.5 66.5 t112.5 185.5q23 120 -26.5 182.5t-168.5 62.5q-129 0 -215.5 -87t-115.5 -244l-189 -969h-194z" />
<glyph unicode="&#xe0;" horiz-adv-x="1269" d="M80 508q27 141 114 258t213 184.5t263 67.5q212 0 323 -193l33 170h197l-195 -995h-192l34 158q-171 -178 -381 -178q-143 0 -247.5 70t-147.5 191t-14 267zM272 485q-28 -146 45 -249t209 -103q144 0 264.5 110t151.5 265q29 146 -43.5 251t-206.5 105q-145 0 -268 -112 t-152 -267zM393 1421h225l207 -295h-155z" />
<glyph unicode="&#xe1;" horiz-adv-x="1234" d="M61 508q27 141 114 258t213 184.5t263 67.5q213 0 324 -193l33 170h196l-194 -995h-193l35 158q-171 -178 -381 -178q-143 0 -247.5 70t-148 191.5t-14.5 266.5zM254 485q-28 -146 45 -249t209 -103q144 0 264.5 110t151.5 265q29 146 -43.5 251t-206.5 105 q-145 0 -268 -112t-152 -267zM653 1126l205 295h225l-274 -295h-156z" />
<glyph unicode="&#xe2;" horiz-adv-x="1234" d="M61 508q27 141 114 258t213 184.5t263 67.5q213 0 324 -193l33 170h196l-194 -995h-193l35 158q-171 -178 -381 -178q-143 0 -247.5 70t-148 191.5t-14.5 266.5zM254 485q-28 -146 45 -249t209 -103q144 0 264.5 110t151.5 265q29 146 -43.5 251t-206.5 105 q-145 0 -268 -112t-152 -267zM446 1126l259 295h174l141 -295h-168l-84 189l-152 -189h-170z" />
<glyph unicode="&#xe3;" horiz-adv-x="1234" d="M61 508q27 141 114 258t213 184.5t263 67.5q213 0 324 -193l33 170h196l-194 -995h-193l35 158q-171 -178 -381 -178q-143 0 -247.5 70t-148 191.5t-14.5 266.5zM254 485q-28 -146 45 -249t209 -103q144 0 264.5 110t151.5 265q29 146 -43.5 251t-206.5 105 q-145 0 -268 -112t-152 -267zM422 1165q0 65 18 112.5t48 72.5t62.5 36t67.5 11q61 0 139.5 -35t123.5 -35q33 0 50.5 23.5t14.5 64.5h156q0 -66 -18 -113.5t-48.5 -71.5t-63 -35t-67.5 -11q-61 0 -139 34.5t-123 34.5q-33 0 -50.5 -23t-14.5 -65h-156z" />
<glyph unicode="&#xe4;" horiz-adv-x="1234" d="M61 508q27 141 114 258t213 184.5t263 67.5q213 0 324 -193l33 170h196l-194 -995h-193l35 158q-171 -178 -381 -178q-143 0 -247.5 70t-148 191.5t-14.5 266.5zM254 485q-28 -146 45 -249t209 -103q144 0 264.5 110t151.5 265q29 146 -43.5 251t-206.5 105 q-145 0 -268 -112t-152 -267zM467 1294q8 39 42 69t73 30q49 0 79 -37.5t21 -87.5q-8 -40 -42.5 -69.5t-74.5 -29.5q-51 0 -80 37.5t-18 87.5zM879 1294q9 39 43 69t73 30q49 0 79.5 -37.5t21.5 -87.5q-8 -40 -42.5 -69.5t-74.5 -29.5q-50 0 -79.5 37.5t-20.5 87.5z" />
<glyph unicode="&#xe5;" horiz-adv-x="1234" d="M61 508q27 141 114 258t213 184.5t263 67.5q213 0 324 -193l33 170h196l-194 -995h-193l35 158q-171 -178 -381 -178q-143 0 -247.5 70t-148 191.5t-14.5 266.5zM254 485q-28 -146 45 -249t209 -103q144 0 264.5 110t151.5 265q29 146 -43.5 251t-206.5 105 q-145 0 -268 -112t-152 -267zM588 1292q17 83 83 139t148 56t126.5 -56.5t27.5 -138.5q-14 -80 -79.5 -136t-148.5 -56q-84 0 -128 55.5t-29 136.5zM678 1292q-8 -42 16 -71t68 -29q42 0 76.5 29t42.5 71q9 43 -15 73t-65 30q-43 0 -78.5 -30t-44.5 -73z" />
<glyph unicode="&#xe6;" horiz-adv-x="1779" d="M20 274q28 141 162.5 234.5t347.5 93.5q59 0 116.5 -8t85.5 -16l28 -7q9 50 11 91t-7 82t-31.5 68.5t-66 44.5t-105.5 17q-72 0 -156 -18.5t-147 -50.5l-27 129q178 84 390 84q130 0 201.5 -42t92.5 -138q80 84 187.5 132t230.5 48q221 0 325.5 -152.5t49.5 -419.5h-786 q-24 -134 63 -224.5t252 -90.5q74 0 154.5 19t124.5 38l43 19l22 -135q-7 -4 -20 -10.5t-54 -22.5t-83 -28.5t-103.5 -23t-120.5 -10.5q-294 0 -420 246q-82 -102 -210.5 -174t-270.5 -72q-152 0 -228 85.5t-51 211.5zM217 291q-15 -76 25.5 -123t119.5 -47q75 0 157.5 40.5 t135 91.5t58.5 87l20 100q-65 33 -198 33q-136 0 -218 -45.5t-100 -136.5zM952 602h596q0 126 -59 201.5t-186 75.5q-235 0 -351 -277z" />
<glyph unicode="&#xe7;" horiz-adv-x="1009" d="M86 510q42 215 221 361.5t408 146.5q158 0 309 -90l-66 -127q-47 28 -110 44.5t-119 16.5q-91 0 -171 -33t-136 -87.5t-93 -121t-50 -137.5q-8 -52 -6.5 -102t23 -95t54.5 -79t88 -54t125 -20q62 0 135 19.5t131 48.5l31 -142q-168 -82 -319 -82l-64 -90 q64 -12 101.5 -49.5t25.5 -105.5q-14 -73 -75 -115.5t-154 -42.5q-104 0 -166 55l55 97q45 -27 105 -27q88 0 100 59q8 40 -31.5 53t-120.5 13l95 166q-182 41 -272.5 185.5t-53.5 334.5z" />
<glyph unicode="&#xe8;" horiz-adv-x="1120" d="M76.5 338q-4.5 78 9.5 164q20 104 71.5 197t126.5 164.5t177 113t215 41.5q222 0 322 -153t34 -419h-770q-12 -142 69 -229.5t249 -87.5q74 0 153.5 19.5t122.5 39.5l43 19l23 -135q-7 -4 -19.5 -10.5t-53.5 -22.5t-84 -28.5t-107.5 -23t-127.5 -10.5q-105 0 -189.5 27 t-138 75.5t-87.5 114.5t-38.5 144zM293 586h575q16 134 -39.5 213.5t-183.5 79.5q-124 0 -215 -80t-137 -213zM367 1421h225l207 -295h-156z" />
<glyph unicode="&#xe9;" horiz-adv-x="1120" d="M76.5 338q-4.5 78 9.5 164q20 104 71.5 197t126.5 164.5t177 113t215 41.5q222 0 322 -153t34 -419h-770q-12 -142 69 -229.5t249 -87.5q74 0 153.5 19.5t122.5 39.5l43 19l23 -135q-7 -4 -19.5 -10.5t-53.5 -22.5t-84 -28.5t-107.5 -23t-127.5 -10.5q-105 0 -189.5 27 t-138 75.5t-87.5 114.5t-38.5 144zM293 586h575q16 134 -39.5 213.5t-183.5 79.5q-124 0 -215 -80t-137 -213zM575 1126l205 295h226l-275 -295h-156z" />
<glyph unicode="&#xea;" horiz-adv-x="1120" d="M76.5 338q-4.5 78 9.5 164q20 104 71.5 197t126.5 164.5t177 113t215 41.5q222 0 322 -153t34 -419h-770q-12 -142 69 -229.5t249 -87.5q74 0 153.5 19.5t122.5 39.5l43 19l23 -135q-7 -4 -19.5 -10.5t-53.5 -22.5t-84 -28.5t-107.5 -23t-127.5 -10.5q-105 0 -189.5 27 t-138 75.5t-87.5 114.5t-38.5 144zM293 586h575q16 134 -39.5 213.5t-183.5 79.5q-124 0 -215 -80t-137 -213zM426 1126l258 295h174l141 -295h-168l-83 189l-152 -189h-170z" />
<glyph unicode="&#xeb;" horiz-adv-x="1120" d="M76.5 338q-4.5 78 9.5 164q20 104 71.5 197t126.5 164.5t177 113t215 41.5q222 0 322 -153t34 -419h-770q-12 -142 69 -229.5t249 -87.5q74 0 153.5 19.5t122.5 39.5l43 19l23 -135q-7 -4 -19.5 -10.5t-53.5 -22.5t-84 -28.5t-107.5 -23t-127.5 -10.5q-105 0 -189.5 27 t-138 75.5t-87.5 114.5t-38.5 144zM293 586h575q16 134 -39.5 213.5t-183.5 79.5q-124 0 -215 -80t-137 -213zM432 1294q8 39 42 69t73 30q49 0 79 -37.5t21 -87.5q-8 -40 -42.5 -69.5t-74.5 -29.5q-51 0 -80 37.5t-18 87.5zM844 1294q9 39 43.5 69t73.5 30q49 0 79 -37.5 t21 -87.5q-8 -40 -42.5 -69.5t-74.5 -29.5q-50 0 -79.5 37.5t-20.5 87.5z" />
<glyph unicode="&#xec;" horiz-adv-x="552" d="M45 1421h225l207 -295h-155zM84 0l192 995h193l-195 -995h-190z" />
<glyph unicode="&#xed;" horiz-adv-x="501" d="M84 0l192 995h193l-195 -995h-190zM326 1126l204 295h226l-275 -295h-155z" />
<glyph unicode="&#xee;" horiz-adv-x="552" d="M84 0l192 995h193l-195 -995h-190zM113 1126l258 295h174l141 -295h-168l-84 189l-151 -189h-170z" />
<glyph unicode="&#xef;" horiz-adv-x="552" d="M84 0l192 995h193l-195 -995h-190zM115 1294q8 39 41.5 69t72.5 30q49 0 79.5 -37.5t21.5 -87.5q-8 -40 -42.5 -69.5t-74.5 -29.5q-51 0 -80 37.5t-18 87.5zM526 1294q9 39 43.5 69t73.5 30q49 0 79 -37.5t21 -87.5q-8 -40 -42 -69.5t-74 -29.5q-51 0 -80.5 37.5 t-20.5 87.5z" />
<glyph unicode="&#xf0;" horiz-adv-x="1175" d="M86 506q43 226 198 365t369 139q124 0 219 -54q-46 123 -129 215l-331 -116l-37 102l276 96q-94 64 -211 86l74 148q207 -40 346 -168l305 106l35 -102l-260 -90q112 -136 156.5 -317.5t5.5 -376.5q-51 -260 -213.5 -411t-392.5 -151q-227 0 -342 144t-68 385zM283 481 q-33 -172 26 -263t187 -91q82 0 152 36.5t119 98.5t81.5 136.5t48.5 158.5q21 108 12 219q-37 36 -102 60t-135 24q-142 0 -247 -97t-142 -282z" />
<glyph unicode="&#xf1;" horiz-adv-x="1220" d="M53 0l197 995h194l-30 -151q86 86 175.5 130t201.5 44q73 0 130.5 -17.5t95 -48t62 -70t34.5 -86t10 -93t-9 -93.5l-119 -610h-196l110 573q61 287 -155 287q-127 0 -236 -84t-158 -209l-112 -567h-195zM440 1165q0 65 18 112.5t48.5 72.5t63 36t67.5 11q61 0 139 -35 t123 -35q33 0 51 23.5t15 64.5h155q0 -66 -18 -113.5t-48.5 -71.5t-62.5 -35t-67 -11q-61 0 -139 34.5t-123 34.5q-33 0 -51 -23t-15 -65h-156z" />
<glyph unicode="&#xf2;" horiz-adv-x="1216" d="M78 510q43 214 221.5 361t396.5 147q149 0 261 -71t160.5 -194t19.5 -270q-27 -140 -118 -256.5t-223.5 -183t-275.5 -66.5q-150 0 -261.5 71t-160 193.5t-20.5 268.5zM272 485q-29 -153 44 -257.5t208 -104.5q145 0 267 113t153 274q31 152 -42 257t-208 105 q-144 0 -267 -112.5t-155 -274.5zM377 1421h225l207 -295h-156z" />
<glyph unicode="&#xf3;" horiz-adv-x="1216" d="M78 510q43 214 221.5 361t396.5 147q149 0 261 -71t160.5 -194t19.5 -270q-27 -140 -118 -256.5t-223.5 -183t-275.5 -66.5q-150 0 -261.5 71t-160 193.5t-20.5 268.5zM272 485q-29 -153 44 -257.5t208 -104.5q145 0 267 113t153 274q31 152 -42 257t-208 105 q-144 0 -267 -112.5t-155 -274.5zM657 1126l205 295h225l-274 -295h-156z" />
<glyph unicode="&#xf4;" horiz-adv-x="1216" d="M78 510q43 214 221.5 361t396.5 147q149 0 261 -71t160.5 -194t19.5 -270q-27 -140 -118 -256.5t-223.5 -183t-275.5 -66.5q-150 0 -261.5 71t-160 193.5t-20.5 268.5zM272 485q-29 -153 44 -257.5t208 -104.5q145 0 267 113t153 274q31 152 -42 257t-208 105 q-144 0 -267 -112.5t-155 -274.5zM444 1126l258 295h175l141 -295h-168l-84 189l-152 -189h-170z" />
<glyph unicode="&#xf5;" horiz-adv-x="1216" d="M78 510q43 214 221.5 361t396.5 147q149 0 261 -71t160.5 -194t19.5 -270q-27 -140 -118 -256.5t-223.5 -183t-275.5 -66.5q-150 0 -261.5 71t-160 193.5t-20.5 268.5zM272 485q-29 -153 44 -257.5t208 -104.5q145 0 267 113t153 274q31 152 -42 257t-208 105 q-144 0 -267 -112.5t-155 -274.5zM422 1165q0 65 18 112.5t48 72.5t62.5 36t67.5 11q61 0 139.5 -35t123.5 -35q33 0 50.5 23.5t14.5 64.5h156q0 -66 -18 -113.5t-48.5 -71.5t-63 -35t-67.5 -11q-61 0 -139 34.5t-123 34.5q-33 0 -50.5 -23t-14.5 -65h-156z" />
<glyph unicode="&#xf6;" horiz-adv-x="1216" d="M78 510q43 214 221.5 361t396.5 147q149 0 261 -71t160.5 -194t19.5 -270q-27 -140 -118 -256.5t-223.5 -183t-275.5 -66.5q-150 0 -261.5 71t-160 193.5t-20.5 268.5zM272 485q-29 -153 44 -257.5t208 -104.5q145 0 267 113t153 274q31 152 -42 257t-208 105 q-144 0 -267 -112.5t-155 -274.5zM449 1294q8 39 41.5 69t72.5 30q49 0 79.5 -37.5t21.5 -87.5q-8 -40 -42.5 -69.5t-74.5 -29.5q-51 0 -80 37.5t-18 87.5zM860 1294q9 39 43.5 69t73.5 30q49 0 79 -37.5t21 -87.5q-8 -40 -42 -69.5t-74 -29.5q-51 0 -80.5 37.5t-20.5 87.5z " />
<glyph unicode="&#xf7;" horiz-adv-x="1263" d="M68 461v172h1146v-172h-1146zM524 119q0 48 34.5 82.5t84.5 34.5q49 0 83 -34.5t34 -82.5q0 -50 -34 -84.5t-83 -34.5q-51 0 -85 34.5t-34 84.5zM524 971q0 50 34 84.5t85 34.5q49 0 83 -34.5t34 -84.5q0 -48 -34 -82.5t-83 -34.5q-50 0 -84.5 34.5t-34.5 82.5z" />
<glyph unicode="&#xf8;" horiz-adv-x="1216" d="M41 -16l133 137q-67 73 -93 173.5t-3 215.5q43 214 221.5 361t396.5 147q159 0 275 -80l125 129l71 -63l-125 -130q66 -74 92 -175.5t3 -215.5q-27 -140 -118 -256.5t-223.5 -183t-275.5 -66.5q-158 0 -274 80l-133 -137zM272 485q-25 -139 29 -233l553 567 q-69 53 -160 53q-144 0 -267 -112.5t-155 -274.5zM362 176q69 -53 162 -53q145 0 267 113t153 274q27 134 -29 235z" />
<glyph unicode="&#xf9;" horiz-adv-x="1202" d="M100 290q0 46 9 93l120 612h195l-111 -573q-61 -287 158 -287q128 0 238 85.5t155 211.5l111 563h194l-194 -995h-195l29 150q-85 -85 -174.5 -129t-202.5 -44q-73 0 -131 17.5t-95 48t-61.5 70t-34.5 85.5t-10 92zM371 1421h225l207 -295h-156z" />
<glyph unicode="&#xfa;" horiz-adv-x="1202" d="M100 290q0 46 9 93l120 612h195l-111 -573q-61 -287 158 -287q128 0 238 85.5t155 211.5l111 563h194l-194 -995h-195l29 150q-85 -85 -174.5 -129t-202.5 -44q-73 0 -131 17.5t-95 48t-61.5 70t-34.5 85.5t-10 92zM643 1126l205 295h225l-274 -295h-156z" />
<glyph unicode="&#xfb;" horiz-adv-x="1202" d="M100 290q0 46 9 93l120 612h195l-111 -573q-61 -287 158 -287q128 0 238 85.5t155 211.5l111 563h194l-194 -995h-195l29 150q-85 -85 -174.5 -129t-202.5 -44q-73 0 -131 17.5t-95 48t-61.5 70t-34.5 85.5t-10 92zM436 1126l258 295h174l142 -295h-168l-84 189 l-152 -189h-170z" />
<glyph unicode="&#xfc;" horiz-adv-x="1202" d="M100 290q0 46 9 93l120 612h195l-111 -573q-61 -287 158 -287q128 0 238 85.5t155 211.5l111 563h194l-194 -995h-195l29 150q-85 -85 -174.5 -129t-202.5 -44q-73 0 -131 17.5t-95 48t-61.5 70t-34.5 85.5t-10 92zM438 1294q8 39 42 69t73 30q49 0 79 -37.5t21 -87.5 q-8 -40 -42 -69.5t-74 -29.5q-51 0 -80.5 37.5t-18.5 87.5zM850 1294q9 39 43.5 69t73.5 30q49 0 79 -37.5t21 -87.5q-8 -40 -42.5 -69.5t-74.5 -29.5q-50 0 -79.5 37.5t-20.5 87.5z" />
<glyph unicode="&#xfd;" horiz-adv-x="1050" d="M-20 -287q80 0 164 66t124 145l49 82l-200 989h207l141 -782l448 782h215l-610 -995l-123 -203q-154 -249 -393 -252zM569 1126l205 295h225l-274 -295h-156z" />
<glyph unicode="&#xfe;" horiz-adv-x="1290" d="M-16 -406l362 1860h193l-123 -623q180 187 389 187q140 0 242 -70t144.5 -190t14.5 -264q-27 -142 -115.5 -260t-217 -186t-267.5 -68q-213 0 -317 184l-113 -570h-192zM344 494q-28 -149 46 -255t212 -106q141 0 260.5 108t147.5 259q29 149 -46.5 256.5t-213.5 107.5 q-140 0 -258.5 -109t-147.5 -261z" />
<glyph unicode="&#xff;" horiz-adv-x="1050" d="M-20 -287q80 0 164 66t124 145l49 82l-200 989h207l141 -782l448 782h215l-610 -995l-123 -203q-154 -249 -393 -252zM367 1294q8 39 41.5 69t72.5 30q49 0 79.5 -37.5t21.5 -87.5q-8 -40 -42.5 -69.5t-74.5 -29.5q-51 0 -80 37.5t-18 87.5zM778 1294q9 39 43.5 69 t73.5 30q49 0 79 -37.5t21 -87.5q-8 -40 -42 -69.5t-74 -29.5q-51 0 -80.5 37.5t-20.5 87.5z" />
<glyph unicode="&#x152;" horiz-adv-x="1837" d="M117 702q36 190 157.5 346t297.5 244t368 88h971l-31 -161h-653l-84 -433h612l-31 -159h-612l-92 -465h670l-31 -162h-975q-192 0 -335.5 91t-206.5 252.5t-25 358.5zM315 676q-43 -221 67.5 -367.5t319.5 -146.5h125l205 1057h-110q-211 0 -387 -156t-220 -387z" />
<glyph unicode="&#x153;" horiz-adv-x="1972" d="M76 498q28 143 121.5 262t229 188.5t282.5 69.5q133 0 229 -57.5t141 -159.5q82 102 196.5 159.5t250.5 57.5q145 0 241 -68t127.5 -195t-12.5 -309h-768q-24 -133 63 -225t253 -92q74 0 154 19.5t124 39.5l43 19l21 -135q-7 -4 -19.5 -10.5t-53.5 -22.5t-84 -28.5 t-107.5 -23t-127.5 -10.5q-157 0 -262.5 59t-152.5 163q-87 -104 -204.5 -163t-252.5 -59q-111 0 -202 41t-148 110.5t-79.5 165.5t-2.5 204zM276 498q-31 -157 45 -266t216 -109t257 109t148 266q29 157 -45.5 265.5t-214.5 108.5t-258.5 -109t-147.5 -265zM1139 586h581 q16 135 -40 214t-185 79q-238 0 -356 -293z" />
<glyph unicode="&#x178;" horiz-adv-x="1232" d="M193 1380h217l256 -626l493 626h227l-657 -788l-117 -592h-196l121 608zM522 1626q8 39 42 68.5t73 29.5q49 0 79 -37.5t21 -87.5q-8 -40 -42 -69t-74 -29q-51 0 -80.5 37.5t-18.5 87.5zM934 1626q9 39 43.5 68.5t73.5 29.5q49 0 79 -37.5t21 -87.5q-7 -40 -42 -69 t-75 -29q-50 0 -79.5 37.5t-20.5 87.5z" />
<glyph unicode="&#x2c6;" horiz-adv-x="1021" d="M348 1126l258 295h174l142 -295h-168l-84 189l-152 -189h-170z" />
<glyph unicode="&#x2dc;" horiz-adv-x="991" d="M309 1165q0 65 18 112.5t48.5 72.5t63 36t67.5 11q61 0 139 -35t123 -35q33 0 51 23.5t15 64.5h155q0 -66 -18 -113.5t-48.5 -71.5t-62.5 -35t-67 -11q-61 0 -139.5 34.5t-123.5 34.5q-33 0 -50.5 -23t-14.5 -65h-156z" />
<glyph unicode="&#x2000;" horiz-adv-x="910" />
<glyph unicode="&#x2001;" horiz-adv-x="1821" />
<glyph unicode="&#x2002;" horiz-adv-x="910" />
<glyph unicode="&#x2003;" horiz-adv-x="1821" />
<glyph unicode="&#x2004;" horiz-adv-x="607" />
<glyph unicode="&#x2005;" horiz-adv-x="455" />
<glyph unicode="&#x2006;" horiz-adv-x="303" />
<glyph unicode="&#x2007;" horiz-adv-x="303" />
<glyph unicode="&#x2008;" horiz-adv-x="227" />
<glyph unicode="&#x2009;" horiz-adv-x="364" />
<glyph unicode="&#x200a;" horiz-adv-x="101" />
<glyph unicode="&#x2010;" horiz-adv-x="819" d="M98 481l33 162h614l-32 -162h-615z" />
<glyph unicode="&#x2011;" horiz-adv-x="819" d="M98 481l33 162h614l-32 -162h-615z" />
<glyph unicode="&#x2012;" horiz-adv-x="819" d="M98 481l33 162h614l-32 -162h-615z" />
<glyph unicode="&#x2013;" horiz-adv-x="1024" d="M98 481l33 162h819l-32 -162h-820z" />
<glyph unicode="&#x2014;" horiz-adv-x="2048" d="M98 481l33 162h1843l-32 -162h-1844z" />
<glyph unicode="&#x2018;" horiz-adv-x="593" d="M199 909q13 67 51 143.5t83 138.5t88.5 115t72.5 82l28 29h133q-9 -9 -54.5 -78t-109 -197.5t-83.5 -232.5h-209z" />
<glyph unicode="&#x2019;" horiz-adv-x="593" d="M199 909q8 11 22 31t50.5 80t67.5 118t61.5 136t43.5 143h211q-13 -66 -51 -142.5t-83.5 -139t-89 -115t-72.5 -82.5l-29 -29h-131z" />
<glyph unicode="&#x201a;" horiz-adv-x="602" d="M-27 -244l250 510h215l-329 -510h-136z" />
<glyph unicode="&#x201c;" horiz-adv-x="935" d="M199 909q13 67 51 143.5t83 138.5t88.5 115t72.5 82l28 29h133q-8 -11 -22 -31t-51.5 -79.5t-68 -117.5t-61.5 -136t-44 -144h-209zM539 909q13 67 51.5 143.5t83.5 138.5t88.5 115t72.5 82l29 29h131q-8 -11 -22 -31t-50.5 -79.5t-67.5 -117.5t-61.5 -136t-43.5 -144 h-211z" />
<glyph unicode="&#x201d;" horiz-adv-x="935" d="M199 909q8 11 22 31t51 79.5t68 117.5t61.5 136t42.5 144h211q-13 -67 -51 -143.5t-83.5 -138.5t-89 -115t-72.5 -82l-29 -29h-131zM539 909q8 11 22 31t51.5 79.5t68.5 117.5t62 136t43 144h209q-13 -67 -50.5 -143.5t-83 -138.5t-88.5 -115t-72 -82l-29 -29h-133z" />
<glyph unicode="&#x201e;" horiz-adv-x="946" d="M-27 -244l250 510h215l-329 -510h-136zM317 -244l250 510h215l-329 -510h-136z" />
<glyph unicode="&#x2022;" horiz-adv-x="692" d="M117 559q0 102 69.5 173t171.5 71q103 0 172.5 -71t69.5 -173q0 -101 -69.5 -171.5t-172.5 -70.5q-102 0 -171.5 70.5t-69.5 171.5z" />
<glyph unicode="&#x2026;" horiz-adv-x="1955" d="M49 129q9 50 53 88.5t93 38.5q60 0 96.5 -47t25.5 -107q-9 -50 -53.5 -87.5t-95.5 -37.5q-60 0 -95.5 46t-23.5 106zM772 129q9 50 53 88.5t93 38.5q60 0 96.5 -47t25.5 -107q-9 -50 -53.5 -87.5t-95.5 -37.5q-60 0 -95.5 46t-23.5 106zM1493 129q9 50 52.5 88.5 t92.5 38.5q60 0 97 -47t26 -107q-9 -50 -53.5 -87.5t-95.5 -37.5q-60 0 -95.5 46t-23.5 106z" />
<glyph unicode="&#x202f;" horiz-adv-x="364" />
<glyph unicode="&#x2039;" horiz-adv-x="632" d="M43 518l391 379h197l-389 -379l241 -379h-196z" />
<glyph unicode="&#x203a;" horiz-adv-x="632" d="M10 139l389 379l-241 379h196l244 -379l-391 -379h-197z" />
<glyph unicode="&#x205f;" horiz-adv-x="455" />
<glyph unicode="&#x20ac;" horiz-adv-x="1234" d="M-35 506l60 108h161q2 18 11 64q2 9 6 28.5t6 28.5h-197l60 109h176q95 225 299 367.5t461 142.5q203 0 399 -113l-74 -141q-130 96 -313 96q-173 0 -326.5 -93.5t-238.5 -258.5h733l-60 -109h-718q-13 -45 -21 -82l-6 -39h678l-60 -108h-624q9 -174 123.5 -272.5 t290.5 -98.5q187 0 364 105l35 -156q-222 -107 -424 -107q-264 0 -419.5 148t-164.5 381h-217z" />
<glyph unicode="&#x2122;" horiz-adv-x="1394" d="M211 1276v104h457v-104h-170v-453h-117v453h-170zM760 823v557h147l162 -401l164 401h145v-557h-114v355l-148 -355h-94l-145 351v-351h-117z" />
<glyph unicode="&#x25fc;" horiz-adv-x="993" d="M0 0v993h993v-993h-993z" />
</font>
</defs>
</svg>
