<?xml version="1.0" standalone="no"?>
<!DOCTYPE svg PUBLIC "-//W3C//DTD SVG 1.1//EN" "http://www.w3.org/Graphics/SVG/1.1/DTD/svg11.dtd" >
<svg xmlns="http://www.w3.org/2000/svg">
<metadata></metadata>
<defs>
<font id="ortodoxabold" horiz-adv-x="1228" >
<font-face units-per-em="2048" ascent="1536" descent="-512" />
<missing-glyph horiz-adv-x="610" />
<glyph unicode="&#xfb01;" horiz-adv-x="1306" d="M18 827v174h150v70q0 200 109 303t321 103q80 0 152 -13v-194q-76 12 -142 12q-115 0 -157.5 -56.5t-42.5 -185.5v-39h241v-174h-241v-827h-240v827h-150zM895 1284q0 57 39 97t96 40t97 -40t40 -97t-40 -97t-97 -40t-96 40t-39 97zM911 0v1006h238v-1006h-238z" />
<glyph unicode="&#xfb02;" horiz-adv-x="1261" d="M18 827v174h150v70q0 200 109 303t321 103q80 0 152 -13v-194q-76 12 -142 12q-115 0 -157.5 -56.5t-42.5 -185.5v-39h241v-174h-241v-827h-240v827h-150zM899 0v1454h240v-1454h-240z" />
<glyph horiz-adv-x="0" />
<glyph horiz-adv-x="682" />
<glyph unicode="&#xd;" horiz-adv-x="610" />
<glyph unicode=" "  horiz-adv-x="610" />
<glyph unicode="&#x09;" horiz-adv-x="610" />
<glyph unicode="&#xa0;" horiz-adv-x="610" />
<glyph unicode="!" horiz-adv-x="544" d="M117 135q0 63 45 109.5t108 46.5q64 0 111 -46.5t47 -109.5q0 -65 -47 -111.5t-111 -46.5q-63 0 -108 46.5t-45 111.5zM154 1380h233l-18 -958h-197z" />
<glyph unicode="&#x22;" horiz-adv-x="827" d="M123 1417h237l-38 -536h-162zM492 1417h237l-41 -536h-160z" />
<glyph unicode="#" d="M129 389v148h209l35 264h-195v147h215l51 383h158l-51 -383h209l51 383h158l-51 -383h182v-147h-203l-35 -264h189v-148h-209l-51 -389h-160l53 389h-209l-51 -389h-158l51 389h-188zM494 537h208l35 264h-209z" />
<glyph unicode="$" d="M182 158l64 168q156 -100 289 -113v387q-179 75 -257.5 157t-78.5 204q0 144 91 236.5t245 109.5v198h151v-198q158 -13 299 -93l-67 -163q-137 63 -232 77v-366q100 -43 160 -75.5t110.5 -75t71.5 -93t21 -117.5q0 -148 -95 -248t-268 -120v-209h-151v211 q-111 10 -204.5 44.5t-148.5 78.5zM416 985q0 -51 29.5 -87t89.5 -67v293q-54 -14 -86.5 -50t-32.5 -89zM686 219q70 17 106.5 59t36.5 101q0 53 -33 86.5t-110 71.5v-318z" />
<glyph unicode="%" horiz-adv-x="2048" d="M211 940q0 182 89 298t228 116q141 0 232.5 -116.5t91.5 -297.5t-91.5 -297.5t-232.5 -116.5q-139 0 -228 116t-89 298zM391 940q0 -129 37.5 -207t99.5 -78q65 0 104.5 78t39.5 207t-39.5 207t-104.5 78q-62 0 -99.5 -78t-37.5 -207zM492 -23l868 1377h180l-868 -1377 h-180zM1184 391q0 182 89 298t228 116q141 0 232.5 -116.5t91.5 -297.5t-91.5 -297.5t-232.5 -116.5q-139 0 -228 116t-89 298zM1364 391q0 -129 37.5 -207t99.5 -78q65 0 104.5 78t39.5 207t-39.5 207t-104.5 78q-62 0 -99.5 -78t-37.5 -207z" />
<glyph unicode="&#x26;" horiz-adv-x="1462" d="M78 373q0 64 17 118t43.5 92.5t68 73t80.5 57.5t92 48q-70 85 -97.5 155.5t-27.5 145.5q0 157 98 248.5t262 91.5q158 0 249 -86t91 -230q0 -70 -19.5 -127.5t-57 -101t-78 -74t-97.5 -61.5l330 -322q49 75 83 164t43 141l9 52h209q-1 -11 -4 -31t-17.5 -79t-34.5 -116 t-58 -132.5t-86 -137.5l268 -262h-291l-121 119q-188 -142 -446 -142q-146 0 -258.5 42t-181 133t-68.5 221zM307 373q0 -95 70.5 -157t204.5 -62q178 0 311 98l-383 375q-98 -51 -150.5 -108.5t-52.5 -145.5zM469 1073q0 -57 23.5 -106.5t82.5 -112.5q84 45 128.5 98 t44.5 133q0 79 -40 120.5t-100 41.5q-61 0 -100 -45.5t-39 -128.5z" />
<glyph unicode="'" horiz-adv-x="458" d="M111 1417h237l-39 -536h-162z" />
<glyph unicode="(" horiz-adv-x="692" d="M131 586q0 469 289 833l196 -57q-51 -70 -82.5 -118.5t-72.5 -127t-64.5 -150.5t-40 -171.5t-16.5 -208.5q0 -108 16.5 -207t40 -171.5t64 -150.5t73 -128t82.5 -119l-196 -58q-289 357 -289 834z" />
<glyph unicode=")" horiz-adv-x="692" d="M76 -190q49 68 82 118.5t73 128t63 150.5t39.5 172t16.5 207q0 109 -16.5 208.5t-39.5 172t-63.5 150t-72.5 127t-82 118.5l196 57q289 -364 289 -833q0 -477 -289 -834z" />
<glyph unicode="*" horiz-adv-x="849" d="M57 913l230 129l-230 132l68 120l229 -129v260h138v-264l233 133l68 -120l-230 -132l230 -129l-68 -120l-233 131v-267h-138v265l-229 -129z" />
<glyph unicode="+" d="M45 449v196h467v445h205v-445h467v-196h-467v-449h-205v449h-467z" />
<glyph unicode="," horiz-adv-x="555" d="M49 -258l162 549h266l-248 -549h-180z" />
<glyph unicode="-" horiz-adv-x="819" d="M102 467v188h615v-188h-615z" />
<glyph unicode="." horiz-adv-x="536" d="M113 135q0 63 45 109.5t108 46.5q64 0 111 -46.5t47 -109.5q0 -65 -47 -111.5t-111 -46.5q-63 0 -108 46.5t-45 111.5z" />
<glyph unicode="/" horiz-adv-x="876" d="M18 -82l627 1485h213l-631 -1485h-209z" />
<glyph unicode="0" d="M98 666q0 188 59 342.5t177.5 250t277.5 95.5t278.5 -96t179.5 -250.5t60 -341.5t-60 -342t-179.5 -251t-278.5 -96t-277.5 95.5t-177.5 250.5t-59 343zM338 666q0 -101 17 -190t49.5 -160.5t86.5 -113.5t123 -42q91 0 155.5 73.5t93 185.5t28.5 247t-28.5 246.5t-93 185 t-155.5 73.5t-155 -73t-92.5 -184.5t-28.5 -247.5z" />
<glyph unicode="1" d="M264 1153l342 176h223v-1329h-231v1120l-270 -137z" />
<glyph unicode="2" d="M123 0v168q0 66 16.5 123.5t49.5 103.5t67.5 81t87 68.5t89.5 54t92 48.5l24 12q151 77 215.5 140t64.5 155q0 94 -63 148.5t-170 54.5q-169 0 -375 -113l-65 185q235 125 467 125q221 0 334.5 -109.5t113.5 -277.5q0 -77 -22.5 -138.5t-72 -116t-114.5 -100.5t-164 -102 q-17 -9 -53.5 -29t-53.5 -29.5t-48.5 -27.5t-47.5 -30.5t-39.5 -31t-36 -35t-26.5 -37t-21 -43.5t-10 -48h744v-199h-983z" />
<glyph unicode="3" d="M117 70l63 178q171 -80 381 -80q130 0 208.5 58t78.5 153q0 122 -126.5 183.5t-352.5 64.5h-19v174h19q430 3 430 209q0 69 -62.5 111t-161.5 42q-82 0 -176.5 -21.5t-167.5 -56.5l-63 177q84 41 194.5 66.5t212.5 25.5q217 0 342 -89t125 -243q0 -102 -68 -183 t-177 -120q134 -36 216.5 -119t82.5 -223q0 -180 -149.5 -290t-377.5 -110q-261 0 -452 93z" />
<glyph unicode="4" d="M74 348v174l678 809h231v-801h199v-182h-199v-348h-227v348h-682zM317 530h439v525z" />
<glyph unicode="5" d="M131 66l66 180q65 -32 168.5 -55t187.5 -23q139 0 223 68.5t84 175.5q0 72 -36.5 126.5t-98.5 86.5t-145 48t-174 15t-187 -16l92 659h746v-201h-574l-39 -272q68 5 136 4.5t133.5 -14.5t124 -35t107.5 -57.5t85 -82t56 -108t20 -135.5q0 -208 -157 -330.5t-404 -122.5 q-105 0 -219.5 24t-194.5 65z" />
<glyph unicode="6" d="M100 559q0 184 74 336t199.5 250.5t289 152.5t345.5 54v-187q-239 0 -395 -98t-222 -268q136 88 285 88q205 0 342 -132t137 -325q0 -195 -145 -324t-373 -129q-170 0 -293.5 77.5t-183.5 207.5t-60 297zM348 553q0 -179 73.5 -287t219.5 -108q119 0 192.5 71.5 t73.5 198.5q0 128 -75 205.5t-207 77.5q-127 0 -275 -109z" />
<glyph unicode="7" d="M152 1133v198h960v-178q-9 -10 -24.5 -27.5t-62 -79t-91.5 -128.5t-105.5 -172t-112 -213.5t-102.5 -249.5t-84 -283h-225q37 176 100 351t138 321t141.5 255t136.5 206h-669z" />
<glyph unicode="8" d="M100 352q0 107 80 194t215 148q-109 49 -175 133t-66 183q0 154 128 249t332 95t331.5 -93.5t127.5 -248.5q0 -101 -68 -181t-174 -126q138 -59 217.5 -149.5t79.5 -201.5q0 -172 -140.5 -274.5t-373.5 -102.5t-373.5 101.5t-140.5 273.5zM344 367q0 -96 75 -158t195 -62 q122 0 196.5 59.5t74.5 155.5q0 40 -16 74.5t-41.5 58.5t-56.5 43.5t-62.5 31.5t-57 20.5t-41.5 13t-16 6.5q0 -2 -26 -11t-62.5 -26t-73 -42.5t-62.5 -68.5t-26 -95zM385 1012q0 -33 14 -63.5t36 -53t48.5 -41.5t53 -32.5t48.5 -23t36 -14.5t14 -6l21 10q22 10 53 28.5 t61.5 44t52 64.5t21.5 83q0 83 -64.5 131.5t-165.5 48.5t-165 -47.5t-64 -128.5z" />
<glyph unicode="9" d="M76 899q0 196 144 324.5t372 128.5q170 0 293 -77.5t183 -207.5t60 -297q0 -148 -48 -275.5t-132.5 -221.5t-198.5 -161.5t-248.5 -101t-279.5 -33.5v187q241 0 398 98.5t221 267.5q-136 -88 -285 -88q-206 0 -342.5 132t-136.5 325zM322 901q0 -128 76 -205.5t208 -77.5 q127 0 275 109l2 49q0 179 -73.5 287t-221.5 108q-119 0 -192.5 -71.5t-73.5 -198.5z" />
<glyph unicode=":" horiz-adv-x="536" d="M113 135q0 63 45 109.5t108 46.5q64 0 111 -46.5t47 -109.5q0 -65 -47 -111.5t-111 -46.5q-63 0 -108 46.5t-45 111.5zM113 850q0 63 45 109.5t108 46.5q64 0 111 -46.5t47 -109.5q0 -64 -47 -111t-111 -47q-63 0 -108 46.5t-45 111.5z" />
<glyph unicode=";" horiz-adv-x="555" d="M27 -258l161 549h267l-248 -549h-180zM152 850q0 63 45 109.5t108 46.5q64 0 111 -46.5t47 -109.5q0 -64 -46.5 -111t-111.5 -47q-63 0 -108 46.5t-45 111.5z" />
<glyph unicode="&#x3c;" d="M92 465v162l1045 465v-215l-781 -332l781 -330v-215z" />
<glyph unicode="=" d="M45 217v195h1139v-195h-1139zM45 690v195h1139v-195h-1139z" />
<glyph unicode="&#x3e;" d="M92 0v215l780 330l-780 332v215l1045 -465v-162z" />
<glyph unicode="?" horiz-adv-x="921" d="M94 1294q104 53 194.5 81t190.5 28q90 0 159.5 -28t109 -75t59.5 -102t20 -115q0 -49 -11.5 -91t-40 -86t-45 -64.5t-58.5 -69.5q-91 -103 -129.5 -180t-38.5 -170h-221q0 72 11 127.5t37.5 103.5t47.5 76.5t64 78.5q4 4 6 6.5t5.5 7t6.5 7.5q68 80 98.5 132.5 t30.5 107.5q0 67 -43 104t-121 37q-58 0 -119.5 -20.5t-152.5 -63.5zM240 135q0 63 44 109.5t107 46.5q64 0 111 -46.5t47 -109.5q0 -65 -46.5 -111.5t-111.5 -46.5q-63 0 -107 46.5t-44 111.5z" />
<glyph unicode="@" horiz-adv-x="1603" d="M94 500q0 202 94.5 368.5t257.5 261.5t359 95q150 0 281.5 -51.5t224 -140.5t145.5 -211.5t53 -260.5q0 -188 -79.5 -305t-225.5 -117q-127 0 -186 115q-95 -123 -242 -123q-141 0 -240.5 103.5t-99.5 248.5q0 146 99.5 250.5t238.5 104.5q116 0 207 -84v69h141v-348 q0 -103 28 -154t75 -51q59 0 93 73.5t34 217.5q0 102 -42.5 197.5t-114.5 167.5t-175 115.5t-217 43.5q-153 0 -280 -80.5t-198 -214.5t-71 -290q0 -109 38 -213t106 -187t173 -133.5t230 -50.5q39 0 77 5t65.5 12t55 16.5t42.5 16t30 14.5t16 8l87 -101q-15 -12 -38 -25.5 t-71 -36.5t-118.5 -37.5t-149.5 -14.5q-159 0 -293 60t-222.5 160.5t-138 232t-49.5 274.5zM608 483q0 -83 55 -143.5t136 -60.5q74 0 127 58.5t53 143.5q0 89 -53.5 149t-126.5 60q-81 0 -136 -61.5t-55 -145.5z" />
<glyph unicode="A" horiz-adv-x="1359" d="M18 0l521 1380h282l520 -1380h-254l-145 410h-524l-146 -410h-254zM483 590h394l-197 555z" />
<glyph unicode="B" horiz-adv-x="1232" d="M156 0v1380h460q230 0 355 -95t125 -255q0 -117 -68.5 -198.5t-169.5 -104.5q54 -10 102.5 -33t94 -61.5t73 -100.5t27.5 -139q0 -182 -141.5 -287.5t-397.5 -105.5h-460zM393 174h185q164 0 244.5 53t80.5 172q0 118 -81 172t-244 54h-185v-451zM393 799h185 q125 0 201.5 50t76.5 152t-76.5 151.5t-201.5 49.5h-185v-403z" />
<glyph unicode="C" horiz-adv-x="1298" d="M72 690q0 198 90 360t255.5 257.5t373.5 95.5q212 0 430 -115l-68 -184q-64 43 -154.5 70.5t-183.5 27.5q-211 0 -351 -141t-140 -371q0 -231 141 -372.5t354 -141.5q91 0 182.5 28t153.5 68l64 -180q-218 -115 -428 -115q-208 0 -373.5 95.5t-255.5 257.5t-90 360z" />
<glyph unicode="D" horiz-adv-x="1517" d="M156 0v1380h520q220 0 395.5 -85t276 -243t100.5 -362q0 -203 -100.5 -361t-276 -243.5t-395.5 -85.5h-520zM395 188h248q117 0 212 30t157 79.5t104 115.5t60 135t18 142q0 72 -18 141t-60.5 136t-104 116.5t-157 80t-211.5 30.5h-248v-1006z" />
<glyph unicode="E" horiz-adv-x="1120" d="M156 0v1380h870v-198h-631v-375h590v-197h-590v-411h647v-199h-886z" />
<glyph unicode="F" horiz-adv-x="1107" d="M156 0v1380h872v-198h-633v-404h590v-196h-590v-582h-239z" />
<glyph unicode="G" horiz-adv-x="1466" d="M72 686q0 150 52.5 282t146.5 228t231 151.5t299 55.5q219 0 424 -111l-66 -188q-68 45 -164 72.5t-186 27.5q-216 0 -350.5 -146t-134.5 -372q0 -144 52.5 -261t151.5 -185t226 -68q161 0 260 104q96 99 96 254v13h-412v188h674q2 -32 2 -63q0 -181 -60 -326 q-69 -170 -215 -267.5t-349 -97.5q-201 0 -357 95t-238.5 255.5t-82.5 358.5z" />
<glyph unicode="H" horiz-adv-x="1480" d="M156 0v1380h239v-577h690v577h240v-1380h-240v592h-690v-592h-239z" />
<glyph unicode="I" horiz-adv-x="550" d="M156 0v1380h239v-1380h-239z" />
<glyph unicode="J" horiz-adv-x="839" d="M8 2v203q120 -27 193 -27t122.5 22.5t75 65t35.5 91.5t10 114v909h240v-950q0 -225 -119.5 -339t-335.5 -114q-102 0 -221 25z" />
<glyph unicode="K" horiz-adv-x="1312" d="M156 0v1380h237v-585l584 585h287l-566 -577l596 -803h-276l-479 641l-146 -149v-492h-237z" />
<glyph unicode="L" horiz-adv-x="1067" d="M156 0v1380h239v-1179h654v-201h-893z" />
<glyph unicode="M" horiz-adv-x="1751" d="M127 0v1380h324l405 -1061l418 1061h321v-1380h-229v1069l-408 -1069h-198l-412 1069v-1069h-221z" />
<glyph unicode="N" horiz-adv-x="1433" d="M135 0v1380h277l665 -1034v1034h219v-1380h-268l-672 1055v-1055h-221z" />
<glyph unicode="O" horiz-adv-x="1552" d="M72 690q0 197 92 360.5t253.5 258t356.5 94.5t358 -94.5t257 -258.5t94 -360q0 -197 -94 -361t-256.5 -258t-358.5 -94q-195 0 -356.5 94t-253.5 257.5t-92 361.5zM324 690q0 -219 130.5 -369.5t321.5 -150.5q126 0 230.5 69t164.5 188.5t60 262.5t-60 262.5 t-164.5 188.5t-230.5 69q-191 0 -321.5 -150.5t-130.5 -369.5z" />
<glyph unicode="P" horiz-adv-x="1212" d="M156 0v1380h442q265 0 404 -105t139 -300q0 -198 -141.5 -315t-401.5 -117h-205v-543h-237zM393 731h185q162 0 242.5 60.5t80.5 173.5q0 231 -323 231h-185v-465z" />
<glyph unicode="Q" horiz-adv-x="1552" d="M72 690q0 197 92 360.5t253.5 258t356.5 94.5t358 -94.5t257 -258.5t94 -360q0 -252 -149 -442t-382 -248q22 -238 271 -238h10v-188q-31 -3 -61 -3q-40 0 -78 5q-67 8 -133 35t-115.5 72.5t-81 121.5t-33.5 175q-186 10 -337 105.5t-236.5 254.5t-85.5 350zM324 690 q0 -219 130.5 -369.5t321.5 -150.5q126 0 230.5 69t164.5 188.5t60 262.5t-60 262.5t-164.5 188.5t-230.5 69q-191 0 -321.5 -150.5t-130.5 -369.5z" />
<glyph unicode="R" horiz-adv-x="1271" d="M156 0v1380h442q543 0 543 -387q0 -130 -66 -222t-190 -140l315 -631h-248l-280 582h-279v-582h-237zM393 762h185q323 0 323 221q0 110 -80 162.5t-243 52.5h-185v-436z" />
<glyph unicode="S" horiz-adv-x="1120" d="M78 117l69 188q198 -127 388 -127q127 0 196.5 49.5t69.5 134.5q0 33 -14 60.5t-35.5 48t-61.5 43t-78.5 39.5t-101.5 43q-11 4 -17.5 7t-16.5 7t-19 8q-192 79 -276.5 170t-84.5 226q0 172 121.5 280.5t335.5 108.5q113 0 223.5 -30t198.5 -77l-76 -184q-213 94 -334 94 q-93 0 -159 -41.5t-66 -126.5q0 -30 8.5 -54.5t30.5 -47t44.5 -39.5t66 -38.5t79 -37.5t97.5 -42q8 -3 12 -5q75 -32 125.5 -58t99 -60.5t77 -72t45.5 -87.5t17 -111q0 -178 -126.5 -293t-354.5 -115q-140 0 -276 41.5t-207 98.5z" />
<glyph unicode="T" horiz-adv-x="1179" d="M18 1178v202h1143v-202h-452v-1178h-238v1178h-453z" />
<glyph unicode="U" horiz-adv-x="1464" d="M156 604v776h239v-731q0 -479 346 -479q349 0 349 479v731h239v-776q0 -293 -147.5 -460t-440.5 -167q-196 0 -329 79t-194.5 217.5t-61.5 330.5z" />
<glyph unicode="V" horiz-adv-x="1355" d="M18 1380h256l404 -1120l403 1120h256l-520 -1380h-278z" />
<glyph unicode="W" horiz-adv-x="2011" d="M59 1380h256l256 -1067l308 1067h254l307 -1077l256 1077h256l-379 -1380h-250l-317 1047l-314 -1047h-256z" />
<glyph unicode="X" horiz-adv-x="1271" d="M18 0l465 702l-448 678h262l338 -536l340 536h264l-448 -680l462 -700h-264l-356 559l-352 -559h-263z" />
<glyph unicode="Y" horiz-adv-x="1261" d="M18 1380h275l348 -600l332 600h270l-489 -774v-606h-240v600z" />
<glyph unicode="Z" horiz-adv-x="1282" d="M78 0v178l819 1004h-764v198h1053v-178l-813 -1003h831v-199h-1126z" />
<glyph unicode="[" horiz-adv-x="663" d="M131 -229v1634h457v-162h-266v-1311h266v-161h-457z" />
<glyph unicode="\" horiz-adv-x="839" d="M0 1403h213l627 -1485h-209z" />
<glyph unicode="]" horiz-adv-x="663" d="M76 -68h266v1311h-266v162h456v-1634h-456v161z" />
<glyph unicode="^" d="M51 385l473 944h178l478 -942h-205l-361 756l-358 -758h-205z" />
<glyph unicode="_" horiz-adv-x="1249" d="M57 -104h1137v-172h-1137v172z" />
<glyph unicode="`" horiz-adv-x="1024" d="M143 1423h250l209 -297h-180z" />
<glyph unicode="a" horiz-adv-x="1089" d="M55 274q0 148 119 243t338 95q57 0 113 -6t83 -12l27 -6q0 130 -54.5 200t-184.5 70q-155 0 -301 -76l-60 156q82 42 187.5 66t207.5 24q212 0 324.5 -111t112.5 -309v-608h-232v141q-5 -7 -14 -18t-41 -39t-68 -50t-94.5 -39.5t-120.5 -17.5q-154 0 -248 85.5t-94 211.5 zM293 297q0 -66 44.5 -106.5t115.5 -40.5q54 0 108 21.5t91 51.5t60 62t23 55v90q-67 33 -186 33q-123 0 -189.5 -44t-66.5 -122z" />
<glyph unicode="b" horiz-adv-x="1296" d="M141 0v1454h238v-602q60 80 147.5 128t192.5 48q215 0 358.5 -152t143.5 -378q0 -221 -143.5 -369.5t-358.5 -148.5q-108 0 -195.5 47.5t-144.5 126.5v-154h-238zM373 500q0 -139 86.5 -235.5t214.5 -96.5q129 0 216 96t87 236q0 143 -87.5 242.5t-215.5 99.5 t-214.5 -99.5t-86.5 -242.5z" />
<glyph unicode="c" horiz-adv-x="1005" d="M76 502q0 226 156 376t393 150q182 0 325 -88l-59 -166q-50 29 -116.5 48.5t-125.5 19.5q-152 0 -241 -98.5t-89 -239.5q0 -143 90.5 -239.5t243.5 -96.5q125 0 236 59l59 -159q-152 -91 -330 -91q-116 0 -217 40.5t-172.5 110.5t-112 167t-40.5 207z" />
<glyph unicode="d" horiz-adv-x="1296" d="M76 498q0 226 143.5 378t358.5 152q105 0 192.5 -48t147.5 -128v602h237v-1454h-237v154q-57 -79 -144.5 -126.5t-195.5 -47.5q-216 0 -359 148t-143 370zM319 500q0 -140 87.5 -236t216.5 -96q128 0 214.5 96.5t86.5 235.5q0 143 -86.5 242.5t-214.5 99.5t-216 -99.5 t-88 -242.5z" />
<glyph unicode="e" horiz-adv-x="1134" d="M76 502q0 104 34 198.5t96.5 168t159.5 116.5t216 43q235 0 369 -159q117 -138 117 -362q0 -33 -3 -69h-758q17 -136 107.5 -206t247.5 -70q80 0 157 18t115 36l37 17l59 -161q-6 -4 -17.5 -10.5t-50 -22.5t-80.5 -28.5t-107 -23t-132 -10.5q-111 0 -204 27t-159.5 75.5 t-113 114.5t-68.5 144t-22 164zM311 604h529q-9 113 -77 186.5t-183 73.5q-111 0 -179 -69t-90 -191z" />
<glyph unicode="f" horiz-adv-x="749" d="M18 827v174h150v70q0 200 109 303t321 103q80 0 152 -13v-194q-76 12 -142 12q-115 0 -157.5 -56.5t-42.5 -185.5v-39h241v-174h-241v-827h-240v827h-150z" />
<glyph unicode="g" horiz-adv-x="1275" d="M76 498q0 226 143 378t359 152q104 0 191 -47.5t149 -128.5v154h237v-920q0 -252 -127 -383t-379 -131q-90 0 -177 19t-138 39t-119 53l74 176q1 -1 23.5 -13t28.5 -15t28.5 -14.5t34.5 -16t35 -13.5t40.5 -13t41 -9t47 -7t48.5 -2q162 0 232 89.5t70 260.5v48 q-57 -79 -146 -128t-197 -49q-214 0 -356.5 149.5t-142.5 371.5zM317 500q0 -140 87.5 -236t216.5 -96q128 0 214.5 96.5t86.5 235.5q0 143 -86.5 242.5t-214.5 99.5t-216 -99.5t-88 -242.5z" />
<glyph unicode="h" horiz-adv-x="1249" d="M145 0v1454h240v-602q142 176 344 176q86 0 155.5 -24t113.5 -63.5t74 -92.5t42 -107.5t12 -111.5v-629h-239v567q0 56 -10 102t-32 85.5t-63.5 61.5t-99.5 22q-117 0 -199.5 -81.5t-97.5 -207.5v-549h-240z" />
<glyph unicode="i" horiz-adv-x="559" d="M145 1284q0 57 39.5 97t96.5 40t97 -40t40 -97t-40 -97t-97 -40t-96.5 40t-39.5 97zM162 0v1006h237v-1006h-237z" />
<glyph unicode="j" horiz-adv-x="550" d="M-115 -244q78 0 132.5 21.5t84 61t42 87t12.5 109.5v973h239v-1004q-1 -105 -32.5 -186.5t-81.5 -130t-118 -78t-137 -38.5q-41 -5 -83 -5q-29 0 -58 2v188zM139 1284q0 57 39 97t96 40t97.5 -40t40.5 -97t-40.5 -97t-97.5 -40t-96 40t-39 97z" />
<glyph unicode="k" horiz-adv-x="1140" d="M145 0v1454h240v-868l418 420h301l-434 -414l452 -592h-291l-321 438l-125 -119v-319h-240z" />
<glyph unicode="l" horiz-adv-x="512" d="M152 0v1454h239v-1454h-239z" />
<glyph unicode="m" horiz-adv-x="1871" d="M141 0v1006h238v-152q114 174 323 174q128 0 212 -60t120 -159q116 219 355 219q75 0 135.5 -21.5t102 -58t69.5 -88t40.5 -109t12.5 -122.5v-629h-238v567q0 61 -8.5 107t-28.5 85t-58.5 60t-94.5 21q-104 0 -171 -78t-87 -203v-559h-238v567q0 61 -8.5 107t-28.5 85 t-58.5 60t-94.5 21q-103 0 -169.5 -77.5t-86.5 -203.5v-559h-238z" />
<glyph unicode="n" horiz-adv-x="1243" d="M141 0v1006h240v-152q141 174 344 174q86 0 155 -24t113.5 -63.5t74 -92.5t42 -107.5t12.5 -111.5v-629h-241v567q0 56 -10 102.5t-32 86.5t-63 62t-98 22q-115 0 -195.5 -78t-101.5 -201v-561h-240z" />
<glyph unicode="o" horiz-adv-x="1239" d="M72 502q0 148 71.5 269t197.5 189t280 68q115 0 216.5 -40t173.5 -109.5t114 -167.5t42 -209q0 -224 -157 -374.5t-392 -150.5q-233 0 -389.5 150.5t-156.5 374.5zM315 504q0 -150 88 -250t218 -100q129 0 217 100.5t88 249.5t-88 249.5t-217 100.5t-217.5 -100.5 t-88.5 -249.5z" />
<glyph unicode="p" horiz-adv-x="1306" d="M152 -406v1412h237v-154q60 80 147.5 128t192.5 48q215 0 358.5 -152t143.5 -378q0 -221 -143.5 -369.5t-358.5 -148.5q-108 0 -195.5 47.5t-144.5 126.5v-560h-237zM383 500q0 -139 86.5 -235.5t214.5 -96.5q129 0 216 96t87 236q0 143 -87.5 242.5t-215.5 99.5 t-214.5 -99.5t-86.5 -242.5z" />
<glyph unicode="q" horiz-adv-x="1296" d="M76 498q0 226 143.5 378t358.5 152q105 0 192.5 -48t147.5 -128v154h237v-1412h-237v560q-57 -79 -144.5 -126.5t-195.5 -47.5q-216 0 -359 148t-143 370zM319 500q0 -140 87.5 -236t216.5 -96q128 0 214.5 96.5t86.5 235.5q0 143 -86.5 242.5t-214.5 99.5t-216 -99.5 t-88 -242.5z" />
<glyph unicode="r" horiz-adv-x="737" d="M141 0v1006h238v-175q49 85 134 141t206 56v-219q-138 0 -239 -87t-101 -220v-502h-238z" />
<glyph unicode="s" horiz-adv-x="917" d="M78 82l65 164q174 -94 303 -94q78 0 120 31t42 79q0 46 -41 74t-168 80q-57 24 -92.5 41t-79 46t-68 58.5t-42 73.5t-17.5 96q0 133 98.5 215t264.5 82q170 0 330 -82l-62 -160q-155 72 -256 72q-64 0 -103.5 -27t-39.5 -81q0 -52 43.5 -83t156.5 -77q59 -24 97 -42 t82 -46.5t69.5 -58t42.5 -71.5t17 -93q0 -130 -98.5 -216t-280.5 -86q-116 0 -218.5 32.5t-164.5 72.5z" />
<glyph unicode="t" horiz-adv-x="765" d="M18 827v179h158v190h234v-190h270v-179h-270v-442q0 -49 1.5 -74.5t9 -55.5t22.5 -44t42 -23.5t68 -9.5q24 0 56.5 2.5t52.5 5.5l20 2v-196q-58 -12 -174 -12q-179 0 -255.5 80.5t-76.5 279.5v487h-158z" />
<glyph unicode="u" horiz-adv-x="1224" d="M123 377v629h239v-568q0 -44 6 -82.5t21 -74t37.5 -60.5t58.5 -40t82 -15q116 0 197 79.5t100 203.5v557h238v-1006h-240v150q-139 -173 -342 -173q-86 0 -155.5 24.5t-113.5 64t-74 92.5t-42 107.5t-12 111.5z" />
<glyph unicode="v" horiz-adv-x="1110" d="M18 1006h261l278 -752l281 752h254l-410 -1006h-254z" />
<glyph unicode="w" horiz-adv-x="1660" d="M18 1006h240l221 -727l256 727h191l254 -727l223 727h239l-352 -1006h-203l-256 735l-258 -735h-202z" />
<glyph unicode="x" horiz-adv-x="1093" d="M25 0l378 512l-378 494h270l256 -367l256 367h268l-387 -504l373 -502h-260l-258 367l-260 -367h-258z" />
<glyph unicode="y" horiz-adv-x="1107" d="M18 1006h258l279 -762l279 762h256l-502 -1203q-105 -252 -387 -262l-54 219q78 0 143 55t91 132l27 76z" />
<glyph unicode="z" horiz-adv-x="1054" d="M78 0v162l586 653h-562v191h863v-158l-580 -658h592v-190h-899z" />
<glyph unicode="{" horiz-adv-x="739" d="M131 510v147q86 0 119 50t33 165v197q0 97 32.5 166.5t87.5 106t121 50t140 5.5v-158q-53 0 -90 -12t-56 -28t-29 -46.5t-12 -53t-2 -61.5v-202q0 -158 -113 -252q113 -94 113 -252v-203q0 -39 2 -61.5t12 -53t29 -46.5t56 -28t90 -12v-157q-75 -8 -140.5 5.5 t-120.5 49.5t-87.5 105.5t-32.5 166.5v197q0 115 -33 165t-119 50z" />
<glyph unicode="|" horiz-adv-x="497" d="M154 -512v2048h190v-2048h-190z" />
<glyph unicode="}" horiz-adv-x="739" d="M76 -72q38 0 68 6t49.5 15t33 26t20.5 31t10.5 38.5t4 40t0.5 44.5v203q0 156 115 252q-115 96 -115 252v202q0 29 -0.5 44.5t-4 40t-10.5 38.5t-20.5 31t-33 26t-49.5 15t-68 6v158q58 6 112 -0.5t103.5 -29.5t86 -61t58 -98.5t21.5 -138.5v-197q0 -115 32.5 -165 t118.5 -50v-147q-86 0 -118.5 -50t-32.5 -165v-197q0 -97 -32.5 -166.5t-88 -105.5t-121 -49.5t-139.5 -5.5v157z" />
<glyph unicode="~" d="M74 403q0 361 291 361q61 0 119 -18.5t102 -45t83.5 -53t79.5 -45t74 -18.5q79 0 109.5 40.5t28.5 143.5h198q1 -52 -7 -102.5t-30.5 -101.5t-57 -89.5t-90.5 -63t-126 -24.5q-61 0 -119.5 18.5t-102 45t-83.5 53t-80 45t-74 18.5q-66 0 -93.5 -38.5t-23.5 -125.5h-198z " />
<glyph unicode="&#xa1;" horiz-adv-x="544" d="M117 848q0 63 45 109.5t108 46.5q64 0 111 -46.5t47 -109.5q0 -64 -47 -111t-111 -47q-63 0 -108 46.5t-45 111.5zM154 -399l18 958h197l18 -958h-233z" />
<glyph unicode="&#xa2;" d="M201 676q0 184 119 321.5t305 171.5v211h161v-204q121 -13 244 -82l-53 -146q-92 48 -191 56v-656q103 11 193 55l51 -145q-65 -34 -118.5 -53.5t-125.5 -26.5v-201h-161v207q-186 32 -305 170t-119 322zM403 676q0 -101 59 -190t163 -121v624q-104 -34 -163 -123 t-59 -190z" />
<glyph unicode="&#xa3;" d="M145 0v199q63 0 106.5 16t62 42.5t29 59.5t8 67t-3.5 66q-1 14 -1 21l-8 117h-193v172h187l-10 194q-1 200 117 308t317 108q86 0 168.5 -20.5t140.5 -51.5l-55 -174q-118 52 -228 52q-116 0 -174.5 -66.5t-58.5 -212.5l6 -137h326v-172h-318l6 -156q6 -126 -63 -235h573 v-197h-934z" />
<glyph unicode="&#xa4;" horiz-adv-x="1230" d="M100 289l140 139q-72 109 -72 240q0 137 78 245l-146 146l129 131l154 -156q108 62 231 62q125 0 232 -60l155 154l127 -131l-145 -146q78 -108 78 -245q0 -131 -72 -240l139 -139l-129 -129l-145 145q-104 -63 -240 -63q-135 0 -239 63l-146 -145zM369 670 q0 -123 70.5 -204t176.5 -81q103 0 174.5 82t71.5 203q0 120 -71.5 202t-174.5 82q-105 0 -176 -82t-71 -202z" />
<glyph unicode="&#xa5;" d="M33 1331h241l340 -559l338 559h242l-416 -643h312v-119h-375v-129h375v-118h-375v-322h-217v322h-375v118h375v129h-375v119h326z" />
<glyph unicode="&#xa6;" horiz-adv-x="497" d="M154 356h190v-716h-190v716zM154 664v716h190v-716h-190z" />
<glyph unicode="&#xa7;" horiz-adv-x="964" d="M94 -18l60 151q169 -100 311 -100q104 0 161.5 40t57.5 97q0 35 -26 61.5t-56 41t-120 52.5q-11 5 -17.5 7.5t-17 7t-19.5 8.5q-175 69 -244 139t-69 172q0 155 123 250q-121 86 -121 211q0 121 99 202t257 81q185 0 334 -84l-59 -145q-147 75 -271 75q-70 0 -120 -30 t-50 -86t57.5 -93.5t180.5 -85.5q153 -63 203 -95q91 -60 109 -155q5 -29 5 -63q0 -68 -32 -133t-93 -113q133 -84 133 -217q0 -57 -22.5 -109t-67.5 -95.5t-122.5 -70t-176.5 -26.5q-73 0 -143 13t-120 32.5t-79 34t-45 25.5zM299 672q0 -27 10.5 -49t24.5 -36.5t43.5 -30 t51 -24t64.5 -25t68 -26.5q117 37 117 148q0 63 -39.5 90.5t-197.5 88.5q-18 7 -27 11q-115 -31 -115 -147z" />
<glyph unicode="&#xa8;" horiz-adv-x="1024" d="M178 1292q0 48 36 85.5t85 37.5t86 -36.5t37 -86.5t-37 -86.5t-86 -36.5t-85 37.5t-36 85.5zM602 1292q0 48 36.5 85.5t86.5 37.5q48 0 84.5 -37t36.5 -86t-36.5 -86t-84.5 -37q-50 0 -86.5 37.5t-36.5 85.5z" />
<glyph unicode="&#xa9;" horiz-adv-x="1538" d="M57 688q0 198 92.5 362t257 258.5t365.5 94.5q200 0 363.5 -94.5t255.5 -258.5t92 -362q0 -147 -53.5 -278t-147 -226.5t-226 -151t-284.5 -55.5t-285.5 55.5t-227.5 151t-148 226.5t-54 278zM221 688q0 -152 70.5 -277t196.5 -197.5t282 -72.5q155 0 280 72.5t195 197.5 t70 277t-70.5 277t-195.5 197.5t-279 72.5q-155 0 -281 -72.5t-197 -197.5t-71 -277zM410 690q0 157 112 266t281 109q112 0 227 -61l-51 -140q-70 39 -154 39q-59 0 -105 -22t-70 -56t-36 -68.5t-12 -66.5q0 -23 5.5 -49t21.5 -55.5t39.5 -52.5t64.5 -38.5t92 -15.5 q81 0 154 39l51 -143q-117 -62 -225 -62q-169 0 -282 109.5t-113 267.5z" />
<glyph unicode="&#xaa;" horiz-adv-x="763" d="M37 739q0 103 86 173.5t229 70.5q99 0 162 -18q-4 190 -160 190q-117 0 -209 -51l-49 125q118 59 287 59q151 0 228 -81.5t77 -229.5v-442h-174v90q-93 -107 -235 -107q-107 0 -174.5 63.5t-67.5 157.5zM205 748q0 -49 30.5 -76t86.5 -27q69 0 130.5 51t61.5 90v56 q-40 20 -133 20q-176 0 -176 -114z" />
<glyph unicode="&#xab;" horiz-adv-x="1058" d="M37 518l317 379h224l-316 -379l316 -379h-224zM442 518l318 379h225l-315 -379l315 -379h-225z" />
<glyph unicode="&#xac;" d="M41 647v174h1147v-573h-174v399h-973z" />
<glyph unicode="&#xad;" horiz-adv-x="819" d="M102 467v188h615v-188h-615z" />
<glyph unicode="&#xae;" horiz-adv-x="1538" d="M57 688q0 198 92.5 362t257 258.5t365.5 94.5q200 0 363.5 -94.5t255.5 -258.5t92 -362q0 -147 -53.5 -278t-147 -226.5t-226 -151t-284.5 -55.5t-285.5 55.5t-227.5 151t-148 226.5t-54 278zM221 688q0 -152 70.5 -277t196.5 -197.5t282 -72.5q155 0 280 72.5t195 197.5 t70 277t-70.5 277t-195.5 197.5t-279 72.5q-155 0 -281 -72.5t-197 -197.5t-71 -277zM500 342v709h313q130 0 198 -54.5t68 -148.5q0 -69 -36.5 -123.5t-102.5 -85.5l168 -295h-186l-134 268h-106v-270h-182zM682 750h76q82 0 114.5 21t32.5 73q0 48 -31.5 67t-115.5 19h-76 v-180z" />
<glyph unicode="&#xaf;" horiz-adv-x="1024" d="M260 1200v152h500v-152h-500z" />
<glyph unicode="&#xb0;" horiz-adv-x="667" d="M57 1126q0 117 80.5 197t196.5 80t196 -80t80 -197q0 -115 -80 -194.5t-196 -79.5t-196.5 79.5t-80.5 194.5zM213 1126q0 -53 35 -89t86 -36t86 36t35 89t-35 89t-86 36t-86 -36t-35 -89z" />
<glyph unicode="&#xb1;" d="M45 0v195h1139v-195h-1139zM45 637v194h467v324h205v-324h467v-194h-467v-326h-205v326h-467z" />
<glyph unicode="&#xb2;" horiz-adv-x="743" d="M72 901v113q0 37 8.5 70.5t19 57.5t32 47.5t36.5 37.5t43.5 31.5t41.5 24.5t42 22q90 48 127 84t37 84q0 47 -32.5 74.5t-88.5 27.5q-92 0 -205 -66l-51 133q143 76 291 76q127 0 202.5 -60.5t75.5 -172.5q0 -90 -54 -152t-175 -127q-92 -51 -128 -82.5t-42 -79.5h418 v-143h-598z" />
<glyph unicode="&#xb3;" horiz-adv-x="743" d="M72 946l45 127q43 -21 104.5 -35t108.5 -14q63 0 102 30t39 81q0 65 -65.5 102t-174.5 37h-26v119h26q94 0 154.5 30t60.5 82q0 37 -29 59.5t-81 22.5q-99 0 -191 -45l-41 121q32 18 108 36.5t153 18.5q128 0 200 -53.5t72 -140.5q0 -67 -44.5 -113.5t-117.5 -71.5 q83 -25 138 -79t55 -138q0 -104 -89.5 -167.5t-238.5 -63.5q-74 0 -147.5 15.5t-120.5 39.5z" />
<glyph unicode="&#xb4;" horiz-adv-x="1024" d="M424 1126l209 297h250l-279 -297h-180z" />
<glyph unicode="&#xb6;" horiz-adv-x="1341" d="M113 975q0 196 132.5 300.5t395.5 104.5h625v-155h-138v-1362h-163v1362h-138v-1362h-165v694h-21q-260 0 -394 110t-134 308z" />
<glyph unicode="&#xb7;" horiz-adv-x="452" d="M72 539q0 63 44 109t107 46q64 0 111 -46t47 -109t-47 -110.5t-111 -47.5q-62 0 -106.5 47t-44.5 111z" />
<glyph unicode="&#xb8;" horiz-adv-x="1024" d="M301 -367l41 107q56 -31 109 -31q81 0 81 53q0 24 -21.5 38t-54 18t-85.5 4l65 178h152l-56 -106q65 -14 108.5 -52.5t43.5 -105.5q0 -72 -55.5 -117t-145.5 -45q-106 0 -182 59z" />
<glyph unicode="&#xb9;" horiz-adv-x="743" d="M115 1597l215 111h172v-807h-189v655l-153 -77z" />
<glyph unicode="&#xba;" horiz-adv-x="847" d="M37 901q0 159 112.5 270t274.5 111t274.5 -111t112.5 -270t-112.5 -270t-274.5 -111t-274.5 111t-112.5 270zM209 901q0 -106 61.5 -178t153.5 -72t153.5 72t61.5 178t-61.5 178t-153.5 72t-153.5 -72t-61.5 -178z" />
<glyph unicode="&#xbb;" horiz-adv-x="1058" d="M76 139l315 379l-315 379h223l317 -379l-317 -379h-223zM481 139l316 379l-316 379h224l317 -379l-317 -379h-224z" />
<glyph unicode="&#xbc;" horiz-adv-x="1689" d="M82 1231l215 110h172v-806h-188v655l-154 -78zM281 -23l868 1377h182l-868 -1377h-182zM918 207v117l399 479h166v-471h100v-125h-100v-211h-174v211h-391zM1092 332h217v256z" />
<glyph unicode="&#xbd;" horiz-adv-x="1755" d="M80 1231l215 110h172v-806h-188v655l-154 -78zM260 -23l868 1377h183l-869 -1377h-182zM1042 0v113q0 37 8.5 70.5t19 57t32.5 47.5t36 37.5t44 31.5t41.5 24t42.5 22q90 48 127 84t37 84q0 47 -32.5 75t-88.5 28q-92 0 -205 -66l-51 133q143 76 290 76q127 0 203 -60.5 t76 -172.5q0 -90 -54 -152t-175 -127q-92 -51 -128 -82.5t-42 -79.5h417v-143h-598z" />
<glyph unicode="&#xbe;" horiz-adv-x="1804" d="M92 569l45 127q43 -21 104.5 -35t108.5 -14q64 0 103 30t39 81q0 65 -65.5 102t-174.5 37h-27v119h27q94 0 154.5 30t60.5 82q0 37 -29.5 59.5t-81.5 22.5q-98 0 -190 -45l-41 121q33 18 108 36.5t152 18.5q128 0 200 -53.5t72 -140.5q0 -67 -44 -113t-117 -71 q83 -24 137.5 -79t54.5 -139q0 -104 -89.5 -167.5t-238.5 -63.5q-74 0 -147.5 15.5t-120.5 39.5zM397 -23l869 1377h184l-868 -1377h-185zM1032 207v117l400 479h165v-471h101v-125h-101v-211h-174v211h-391zM1206 332h217v256z" />
<glyph unicode="&#xbf;" horiz-adv-x="921" d="M94 -80q0 50 11.5 93t39 85t46.5 66t59 69q91 104 129.5 180.5t38.5 170.5h221q0 -73 -11.5 -130t-39 -106t-49 -77.5t-65.5 -79.5q-9 -10 -13 -15q-69 -80 -99 -133t-30 -109q0 -66 43 -103.5t119 -37.5q60 0 122.5 21t151.5 65l59 -168q-201 -108 -385 -108 q-72 0 -131.5 18.5t-99 49t-66.5 72t-39 86t-12 91.5zM375 872q0 64 45 110t108 46q64 0 109 -45.5t45 -110.5q0 -63 -45 -108t-109 -45q-63 0 -108 45t-45 108z" />
<glyph unicode="&#xc0;" horiz-adv-x="1359" d="M18 0l521 1380h282l520 -1380h-254l-145 410h-524l-146 -410h-254zM309 1753h250l209 -297h-180zM483 590h394l-197 555z" />
<glyph unicode="&#xc1;" horiz-adv-x="1359" d="M18 0l521 1380h282l520 -1380h-254l-145 410h-524l-146 -410h-254zM483 590h394l-197 555zM592 1458l209 297h250l-279 -297h-180z" />
<glyph unicode="&#xc2;" horiz-adv-x="1359" d="M18 0l521 1380h282l520 -1380h-254l-145 410h-524l-146 -410h-254zM375 1458l207 303h194l207 -303h-192l-113 176l-111 -176h-192zM483 590h394l-197 555z" />
<glyph unicode="&#xc3;" horiz-adv-x="1359" d="M18 0l521 1380h282l520 -1380h-254l-145 410h-524l-146 -410h-254zM340 1483q0 68 18.5 117.5t49.5 75t64 37t69 11.5q58 0 133 -34.5t117 -34.5q30 0 47 23.5t16 62.5h168q0 -68 -18.5 -117.5t-49.5 -75.5t-64 -37.5t-69 -11.5q-58 0 -133 35t-117 35q-30 0 -47 -23 t-16 -63h-168zM483 590h394l-197 555z" />
<glyph unicode="&#xc4;" horiz-adv-x="1359" d="M18 0l521 1380h282l520 -1380h-254l-145 410h-524l-146 -410h-254zM346 1624q0 48 36 85.5t85 37.5t86 -36.5t37 -86.5t-37 -86.5t-86 -36.5t-85 37.5t-36 85.5zM483 590h394l-197 555zM770 1624q0 48 36.5 85.5t86.5 37.5q48 0 84.5 -37t36.5 -86t-36.5 -86t-84.5 -37 q-50 0 -86.5 37.5t-36.5 85.5z" />
<glyph unicode="&#xc5;" horiz-adv-x="1359" d="M18 0l521 1380h282l520 -1380h-254l-145 410h-524l-146 -410h-254zM475 1636q0 86 59.5 146.5t145.5 60.5q87 0 146 -60t59 -147q0 -85 -59 -143.5t-146 -58.5t-146 58.5t-59 143.5zM483 590h394l-197 555zM580 1636q0 -41 28.5 -69.5t71.5 -28.5t71.5 28.5t28.5 69.5 q0 43 -29 73t-71 30t-71 -30t-29 -73z" />
<glyph unicode="&#xc6;" horiz-adv-x="1875" d="M18 0l840 1380h924v-198h-631v-375h590v-197h-590v-411h647v-199h-887v410h-387l-241 -410h-265zM629 590h282v477z" />
<glyph unicode="&#xc7;" horiz-adv-x="1298" d="M72 690q0 198 90 360t255.5 257.5t373.5 95.5q212 0 430 -115l-68 -184q-64 43 -154.5 70.5t-183.5 27.5q-211 0 -351 -141t-140 -371q0 -231 141 -372.5t354 -141.5q91 0 182.5 28t153.5 68l64 -180q-214 -115 -424 -115l-43 -83q65 -14 108 -52.5t43 -105.5 q0 -72 -55.5 -117t-145.5 -45q-106 0 -182 59l41 107q56 -31 109 -31q82 0 82 53q0 19 -11 31t-34.5 18t-50.5 8.5t-66 2.5l61 168q-260 44 -419.5 239t-159.5 461z" />
<glyph unicode="&#xc8;" horiz-adv-x="1120" d="M156 0v1380h870v-198h-631v-375h590v-197h-590v-411h647v-199h-886zM264 1755h250l209 -297h-180z" />
<glyph unicode="&#xc9;" horiz-adv-x="1120" d="M156 0v1380h870v-198h-631v-375h590v-197h-590v-411h647v-199h-886zM502 1458l209 297h250l-279 -297h-180z" />
<glyph unicode="&#xca;" horiz-adv-x="1120" d="M156 0v1380h870v-198h-631v-375h590v-197h-590v-411h647v-199h-886zM287 1458l207 303h194l207 -303h-193l-112 176l-111 -176h-192z" />
<glyph unicode="&#xcb;" horiz-adv-x="1120" d="M156 0v1380h870v-198h-631v-375h590v-197h-590v-411h647v-199h-886zM266 1624q0 48 36 85.5t85 37.5t86 -36.5t37 -86.5t-37 -86.5t-86 -36.5t-85 37.5t-36 85.5zM690 1624q0 48 36.5 85.5t86.5 37.5q48 0 84.5 -37t36.5 -86t-36.5 -86t-84.5 -37q-50 0 -86.5 37.5 t-36.5 85.5z" />
<glyph unicode="&#xcc;" horiz-adv-x="550" d="M-94 1755h250l209 -297h-181zM156 0v1380h239v-1380h-239z" />
<glyph unicode="&#xcd;" horiz-adv-x="550" d="M156 0v1380h239v-1380h-239zM184 1458l209 297h250l-278 -297h-181z" />
<glyph unicode="&#xce;" horiz-adv-x="550" d="M-31 1458l207 303h195l207 -303h-193l-113 176l-110 -176h-193zM156 0v1380h239v-1380h-239z" />
<glyph unicode="&#xcf;" horiz-adv-x="550" d="M-57 1624q0 48 35.5 85.5t84.5 37.5t86 -36.5t37 -86.5t-37 -86.5t-86 -36.5t-84.5 37.5t-35.5 85.5zM156 0v1380h239v-1380h-239zM367 1624q0 48 36 85.5t86 37.5q48 0 84.5 -37t36.5 -86t-36.5 -86t-84.5 -37q-50 0 -86 37.5t-36 85.5z" />
<glyph unicode="&#xd0;" horiz-adv-x="1552" d="M18 608v189h170v583h521q220 0 395.5 -85t276 -243t100.5 -362q0 -203 -100.5 -361t-276 -243.5t-395.5 -85.5h-521v608h-170zM428 188h248q117 0 212 30t157 79.5t104 115.5t60 135t18 142q0 72 -18 141t-60.5 136t-104 116.5t-157 80t-211.5 30.5h-248v-397h377v-189 h-377v-420z" />
<glyph unicode="&#xd1;" horiz-adv-x="1433" d="M135 0v1380h277l665 -1034v1034h219v-1380h-268l-672 1055v-1055h-221zM373 1483q0 68 18.5 117.5t49 75t63.5 37t69 11.5q58 0 133 -34.5t117 -34.5q30 0 47.5 23.5t16.5 62.5h168q0 -68 -18.5 -117.5t-49.5 -75.5t-64 -37.5t-69 -11.5q-58 0 -133 35t-117 35 q-30 0 -47 -23t-16 -63h-168z" />
<glyph unicode="&#xd2;" horiz-adv-x="1552" d="M72 690q0 197 92 360.5t253.5 258t356.5 94.5t358 -94.5t257 -258.5t94 -360q0 -197 -94 -361t-256.5 -258t-358.5 -94q-195 0 -356.5 94t-253.5 257.5t-92 361.5zM324 690q0 -219 130.5 -369.5t321.5 -150.5q126 0 230.5 69t164.5 188.5t60 262.5t-60 262.5 t-164.5 188.5t-230.5 69q-191 0 -321.5 -150.5t-130.5 -369.5zM414 1755h250l208 -297h-180z" />
<glyph unicode="&#xd3;" horiz-adv-x="1552" d="M72 690q0 197 92 360.5t253.5 258t356.5 94.5t358 -94.5t257 -258.5t94 -360q0 -197 -94 -361t-256.5 -258t-358.5 -94q-195 0 -356.5 94t-253.5 257.5t-92 361.5zM324 690q0 -219 130.5 -369.5t321.5 -150.5q126 0 230.5 69t164.5 188.5t60 262.5t-60 262.5 t-164.5 188.5t-230.5 69q-191 0 -321.5 -150.5t-130.5 -369.5zM686 1458l209 297h250l-279 -297h-180z" />
<glyph unicode="&#xd4;" horiz-adv-x="1552" d="M72 690q0 197 92 360.5t253.5 258t356.5 94.5t358 -94.5t257 -258.5t94 -360q0 -197 -94 -361t-256.5 -258t-358.5 -94q-195 0 -356.5 94t-253.5 257.5t-92 361.5zM324 690q0 -219 130.5 -369.5t321.5 -150.5q126 0 230.5 69t164.5 188.5t60 262.5t-60 262.5 t-164.5 188.5t-230.5 69q-191 0 -321.5 -150.5t-130.5 -369.5zM463 1458l207 303h194l207 -303h-192l-113 176l-111 -176h-192z" />
<glyph unicode="&#xd5;" horiz-adv-x="1552" d="M72 690q0 197 92 360.5t253.5 258t356.5 94.5t358 -94.5t257 -258.5t94 -360q0 -197 -94 -361t-256.5 -258t-358.5 -94q-195 0 -356.5 94t-253.5 257.5t-92 361.5zM324 690q0 -219 130.5 -369.5t321.5 -150.5q126 0 230.5 69t164.5 188.5t60 262.5t-60 262.5 t-164.5 188.5t-230.5 69q-191 0 -321.5 -150.5t-130.5 -369.5zM430 1483q0 68 18.5 117.5t49.5 75t64 37t69 11.5q58 0 133 -34.5t117 -34.5q30 0 47 23.5t16 62.5h168q0 -68 -18.5 -117.5t-49.5 -75.5t-64 -37.5t-69 -11.5q-58 0 -132.5 35t-116.5 35q-30 0 -47.5 -23 t-16.5 -63h-168z" />
<glyph unicode="&#xd6;" horiz-adv-x="1552" d="M72 690q0 197 92 360.5t253.5 258t356.5 94.5t358 -94.5t257 -258.5t94 -360q0 -197 -94 -361t-256.5 -258t-358.5 -94q-195 0 -356.5 94t-253.5 257.5t-92 361.5zM324 690q0 -219 130.5 -369.5t321.5 -150.5q126 0 230.5 69t164.5 188.5t60 262.5t-60 262.5 t-164.5 188.5t-230.5 69q-191 0 -321.5 -150.5t-130.5 -369.5zM440 1624q0 48 36 85.5t85 37.5t86 -36.5t37 -86.5t-37 -86.5t-86 -36.5t-85 37.5t-36 85.5zM864 1624q0 48 36.5 85.5t86.5 37.5q48 0 84.5 -37t36.5 -86t-36.5 -86t-84.5 -37q-50 0 -86.5 37.5t-36.5 85.5z " />
<glyph unicode="&#xd7;" d="M47 133l430 432l-430 432l135 136l430 -435l432 435l136 -136l-432 -432l432 -432l-136 -135l-432 432l-430 -432z" />
<glyph unicode="&#xd8;" horiz-adv-x="1552" d="M72 690q0 197 92 360.5t253.5 258t356.5 94.5q212 0 385 -111l135 172l113 -88l-135 -174q100 -99 155.5 -230.5t55.5 -281.5q0 -197 -94 -361t-256.5 -258t-358.5 -94q-207 0 -379 107l-131 -166l-110 88l131 166q-101 98 -157 231.5t-56 286.5zM324 690 q0 -192 104 -334l602 768q-113 86 -254 86q-191 0 -321.5 -150.5t-130.5 -369.5zM528 252q113 -82 248 -82q126 0 230.5 69t164.5 188.5t60 262.5q0 193 -103 330z" />
<glyph unicode="&#xd9;" horiz-adv-x="1464" d="M156 604v776h239v-731q0 -479 346 -479q349 0 349 479v731h239v-776q0 -293 -147.5 -460t-440.5 -167q-196 0 -329 79t-194.5 217.5t-61.5 330.5zM385 1755h250l209 -297h-180z" />
<glyph unicode="&#xda;" horiz-adv-x="1464" d="M156 604v776h239v-731q0 -479 346 -479q349 0 349 479v731h239v-776q0 -293 -147.5 -460t-440.5 -167q-196 0 -329 79t-194.5 217.5t-61.5 330.5zM635 1458l209 297h250l-279 -297h-180z" />
<glyph unicode="&#xdb;" horiz-adv-x="1464" d="M156 604v776h239v-731q0 -479 346 -479q349 0 349 479v731h239v-776q0 -293 -147.5 -460t-440.5 -167q-196 0 -329 79t-194.5 217.5t-61.5 330.5zM434 1458l207 303h195l206 -303h-192l-113 176l-110 -176h-193z" />
<glyph unicode="&#xdc;" horiz-adv-x="1464" d="M156 604v776h239v-731q0 -479 346 -479q349 0 349 479v731h239v-776q0 -293 -147.5 -460t-440.5 -167q-196 0 -329 79t-194.5 217.5t-61.5 330.5zM412 1624q0 48 35.5 85.5t84.5 37.5q50 0 86.5 -36.5t36.5 -86.5t-36.5 -86.5t-86.5 -36.5q-49 0 -84.5 37.5t-35.5 85.5z M836 1624q0 48 36 85.5t86 37.5q48 0 84.5 -37t36.5 -86t-36.5 -86t-84.5 -37q-50 0 -86 37.5t-36 85.5z" />
<glyph unicode="&#xdd;" horiz-adv-x="1261" d="M18 1380h275l348 -600l332 600h270l-489 -774v-606h-240v600zM541 1458l209 297h249l-278 -297h-180z" />
<glyph unicode="&#xde;" horiz-adv-x="1212" d="M156 0v1380h239v-235h203q265 0 404 -105.5t139 -300.5q0 -198 -141.5 -315t-401.5 -117h-203v-307h-239zM395 494h183q162 0 242.5 61t80.5 174q0 229 -323 229h-183v-464z" />
<glyph unicode="&#xdf;" horiz-adv-x="1224" d="M156 0v954q0 241 122.5 370.5t350.5 129.5q218 0 334 -100.5t116 -286.5q0 -120 -55 -202.5t-158 -116.5q134 -31 206.5 -123.5t72.5 -231.5q0 -195 -144.5 -297t-412.5 -96v180q151 0 232 55.5t81 159.5q0 111 -81.5 171.5t-231.5 60.5v196q125 0 191.5 55.5t66.5 159.5 q0 110 -58 170t-165 60q-109 0 -168.5 -73t-59.5 -208v-987h-239z" />
<glyph unicode="&#xe0;" horiz-adv-x="1089" d="M55 274q0 148 119 243t338 95q57 0 113 -6t83 -12l27 -6q0 130 -54.5 200t-184.5 70q-155 0 -301 -76l-60 156q82 42 187.5 66t207.5 24q212 0 324.5 -111t112.5 -309v-608h-232v141q-5 -7 -14 -18t-41 -39t-68 -50t-94.5 -39.5t-120.5 -17.5q-154 0 -248 85.5t-94 211.5 zM184 1423h250l209 -297h-180zM293 297q0 -66 44.5 -106.5t115.5 -40.5q54 0 108 21.5t91 51.5t60 62t23 55v90q-67 33 -186 33q-123 0 -189.5 -44t-66.5 -122z" />
<glyph unicode="&#xe1;" horiz-adv-x="1089" d="M55 274q0 148 119 243t338 95q57 0 113 -6t83 -12l27 -6q0 130 -54.5 200t-184.5 70q-155 0 -301 -76l-60 156q82 42 187.5 66t207.5 24q212 0 324.5 -111t112.5 -309v-608h-232v141q-5 -7 -14 -18t-41 -39t-68 -50t-94.5 -39.5t-120.5 -17.5q-154 0 -248 85.5t-94 211.5 zM293 297q0 -66 44.5 -106.5t115.5 -40.5q54 0 108 21.5t91 51.5t60 62t23 55v90q-67 33 -186 33q-123 0 -189.5 -44t-66.5 -122zM457 1126l209 297h249l-278 -297h-180z" />
<glyph unicode="&#xe2;" horiz-adv-x="1089" d="M55 274q0 148 119 243t338 95q57 0 113 -6t83 -12l27 -6q0 130 -54.5 200t-184.5 70q-155 0 -301 -76l-60 156q82 42 187.5 66t207.5 24q212 0 324.5 -111t112.5 -309v-608h-232v141q-5 -7 -14 -18t-41 -39t-68 -50t-94.5 -39.5t-120.5 -17.5q-154 0 -248 85.5t-94 211.5 zM227 1126l207 304h195l207 -304h-193l-113 177l-110 -177h-193zM293 297q0 -66 44.5 -106.5t115.5 -40.5q54 0 108 21.5t91 51.5t60 62t23 55v90q-67 33 -186 33q-123 0 -189.5 -44t-66.5 -122z" />
<glyph unicode="&#xe3;" horiz-adv-x="1089" d="M55 274q0 148 119 243t338 95q57 0 113 -6t83 -12l27 -6q0 130 -54.5 200t-184.5 70q-155 0 -301 -76l-60 156q82 42 187.5 66t207.5 24q212 0 324.5 -111t112.5 -309v-608h-232v141q-5 -7 -14 -18t-41 -39t-68 -50t-94.5 -39.5t-120.5 -17.5q-154 0 -248 85.5t-94 211.5 zM195 1165q0 68 18.5 117.5t49 75.5t63.5 37.5t69 11.5q58 0 133 -35t117 -35q30 0 47.5 23.5t16.5 62.5h168q0 -68 -18.5 -117.5t-49.5 -75t-64 -37t-69 -11.5q-58 0 -133 34.5t-117 34.5q-30 0 -47.5 -23t-16.5 -63h-167zM293 297q0 -66 44.5 -106.5t115.5 -40.5 q54 0 108 21.5t91 51.5t60 62t23 55v90q-67 33 -186 33q-123 0 -189.5 -44t-66.5 -122z" />
<glyph unicode="&#xe4;" horiz-adv-x="1089" d="M55 274q0 148 119 243t338 95q57 0 113 -6t83 -12l27 -6q0 130 -54.5 200t-184.5 70q-155 0 -301 -76l-60 156q82 42 187.5 66t207.5 24q212 0 324.5 -111t112.5 -309v-608h-232v141q-5 -7 -14 -18t-41 -39t-68 -50t-94.5 -39.5t-120.5 -17.5q-154 0 -248 85.5t-94 211.5 zM207 1292q0 48 36 85.5t85 37.5q50 0 86.5 -36.5t36.5 -86.5t-36.5 -86.5t-86.5 -36.5q-49 0 -85 37.5t-36 85.5zM293 297q0 -66 44.5 -106.5t115.5 -40.5q54 0 108 21.5t91 51.5t60 62t23 55v90q-67 33 -186 33q-123 0 -189.5 -44t-66.5 -122zM631 1292q0 48 36.5 85.5 t86.5 37.5q47 0 83.5 -37t36.5 -86t-36.5 -86t-83.5 -37q-50 0 -86.5 37.5t-36.5 85.5z" />
<glyph unicode="&#xe5;" horiz-adv-x="1089" d="M55 274q0 148 119 243t338 95q57 0 113 -6t83 -12l27 -6q0 130 -54.5 200t-184.5 70q-155 0 -301 -76l-60 156q82 42 187.5 66t207.5 24q212 0 324.5 -111t112.5 -309v-608h-232v141q-5 -7 -14 -18t-41 -39t-68 -50t-94.5 -39.5t-120.5 -17.5q-154 0 -248 85.5t-94 211.5 zM293 297q0 -66 44.5 -106.5t115.5 -40.5q54 0 108 21.5t91 51.5t60 62t23 55v90q-67 33 -186 33q-123 0 -189.5 -44t-66.5 -122zM338 1303q0 86 59.5 146t145.5 60q87 0 146 -59.5t59 -146.5q0 -85 -59 -144t-146 -59t-146 59t-59 144zM442 1303q0 -41 29 -70t72 -29 t71.5 29t28.5 70q0 43 -28.5 72.5t-71.5 29.5t-72 -29.5t-29 -72.5z" />
<glyph unicode="&#xe6;" horiz-adv-x="1789" d="M55 274q0 148 119 243t338 95q57 0 113 -6t83 -12l27 -6q0 130 -54.5 200t-184.5 70q-155 0 -301 -76l-60 156q178 90 400 90q123 0 204 -38t127 -122q137 160 373 160q233 0 368.5 -159t125.5 -431h-768q12 -130 105 -203t247 -73q80 0 157.5 18t115.5 36l38 17l58 -161 q-6 -4 -18 -10.5t-50.5 -22.5t-80.5 -28.5t-105 -23t-127 -10.5q-297 0 -467 218q-25 -37 -64 -73t-93 -70t-128 -54.5t-154 -20.5q-156 0 -250 85t-94 212zM293 297q0 -66 44.5 -106.5t115.5 -40.5q54 0 108 21.5t91 51.5t60 62t23 55v90q-67 33 -186 33q-123 0 -189.5 -44 t-66.5 -122zM965 614h540q-19 108 -87 179t-181 71q-217 0 -272 -250z" />
<glyph unicode="&#xe7;" horiz-adv-x="1005" d="M76 502q0 226 156 376t393 150q182 0 325 -88l-59 -166q-50 29 -116.5 48.5t-125.5 19.5q-152 0 -241 -98.5t-89 -239.5q0 -143 90.5 -239.5t243.5 -96.5q125 0 236 59l59 -159q-138 -83 -307 -91l-43 -83q65 -14 108.5 -52.5t43.5 -105.5q0 -72 -55.5 -117t-145.5 -45 q-106 0 -182 59l41 107q56 -31 108 -31q82 0 82 53q0 19 -11 31t-34.5 18t-50.5 8.5t-66 2.5l62 168q-189 37 -305.5 178t-116.5 334z" />
<glyph unicode="&#xe8;" horiz-adv-x="1134" d="M76 502q0 104 34 198.5t96.5 168t159.5 116.5t216 43q235 0 369 -159t114 -431h-758q17 -136 107.5 -206t247.5 -70q80 0 157 18t115 36l37 17l59 -161q-6 -4 -17.5 -10.5t-50 -22.5t-80.5 -28.5t-107 -23t-132 -10.5q-111 0 -204 27t-159.5 75.5t-113 114.5t-68.5 144 t-22 164zM238 1423h249l209 -297h-180zM311 604h529q-9 113 -77 186.5t-183 73.5q-111 0 -179 -69t-90 -191z" />
<glyph unicode="&#xe9;" horiz-adv-x="1134" d="M76 502q0 104 34 198.5t96.5 168t159.5 116.5t216 43q235 0 369 -159t114 -431h-758q17 -136 107.5 -206t247.5 -70q80 0 157 18t115 36l37 17l59 -161q-6 -4 -17.5 -10.5t-50 -22.5t-80.5 -28.5t-107 -23t-132 -10.5q-111 0 -204 27t-159.5 75.5t-113 114.5t-68.5 144 t-22 164zM311 604h529q-9 113 -77 186.5t-183 73.5q-111 0 -179 -69t-90 -191zM451 1126l208 297h250l-278 -297h-180z" />
<glyph unicode="&#xea;" horiz-adv-x="1134" d="M76 502q0 104 34 198.5t96.5 168t159.5 116.5t216 43q235 0 369 -159t114 -431h-758q17 -136 107.5 -206t247.5 -70q80 0 157 18t115 36l37 17l59 -161q-6 -4 -17.5 -10.5t-50 -22.5t-80.5 -28.5t-107 -23t-132 -10.5q-111 0 -204 27t-159.5 75.5t-113 114.5t-68.5 144 t-22 164zM295 1126l207 304h194l207 -304h-192l-113 177l-111 -177h-192zM311 604h529q-9 113 -77 186.5t-183 73.5q-111 0 -179 -69t-90 -191z" />
<glyph unicode="&#xeb;" horiz-adv-x="1134" d="M76 502q0 104 34 198.5t96.5 168t159.5 116.5t216 43q235 0 369 -159t114 -431h-758q17 -136 107.5 -206t247.5 -70q80 0 157 18t115 36l37 17l59 -161q-6 -4 -17.5 -10.5t-50 -22.5t-80.5 -28.5t-107 -23t-132 -10.5q-111 0 -204 27t-159.5 75.5t-113 114.5t-68.5 144 t-22 164zM268 1292q0 48 36 85.5t85 37.5t86 -36.5t37 -86.5t-37 -86.5t-86 -36.5t-85 37.5t-36 85.5zM311 604h529q-9 113 -77 186.5t-183 73.5q-111 0 -179 -69t-90 -191zM692 1292q0 48 36.5 85.5t86.5 37.5q48 0 84.5 -37t36.5 -86t-36.5 -86t-84.5 -37 q-50 0 -86.5 37.5t-36.5 85.5z" />
<glyph unicode="&#xec;" horiz-adv-x="575" d="M-82 1423h250l209 -297h-180zM170 0v1006h238v-1006h-238z" />
<glyph unicode="&#xed;" horiz-adv-x="575" d="M170 0v1006h238v-1006h-238zM203 1126l209 297h250l-279 -297h-180z" />
<glyph unicode="&#xee;" horiz-adv-x="575" d="M-14 1126l207 304h194l207 -304h-193l-112 177l-111 -177h-192zM170 0v1006h238v-1006h-238z" />
<glyph unicode="&#xef;" horiz-adv-x="575" d="M-45 1292q0 48 36 85.5t85 37.5q50 0 86.5 -36.5t36.5 -86.5t-36.5 -86.5t-86.5 -36.5q-49 0 -85 37.5t-36 85.5zM170 0v1006h238v-1006h-238zM379 1292q0 48 36.5 85.5t86.5 37.5q48 0 84.5 -37t36.5 -86t-36.5 -86t-84.5 -37q-50 0 -86.5 37.5t-36.5 85.5z" />
<glyph unicode="&#xf0;" horiz-adv-x="1204" d="M76 498q0 231 132 371.5t351 140.5q126 0 229 -47q-62 112 -170 211l-319 -119l-43 119l236 86q-101 61 -213 77l65 183q210 -37 397 -170l254 92l41 -119l-184 -70q129 -124 202.5 -300.5t73.5 -368.5q0 -272 -145 -439.5t-395 -167.5q-230 0 -371 141t-141 380z M322 494q0 -159 73 -247.5t193 -88.5q74 0 131.5 35t92 95.5t52 136t17.5 161.5q0 76 -15 153q-47 37 -114.5 66t-143.5 29q-133 0 -209.5 -88.5t-76.5 -251.5z" />
<glyph unicode="&#xf1;" horiz-adv-x="1243" d="M141 0v1006h240v-152q141 174 344 174q86 0 155 -24t113.5 -63.5t74 -92.5t42 -107.5t12.5 -111.5v-629h-241v567q0 56 -10 102.5t-32 86.5t-63 62t-98 22q-115 0 -195.5 -78t-101.5 -201v-561h-240zM297 1165q0 68 18.5 117.5t49.5 75.5t64 37.5t69 11.5q58 0 133 -35 t117 -35q30 0 47 23.5t16 62.5h168q0 -68 -18.5 -117.5t-49.5 -75t-64 -37t-69 -11.5q-58 0 -133 34.5t-117 34.5q-30 0 -47 -23t-16 -63h-168z" />
<glyph unicode="&#xf2;" horiz-adv-x="1239" d="M72 502q0 148 71.5 269t197.5 189t280 68q115 0 216.5 -40t173.5 -109.5t114 -167.5t42 -209q0 -224 -157 -374.5t-392 -150.5q-233 0 -389.5 150.5t-156.5 374.5zM252 1423h250l209 -297h-181zM315 504q0 -150 88 -250t218 -100q129 0 217 100.5t88 249.5t-88 249.5 t-217 100.5t-217.5 -100.5t-88.5 -249.5z" />
<glyph unicode="&#xf3;" horiz-adv-x="1239" d="M72 502q0 148 71.5 269t197.5 189t280 68q115 0 216.5 -40t173.5 -109.5t114 -167.5t42 -209q0 -224 -157 -374.5t-392 -150.5q-233 0 -389.5 150.5t-156.5 374.5zM315 504q0 -150 88 -250t218 -100q129 0 217 100.5t88 249.5t-88 249.5t-217 100.5t-217.5 -100.5 t-88.5 -249.5zM535 1126l208 297h250l-278 -297h-180z" />
<glyph unicode="&#xf4;" horiz-adv-x="1239" d="M72 502q0 148 71.5 269t197.5 189t280 68q115 0 216.5 -40t173.5 -109.5t114 -167.5t42 -209q0 -224 -157 -374.5t-392 -150.5q-233 0 -389.5 150.5t-156.5 374.5zM315 504q0 -150 88 -250t218 -100q129 0 217 100.5t88 249.5t-88 249.5t-217 100.5t-217.5 -100.5 t-88.5 -249.5zM319 1126l207 304h195l207 -304h-193l-112 177l-111 -177h-193z" />
<glyph unicode="&#xf5;" horiz-adv-x="1239" d="M72 502q0 148 71.5 269t197.5 189t280 68q115 0 216.5 -40t173.5 -109.5t114 -167.5t42 -209q0 -224 -157 -374.5t-392 -150.5q-233 0 -389.5 150.5t-156.5 374.5zM281 1165q0 68 18.5 117.5t49 75.5t63.5 37.5t69 11.5q58 0 133 -35t117 -35q30 0 47.5 23.5t16.5 62.5 h168q0 -68 -18.5 -117.5t-49.5 -75t-64 -37t-69 -11.5q-58 0 -133 34.5t-117 34.5q-30 0 -47 -23t-16 -63h-168zM315 504q0 -150 88 -250t218 -100q129 0 217 100.5t88 249.5t-88 249.5t-217 100.5t-217.5 -100.5t-88.5 -249.5z" />
<glyph unicode="&#xf6;" horiz-adv-x="1239" d="M72 502q0 148 71.5 269t197.5 189t280 68q115 0 216.5 -40t173.5 -109.5t114 -167.5t42 -209q0 -224 -157 -374.5t-392 -150.5q-233 0 -389.5 150.5t-156.5 374.5zM289 1292q0 48 36 85.5t85 37.5t85.5 -36.5t36.5 -86.5t-36.5 -86.5t-85.5 -36.5t-85 37.5t-36 85.5z M315 504q0 -150 88 -250t218 -100q129 0 217 100.5t88 249.5t-88 249.5t-217 100.5t-217.5 -100.5t-88.5 -249.5zM713 1292q0 48 36.5 85.5t86.5 37.5q47 0 83.5 -37t36.5 -86t-36.5 -86t-83.5 -37q-50 0 -86.5 37.5t-36.5 85.5z" />
<glyph unicode="&#xf7;" d="M43 449v196h1143v-196h-1143zM492 129q0 52 37 90.5t89 38.5t91 -39t39 -90q0 -52 -38.5 -90.5t-91.5 -38.5q-52 0 -89 38t-37 91zM492 961q0 52 37 90.5t89 38.5t91 -39t39 -90q0 -53 -39 -91.5t-91 -38.5t-89 38.5t-37 91.5z" />
<glyph unicode="&#xf8;" horiz-adv-x="1239" d="M72 502q0 148 71.5 269t197.5 189t280 68q151 0 282 -72l90 115l88 -72l-86 -108q81 -72 126.5 -172.5t45.5 -216.5q0 -224 -157 -374.5t-392 -150.5q-151 0 -282 72l-105 -133l-88 70l101 127q-172 156 -172 389zM315 504q0 -128 64 -217l403 516q-70 51 -161 51 q-129 0 -217.5 -100.5t-88.5 -249.5zM459 205q70 -51 162 -51q129 0 217 100.5t88 249.5q0 125 -64 217z" />
<glyph unicode="&#xf9;" horiz-adv-x="1224" d="M123 377v629h239v-568q0 -44 6 -82.5t21 -74t37.5 -60.5t58.5 -40t82 -15q116 0 197 79.5t100 203.5v557h238v-1006h-240v150q-139 -173 -342 -173q-86 0 -155.5 24.5t-113.5 64t-74 92.5t-42 107.5t-12 111.5zM246 1423h250l209 -297h-181z" />
<glyph unicode="&#xfa;" horiz-adv-x="1224" d="M123 377v629h239v-568q0 -44 6 -82.5t21 -74t37.5 -60.5t58.5 -40t82 -15q116 0 197 79.5t100 203.5v557h238v-1006h-240v150q-139 -173 -342 -173q-86 0 -155.5 24.5t-113.5 64t-74 92.5t-42 107.5t-12 111.5zM518 1126l209 297h250l-279 -297h-180z" />
<glyph unicode="&#xfb;" horiz-adv-x="1224" d="M123 377v629h239v-568q0 -44 6 -82.5t21 -74t37.5 -60.5t58.5 -40t82 -15q116 0 197 79.5t100 203.5v557h238v-1006h-240v150q-139 -173 -342 -173q-86 0 -155.5 24.5t-113.5 64t-74 92.5t-42 107.5t-12 111.5zM309 1126l207 304h195l207 -304h-193l-113 177l-110 -177 h-193z" />
<glyph unicode="&#xfc;" horiz-adv-x="1224" d="M123 377v629h239v-568q0 -44 6 -82.5t21 -74t37.5 -60.5t58.5 -40t82 -15q116 0 197 79.5t100 203.5v557h238v-1006h-240v150q-139 -173 -342 -173q-86 0 -155.5 24.5t-113.5 64t-74 92.5t-42 107.5t-12 111.5zM276 1292q0 48 36 85.5t85 37.5t86 -36.5t37 -86.5 t-37 -86.5t-86 -36.5t-85 37.5t-36 85.5zM700 1292q0 48 36.5 85.5t86.5 37.5q48 0 84.5 -37t36.5 -86t-36.5 -86t-84.5 -37q-50 0 -86.5 37.5t-36.5 85.5z" />
<glyph unicode="&#xfd;" horiz-adv-x="1107" d="M18 1006h258l279 -762l279 762h256l-502 -1203q-105 -252 -387 -262l-54 219q78 0 143 55t91 132l27 76zM463 1126l209 297h250l-279 -297h-180z" />
<glyph unicode="&#xfe;" horiz-adv-x="1306" d="M152 -406v1860h237v-602q60 80 147.5 128t192.5 48q215 0 358.5 -152t143.5 -378q0 -221 -143.5 -369.5t-358.5 -148.5q-108 0 -195.5 47.5t-144.5 126.5v-560h-237zM383 500q0 -139 86.5 -235.5t214.5 -96.5q129 0 216 96t87 236q0 143 -87.5 242.5t-215.5 99.5 t-214.5 -99.5t-86.5 -242.5z" />
<glyph unicode="&#xff;" horiz-adv-x="1107" d="M18 1006h258l279 -762l279 762h256l-502 -1203q-105 -252 -387 -262l-54 219q78 0 143 55t91 132l27 76zM221 1292q0 48 36 85.5t85 37.5q50 0 86.5 -36.5t36.5 -86.5t-36.5 -86.5t-86.5 -36.5q-49 0 -85 37.5t-36 85.5zM645 1292q0 48 36.5 85.5t86.5 37.5 q48 0 84.5 -37t36.5 -86t-36.5 -86t-84.5 -37q-50 0 -86.5 37.5t-36.5 85.5z" />
<glyph unicode="&#x152;" horiz-adv-x="1843" d="M72 690q0 193 92.5 351.5t254 248.5t357.5 90h973v-198h-631v-375h590v-197h-590v-411h647v-199h-989q-196 0 -357.5 89.5t-254 248t-92.5 352.5zM324 690q0 -210 129 -350.5t323 -140.5h103v983h-103q-194 0 -323 -141t-129 -351z" />
<glyph unicode="&#x153;" horiz-adv-x="1976" d="M72 502q0 224 157 375t392 151q130 0 235 -52t172 -147q134 199 397 199q234 0 368 -159.5t114 -430.5h-758q11 -129 105 -202.5t249 -73.5q80 0 158 18t116 36l38 17l57 -161q-6 -4 -17.5 -10.5t-50 -22.5t-80.5 -28.5t-107 -23t-132 -10.5q-155 0 -270.5 53t-184.5 150 q-68 -98 -173 -150.5t-239 -52.5q-116 0 -217.5 40.5t-173.5 110t-113.5 167t-41.5 207.5zM317 504q0 -150 87.5 -250t216.5 -100t215 100.5t86 249.5t-86 249.5t-215 100.5t-216.5 -100.5t-87.5 -249.5zM1151 604h530q-10 114 -77 187t-183 73q-219 0 -270 -260z" />
<glyph unicode="&#x178;" horiz-adv-x="1261" d="M18 1380h275l348 -600l332 600h270l-489 -774v-606h-240v600zM299 1624q0 48 36 85.5t85 37.5q50 0 86.5 -36.5t36.5 -86.5t-36.5 -86.5t-86.5 -36.5q-49 0 -85 37.5t-36 85.5zM723 1624q0 48 36.5 85.5t86.5 37.5q48 0 84.5 -37t36.5 -86t-36.5 -86t-84.5 -37 q-50 0 -86.5 37.5t-36.5 85.5z" />
<glyph unicode="&#x2c6;" horiz-adv-x="1024" d="M209 1126l207 304h194l207 -304h-192l-113 177l-111 -177h-192z" />
<glyph unicode="&#x2dc;" horiz-adv-x="1024" d="M172 1165q0 68 18.5 117.5t49.5 75.5t64 37.5t69 11.5q58 0 133 -35t117 -35q30 0 47 23.5t16 62.5h168q0 -68 -18.5 -117.5t-49.5 -75t-64 -37t-69 -11.5q-58 0 -133 34.5t-117 34.5q-30 0 -47 -23t-16 -63h-168z" />
<glyph unicode="&#x2000;" horiz-adv-x="921" />
<glyph unicode="&#x2001;" horiz-adv-x="1843" />
<glyph unicode="&#x2002;" horiz-adv-x="921" />
<glyph unicode="&#x2003;" horiz-adv-x="1843" />
<glyph unicode="&#x2004;" horiz-adv-x="614" />
<glyph unicode="&#x2005;" horiz-adv-x="460" />
<glyph unicode="&#x2006;" horiz-adv-x="307" />
<glyph unicode="&#x2007;" horiz-adv-x="307" />
<glyph unicode="&#x2008;" horiz-adv-x="230" />
<glyph unicode="&#x2009;" horiz-adv-x="368" />
<glyph unicode="&#x200a;" horiz-adv-x="102" />
<glyph unicode="&#x2010;" horiz-adv-x="819" d="M102 467v188h615v-188h-615z" />
<glyph unicode="&#x2011;" horiz-adv-x="819" d="M102 467v188h615v-188h-615z" />
<glyph unicode="&#x2012;" horiz-adv-x="819" d="M102 467v188h615v-188h-615z" />
<glyph unicode="&#x2013;" horiz-adv-x="1024" d="M102 467v188h820v-188h-820z" />
<glyph unicode="&#x2014;" horiz-adv-x="2048" d="M102 467v188h1844v-188h-1844z" />
<glyph unicode="&#x2018;" horiz-adv-x="610" d="M111 881q0 74 23.5 157t57.5 147.5t67.5 118.5t56.5 84l24 29h160q-2 -1 -18 -30.5t-39 -84t-45 -119.5t-37 -147t-13 -155h-237z" />
<glyph unicode="&#x2019;" horiz-adv-x="610" d="M111 881q6 11 16.5 31.5t36.5 82t45.5 122t36 144t16.5 156.5h238q0 -73 -23.5 -155.5t-57 -147.5t-67 -119t-56.5 -84l-24 -30h-161z" />
<glyph unicode="&#x201a;" horiz-adv-x="638" d="M111 -258l161 549h256l-247 -549h-170z" />
<glyph unicode="&#x201c;" horiz-adv-x="980" d="M111 881q0 74 23.5 157t57.5 147.5t67.5 118.5t56.5 84l24 29h160q-6 -11 -17 -31t-37.5 -81t-47 -122t-36.5 -144.5t-14 -157.5h-237zM481 881q0 74 23.5 157t57 147.5t67 118.5t57.5 84l23 29h161q-6 -11 -16.5 -31t-37.5 -81t-47 -122t-36 -144.5t-14 -157.5h-238z " />
<glyph unicode="&#x201d;" horiz-adv-x="980" d="M111 881q6 11 16.5 31t37.5 81t47 122t36 144.5t14 157.5h238q0 -74 -23.5 -157t-57.5 -147.5t-68 -118.5t-57 -84l-24 -29h-159zM481 881q6 11 16.5 31t37 81t46.5 122t36 144.5t14 157.5h239q0 -74 -23.5 -157t-57 -147.5t-67.5 -118.5t-58 -84l-23 -29h-160z" />
<glyph unicode="&#x201e;" horiz-adv-x="1017" d="M111 -258l161 549h256l-247 -549h-170zM492 -258l161 549h254l-248 -549h-167z" />
<glyph unicode="&#x2022;" horiz-adv-x="692" d="M94 559q0 106 72.5 180t179.5 74q108 0 181 -74t73 -180q0 -105 -73 -178.5t-181 -73.5q-107 0 -179.5 73.5t-72.5 178.5z" />
<glyph unicode="&#x2026;" horiz-adv-x="1980" d="M113 135q0 63 45 109.5t108 46.5q64 0 111 -46.5t47 -109.5q0 -65 -47 -111.5t-111 -46.5q-63 0 -108 46.5t-45 111.5zM836 135q0 63 45 109.5t108 46.5q64 0 111 -46.5t47 -109.5q0 -65 -46.5 -111.5t-111.5 -46.5q-63 0 -108 46.5t-45 111.5zM1556 135q0 63 45.5 109.5 t108.5 46.5q64 0 111 -46.5t47 -109.5q0 -65 -47 -111.5t-111 -46.5q-63 0 -108.5 46.5t-45.5 111.5z" />
<glyph unicode="&#x202f;" horiz-adv-x="368" />
<glyph unicode="&#x2039;" horiz-adv-x="653" d="M37 518l317 379h224l-316 -379l316 -379h-224z" />
<glyph unicode="&#x203a;" horiz-adv-x="653" d="M76 139l315 379l-315 379h223l317 -379l-317 -379h-223z" />
<glyph unicode="&#x205f;" horiz-adv-x="460" />
<glyph unicode="&#x20ac;" d="M-43 483l47 131h154l-2 52q0 23 4 69h-193l45 131h170q61 218 241 353t429 135q206 0 412 -109l-64 -180q-61 41 -149.5 68.5t-178.5 27.5q-151 0 -268.5 -78.5t-171.5 -216.5h694l-47 -131h-678q-4 -46 -4 -69q0 -36 2 -52h637l-47 -131h-563q49 -146 171 -229.5 t280 -83.5q90 0 178 27t147 65l62 -174q-210 -111 -412 -111q-254 0 -435.5 140.5t-238.5 365.5h-221z" />
<glyph unicode="&#x2122;" horiz-adv-x="1294" d="M37 1266v114h467v-114h-170v-443h-127v443h-170zM584 823v557h164l153 -379l156 379h162v-557h-136v332l-137 -332h-94l-137 328v-328h-131z" />
<glyph unicode="&#x25fc;" horiz-adv-x="1003" d="M0 0v1004h1004v-1004h-1004z" />
</font>
</defs>
</svg>
