<?xml version="1.0" standalone="no"?>
<!DOCTYPE svg PUBLIC "-//W3C//DTD SVG 1.1//EN" "http://www.w3.org/Graphics/SVG/1.1/DTD/svg11.dtd" >
<svg xmlns="http://www.w3.org/2000/svg">
<metadata></metadata>
<defs>
<font id="ortodoxasemibold" horiz-adv-x="1228" >
<font-face units-per-em="2048" ascent="1536" descent="-512" />
<missing-glyph horiz-adv-x="616" />
<glyph unicode="&#xfb01;" horiz-adv-x="1345" d="M16 805v203h150v63q0 406 442 406q82 0 164 -15v-227q-77 12 -149 12q-91 0 -130.5 -47.5t-39.5 -150.5v-41h213v-203h-213v-805h-287v805h-150zM903 1280q0 65 44.5 110.5t109.5 45.5q66 0 111.5 -45.5t45.5 -110.5q0 -66 -45.5 -112t-111.5 -46t-110 46t-44 112zM913 0 v1018h287v-1018h-287z" />
<glyph unicode="&#xfb02;" horiz-adv-x="1310" d="M16 805v203h150v63q0 406 442 406q82 0 164 -15v-227q-77 12 -149 12q-91 0 -130.5 -47.5t-39.5 -150.5v-41h213v-203h-213v-805h-287v805h-150zM911 0v1454h287v-1454h-287z" />
<glyph horiz-adv-x="0" />
<glyph horiz-adv-x="682" />
<glyph unicode="&#xd;" horiz-adv-x="616" />
<glyph unicode=" "  horiz-adv-x="616" />
<glyph unicode="&#x09;" horiz-adv-x="616" />
<glyph unicode="&#xa0;" horiz-adv-x="616" />
<glyph unicode="!" horiz-adv-x="567" d="M109 154q0 72 50 124t122 52q73 0 125.5 -52t52.5 -124q0 -73 -52 -125t-126 -52q-72 0 -122 51.5t-50 125.5zM150 1380h264l-19 -936h-227z" />
<glyph unicode="&#x22;" horiz-adv-x="870" d="M106 1417h269l-43 -567h-187zM506 1417h266l-41 -567h-188z" />
<glyph unicode="#" d="M125 379v168h203l32 244h-186v167h209l51 373h178l-49 -373h187l51 373h178l-49 -373h174v-167h-197l-33 -244h181v-168h-203l-51 -379h-180l51 379h-187l-51 -379h-178l49 379h-180zM506 547h186l33 244h-186z" />
<glyph unicode="$" d="M162 170l74 201q163 -108 292 -123v330q-95 41 -157 76.5t-109.5 79.5t-68.5 97.5t-21 122.5q0 152 95.5 244.5t260.5 110.5v196h164v-198q175 -18 316 -103l-80 -192q-154 67 -236 82v-314q90 -40 147.5 -69.5t105.5 -63t73.5 -67.5t39 -76t13.5 -96q0 -165 -102 -262 t-277 -115v-205h-164v207q-109 12 -205.5 48t-160.5 89zM436 983q0 -69 92 -123v230q-42 -12 -67 -40t-25 -67zM692 254q55 15 85 47t30 76q0 41 -28.5 71t-86.5 60v-254z" />
<glyph unicode="%" horiz-adv-x="2048" d="M195 940q0 182 92.5 298t238.5 116q150 0 245 -116t95 -298t-95 -298t-245 -116q-146 0 -238.5 116t-92.5 298zM406 940q0 -118 34 -191t88 -73q57 0 93 73t36 191t-36 192t-93 74q-54 0 -88 -74t-34 -192zM481 -23l869 1377h200l-868 -1377h-201zM1167 391q0 182 93 298 t239 116q150 0 245 -116t95 -298t-95 -298t-245 -116q-146 0 -239 116t-93 298zM1378 391q0 -118 34.5 -191t88.5 -73q57 0 93 73t36 191t-36 192t-93 74q-54 0 -88.5 -74t-34.5 -192z" />
<glyph unicode="&#x26;" horiz-adv-x="1517" d="M74 371q0 60 15.5 112t41 90.5t64 73.5t77 60t88.5 51q-69 85 -94.5 154t-25.5 141q0 166 106.5 258t290.5 92q176 0 273.5 -86t97.5 -236q0 -55 -14 -103.5t-37 -84.5t-58 -69.5t-70 -57.5t-81 -49l296 -283q43 68 71.5 149t36.5 128l7 47h246q-1 -11 -4 -29.5 t-17.5 -75.5t-34 -112.5t-57.5 -129t-84 -135.5l291 -276h-352l-113 106q-184 -129 -440 -129q-234 0 -377 103.5t-143 290.5zM346 375q0 -87 65 -138t193 -51q152 0 270 74l-360 340q-81 -46 -124.5 -98.5t-43.5 -126.5zM496 1071q0 -96 96 -203q82 45 126 94t44 117 q0 67 -39.5 104.5t-95.5 37.5q-59 0 -95 -40.5t-36 -109.5z" />
<glyph unicode="'" horiz-adv-x="473" d="M102 1417h269l-43 -567h-187z" />
<glyph unicode="(" horiz-adv-x="706" d="M121 584q0 123 20 239t49.5 202t70.5 166.5t76 131.5t73 96l225 -67q-50 -68 -80 -112.5t-72 -122.5t-65 -149t-40.5 -172t-17.5 -212q0 -135 22.5 -250t67 -211t84.5 -159t101 -144l-225 -68q-49 57 -93.5 128t-91.5 174.5t-75.5 241.5t-28.5 288z" />
<glyph unicode=")" horiz-adv-x="706" d="M70 -180q48 63 80.5 111.5t72.5 124t64 148t40.5 172t16.5 208.5q0 111 -17 211.5t-40 172.5t-64 148.5t-72.5 123t-80.5 112.5l225 67q38 -45 73 -96t76 -131.5t70.5 -166.5t49.5 -202t20 -239q0 -121 -19.5 -236.5t-49 -202.5t-70 -166.5t-76.5 -131t-74 -95.5z" />
<glyph unicode="*" horiz-adv-x="858" d="M53 907l226 129l-226 131l74 129l225 -127v256h150v-260l229 131l74 -129l-225 -131l225 -129l-74 -129l-229 131v-264h-150v260l-225 -127z" />
<glyph unicode="+" d="M45 436v221h455v433h229v-433h455v-221h-455v-436h-229v436h-455z" />
<glyph unicode="," horiz-adv-x="593" d="M45 -272l174 589h301l-264 -589h-211z" />
<glyph unicode="-" horiz-adv-x="819" d="M102 449v219h615v-219h-615z" />
<glyph unicode="." horiz-adv-x="559" d="M104 154q0 72 50 124t122 52q73 0 126 -52t53 -124q0 -73 -52.5 -125t-126.5 -52q-72 0 -122 51.5t-50 125.5z" />
<glyph unicode="/" horiz-adv-x="897" d="M16 -82l627 1485h238l-631 -1485h-234z" />
<glyph unicode="0" d="M78 666q0 196 65.5 352t188 246t280.5 90q159 0 282.5 -90.5t190 -246.5t66.5 -351t-66.5 -351.5t-190 -247t-282.5 -90.5q-158 0 -280.5 90t-188 246.5t-65.5 352.5zM365 666q0 -204 67.5 -337.5t181.5 -133.5t182 134.5t68 336.5t-68 336.5t-182 134.5t-181.5 -133.5 t-67.5 -337.5z" />
<glyph unicode="1" d="M244 1153l344 176h262v-1329h-279v1083l-254 -129z" />
<glyph unicode="2" d="M104 0v182q0 97 34 174t109 137.5t121.5 88t141.5 75.5q7 4 11.5 6t10.5 5t11 6q140 71 200 134t60 142q0 83 -58 127.5t-151 44.5q-153 0 -383 -116l-78 217q251 131 485 131q221 0 347.5 -103t126.5 -286q0 -147 -84 -247t-267 -202q-26 -14 -78.5 -42.5t-79 -43.5 t-66 -41t-60.5 -46t-39.5 -48t-24.5 -57h731v-238h-1020z" />
<glyph unicode="3" d="M98 76l76 211q183 -82 385 -82q119 0 189.5 47t70.5 137q0 108 -120.5 163.5t-338.5 55.5h-18v207h18q211 2 312.5 46.5t101.5 137.5q0 59 -54 93t-147 34q-180 0 -352 -79l-74 208q214 99 441 99q224 0 350.5 -88t126.5 -238q0 -106 -66.5 -188t-175.5 -121 q295 -78 295 -342q0 -117 -69 -208.5t-189 -141.5t-270 -50q-283 0 -492 99z" />
<glyph unicode="4" d="M59 334v203l664 794h278v-780h193v-217h-193v-334h-272v334h-670zM348 551h381v459z" />
<glyph unicode="5" d="M115 70l78 215q69 -35 169.5 -58.5t184.5 -23.5q121 0 202.5 54.5t81.5 148.5q0 84 -54.5 142.5t-143.5 83t-203 29t-233 -19.5l96 692h784v-241h-579l-31 -224q135 13 252.5 -7.5t209 -72.5t144.5 -144.5t53 -215.5q0 -140 -76.5 -243.5t-208 -155.5t-300.5 -52 q-109 0 -223.5 24.5t-202.5 68.5z" />
<glyph unicode="6" d="M78 561q0 173 73.5 321.5t200 251t300.5 160.5t370 58v-224q-202 0 -355.5 -80t-232.5 -221q126 60 268 60q128 0 237 -58.5t174 -163.5t65 -233q0 -198 -148 -326.5t-383 -128.5q-135 0 -244 45.5t-179.5 125t-108 185.5t-37.5 228zM367 547q0 -165 73.5 -261t208.5 -96 q107 0 171.5 59.5t64.5 174.5q0 117 -69 186.5t-193 69.5q-116 0 -254 -86z" />
<glyph unicode="7" d="M127 1094v237h1010v-201q-16 -18 -44.5 -51t-107 -145.5t-147 -235.5t-146 -313t-123.5 -385h-270q34 166 91.5 331.5t126.5 305.5t133 250t132 207h-655z" />
<glyph unicode="8" d="M78 346q0 61 23.5 114.5t67.5 96t95 75t117 62.5q-111 47 -180.5 128.5t-69.5 183.5q0 101 63.5 180.5t174 123.5t247.5 44q207 0 343.5 -96t136.5 -252q0 -109 -71.5 -183.5t-178.5 -117.5q305 -134 305 -357q0 -170 -149 -270.5t-388 -100.5t-387.5 100.5t-148.5 268.5 zM371 379q0 -85 69 -143t176 -58q106 0 174 56t68 139q0 49 -27 88.5t-66 62.5t-78 38.5t-66 23t-27 8.5q0 -1 -23 -9t-56 -23.5t-65.5 -38t-55.5 -60.5t-23 -84zM406 1006q0 -40 23.5 -76t57 -59.5t67.5 -40.5t57.5 -26.5t23.5 -10.5l19 9q20 10 47.5 27t55 40t47 57.5 t19.5 72.5q0 71 -61 114.5t-150 43.5q-87 0 -146.5 -42t-59.5 -109z" />
<glyph unicode="9" d="M53 897q0 198 147.5 326.5t383.5 128.5q135 0 243.5 -45.5t178.5 -125t107.5 -185.5t37.5 -228q0 -173 -73.5 -321.5t-200 -251t-299.5 -160.5t-369 -58v224q202 0 355.5 80t232.5 221q-126 -60 -269 -60q-197 0 -336 130.5t-139 324.5zM346 905q0 -117 69 -186.5 t193 -69.5q116 0 254 86l2 47q0 165 -73.5 261t-208.5 96q-107 0 -171.5 -59.5t-64.5 -174.5z" />
<glyph unicode=":" horiz-adv-x="559" d="M104 154q0 72 50 124t122 52q73 0 126 -52t53 -124q0 -73 -52.5 -125t-126.5 -52q-72 0 -122 51.5t-50 125.5zM104 844q0 72 50 123t122 51q74 0 126.5 -51t52.5 -123q0 -73 -52.5 -125.5t-126.5 -52.5q-72 0 -122 52t-50 126z" />
<glyph unicode=";" horiz-adv-x="593" d="M37 -272l174 589h303l-266 -589h-211zM166 844q0 72 50 123t122 51q73 0 124.5 -51t51.5 -123q0 -74 -51.5 -126t-124.5 -52q-72 0 -122 52t-50 126z" />
<glyph unicode="&#x3c;" d="M92 465v162l1045 465v-238l-729 -309l729 -307v-238z" />
<glyph unicode="=" d="M45 190v222h1139v-222h-1139zM45 690v221h1139v-221h-1139z" />
<glyph unicode="&#x3e;" d="M92 0v238l729 307l-729 309v238l1045 -465v-162z" />
<glyph unicode="?" horiz-adv-x="948" d="M88 1284q111 58 207.5 88.5t208.5 30.5q167 0 261.5 -93t94.5 -233q0 -40 -10 -78t-20.5 -63t-37.5 -61t-39.5 -50.5t-47.5 -52.5q-95 -107 -126.5 -177t-31.5 -151h-271q0 43 5 80.5t9 63t20 57.5t22 45.5t33 47t34 42t43 49.5q76 87 107 135.5t31 98.5q0 55 -36 84 t-100 29q-58 0 -123 -23t-161 -70zM238 154q0 72 50 124t122 52q73 0 124.5 -52t51.5 -124q0 -74 -51.5 -125.5t-124.5 -51.5q-72 0 -122 51.5t-50 125.5z" />
<glyph unicode="@" horiz-adv-x="1599" d="M88 500q0 152 55.5 287.5t151 232t229 153t283.5 56.5q148 0 279 -52t224 -141t147 -212t54 -261q0 -196 -82 -315t-231 -119q-124 0 -188 113q-95 -117 -240 -117q-144 0 -245 105t-101 253q0 149 101 255t243 106q114 0 201 -76v61h155v-354q0 -99 27 -153t70 -54 q59 0 92 75t33 216q0 101 -42 196.5t-113.5 167.5t-172.5 115t-213 43q-116 0 -219 -47t-175 -125.5t-113.5 -185t-41.5 -221.5q0 -87 23 -171.5t69.5 -158.5t110.5 -130.5t152 -89t188 -32.5q36 0 70.5 4t62 10.5t51.5 14.5t41.5 16t30 15t20 11.5t8.5 4.5l95 -111l-2 -1 q-110 -85 -278 -108q-52 -7 -105 -7q-159 0 -293.5 60.5t-223.5 161.5t-138.5 233t-49.5 276zM610 483q0 -79 52.5 -137.5t130.5 -58.5q73 0 123.5 58t50.5 138q0 82 -50.5 140.5t-123.5 58.5q-78 0 -130.5 -59t-52.5 -140z" />
<glyph unicode="A" horiz-adv-x="1392" d="M16 0l504 1380h352l504 -1380h-305l-135 391h-479l-135 -391h-306zM532 608h328l-164 477z" />
<glyph unicode="B" horiz-adv-x="1251" d="M145 0v1380h502q231 0 355 -94.5t124 -257.5q0 -113 -67 -195t-170 -106q56 -11 104.5 -34.5t91.5 -62.5t68 -100t25 -137q0 -185 -139.5 -289t-391.5 -104h-502zM432 201h160q144 0 214.5 49t70.5 156q0 106 -71 155t-214 49h-160v-409zM432 817h160q246 0 246 178 q0 181 -246 181h-160v-359z" />
<glyph unicode="C" horiz-adv-x="1296" d="M66 690q0 149 55 281t151 227t231 150t288 55q218 0 432 -113l-80 -219q-57 39 -147.5 65.5t-176.5 26.5q-197 0 -323.5 -132t-126.5 -341t128 -342t328 -133q84 0 176 26.5t146 61.5l74 -211q-218 -115 -430 -115q-153 0 -288 55t-231 150t-151 227t-55 281z" />
<glyph unicode="D" horiz-adv-x="1536" d="M145 0v1380h537q354 0 571 -189.5t217 -500.5q0 -205 -98.5 -362t-277.5 -242.5t-412 -85.5h-537zM434 225h228q110 0 198 27t144 72t93 106.5t52.5 125.5t15.5 134t-15.5 134t-52.5 126t-93 107.5t-144 73.5t-198 28h-228v-934z" />
<glyph unicode="E" horiz-adv-x="1130" d="M145 0v1380h895v-237h-606v-316h565v-235h-565v-354h623v-238h-912z" />
<glyph unicode="F" horiz-adv-x="1120" d="M145 0v1380h902v-237h-613v-344h565v-236h-565v-563h-289z" />
<glyph unicode="G" horiz-adv-x="1454" d="M66 688q0 204 89 365.5t258 255.5t392 94q226 0 426 -109l-78 -221q-71 44 -161.5 68t-172.5 24q-201 0 -325.5 -133t-124.5 -348q0 -207 111 -340t290 -133q146 0 224 87q77 85 77 219v7h-358v226h673q2 -35 2 -70q0 -183 -59 -330q-70 -175 -219 -274t-356 -99 q-153 0 -282.5 55t-218 150t-138 226t-49.5 280z" />
<glyph unicode="H" horiz-adv-x="1490" d="M145 0v1380h289v-557h623v557h286v-1380h-286v569h-623v-569h-289z" />
<glyph unicode="I" horiz-adv-x="579" d="M145 0v1380h287v-1380h-287z" />
<glyph unicode="J" horiz-adv-x="870" d="M16 4v244q116 -31 193 -31q129 0 178 74.5t49 216.5v872h287v-913q0 -250 -127 -370t-356 -120q-116 0 -224 27z" />
<glyph unicode="K" horiz-adv-x="1359" d="M145 0v1380h287v-532l533 532h352l-565 -577l591 -803h-333l-451 608l-127 -131v-477h-287z" />
<glyph unicode="L" horiz-adv-x="1091" d="M145 0v1380h289v-1138h641v-242h-930z" />
<glyph unicode="M" horiz-adv-x="1781" d="M125 0v1380h385l364 -1001l381 1001h379v-1380h-278v1004l-352 -1004h-254l-359 1004v-1004h-266z" />
<glyph unicode="N" horiz-adv-x="1433" d="M125 0v1380h338l579 -934v934h265v-1380h-310l-606 993v-993h-266z" />
<glyph unicode="O" horiz-adv-x="1554" d="M66 690q0 120 34.5 229.5t99 197t151 152t196 99.5t229.5 35q200 0 363.5 -93t256.5 -256.5t93 -363.5t-93 -363.5t-256.5 -256.5t-363.5 -93q-120 0 -229.5 35t-196 99.5t-151 152t-99 197t-34.5 229.5zM371 690q0 -206 117 -344.5t290 -138.5t290.5 139t117.5 344 q0 206 -117.5 345t-290.5 139t-290 -139t-117 -345z" />
<glyph unicode="P" horiz-adv-x="1232" d="M145 0v1380h467q267 0 411 -105.5t144 -299.5q0 -198 -147.5 -320.5t-407.5 -122.5h-180v-532h-287zM432 754h160q291 0 291 204q0 203 -291 203h-160v-407z" />
<glyph unicode="Q" horiz-adv-x="1554" d="M66 690q0 120 34.5 229.5t99 197t151 152t196 99.5t229.5 35q200 0 363.5 -93t256.5 -256.5t93 -363.5q0 -255 -149 -444.5t-386 -247.5q29 -209 281 -209v-217q-34 -3 -67 -3q-38 0 -75 4q-69 7 -140.5 33.5t-125 71.5t-89.5 123t-40 181q-276 28 -454 226.5t-178 481.5 zM371 690q0 -206 117 -344.5t290 -138.5t290.5 139t117.5 344q0 206 -117.5 345t-290.5 139t-290 -139t-117 -345z" />
<glyph unicode="R" horiz-adv-x="1302" d="M145 0v1380h467q268 0 412.5 -97.5t144.5 -291.5q0 -120 -64 -213.5t-181 -146.5l313 -631h-295l-270 567h-240v-567h-287zM432 776h160q291 0 291 197q0 96 -71 144t-220 48h-160v-389z" />
<glyph unicode="S" horiz-adv-x="1155" d="M72 135l82 221q107 -70 202 -104.5t197 -34.5q113 0 175.5 39t62.5 106q0 24 -8.5 45.5t-29 40.5t-39.5 33t-57 32t-63.5 29t-76.5 31.5t-79 32.5q-181 76 -266.5 168t-85.5 236q0 180 126.5 286.5t350.5 106.5q120 0 238 -31t213 -86l-88 -217q-221 98 -351 98 q-84 0 -140 -33t-56 -98q0 -15 3 -29t11.5 -27t16 -24t25 -24t30.5 -22.5t39.5 -23.5t44.5 -23t53.5 -25.5t58.5 -26.5t68 -29q94 -41 154.5 -77t108 -81.5t68.5 -102t21 -130.5q0 -193 -134.5 -303.5t-358.5 -110.5q-142 0 -285.5 42.5t-230.5 115.5z" />
<glyph unicode="T" horiz-adv-x="1191" d="M16 1139v241h1160v-241h-437v-1139h-286v1139h-437z" />
<glyph unicode="U" horiz-adv-x="1490" d="M145 598v782h289v-737q0 -86 12 -154.5t34 -115.5t50.5 -79.5t66 -50.5t75 -26t82.5 -8q55 0 99.5 11t87 40.5t71 76.5t46 125t17.5 181v737h289v-782q0 -303 -157 -462t-453 -159t-452.5 158.5t-156.5 462.5z" />
<glyph unicode="V" horiz-adv-x="1390" d="M16 1380h306l374 -1077l373 1077h305l-504 -1380h-350z" />
<glyph unicode="W" horiz-adv-x="2039" d="M57 1380h310l225 -1020l274 1020h310l274 -1022l225 1022h307l-366 -1380h-311l-285 1004l-281 -1004h-313z" />
<glyph unicode="X" horiz-adv-x="1316" d="M16 0l457 702l-440 678h307l317 -506l316 506h313l-440 -680l454 -700h-313l-332 528l-331 -528h-308z" />
<glyph unicode="Y" horiz-adv-x="1290" d="M16 1380h332l316 -569l286 569h324l-475 -759v-621h-287v594z" />
<glyph unicode="Z" horiz-adv-x="1288" d="M74 0v201l747 942h-706v237h1067v-200l-740 -942h772v-238h-1140z" />
<glyph unicode="[" horiz-adv-x="649" d="M121 -229v1634h457v-184h-244v-1266h244v-184h-457z" />
<glyph unicode="\" horiz-adv-x="862" d="M0 1403h236l626 -1485h-231z" />
<glyph unicode="]" horiz-adv-x="649" d="M70 -45h245v1266h-245v184h456v-1634h-456v184z" />
<glyph unicode="^" d="M37 385l465 944h223l471 -942h-219l-363 756l-356 -758h-221z" />
<glyph unicode="_" horiz-adv-x="1243" d="M53 -82h1137v-194h-1137v194z" />
<glyph unicode="`" horiz-adv-x="1024" d="M125 1427h278l211 -301h-206z" />
<glyph unicode="a" horiz-adv-x="1112" d="M45 272q0 158 121 254.5t346 96.5q56 0 108.5 -5.5t77.5 -10.5l25 -5q0 127 -52 182.5t-167 55.5q-150 0 -314 -82l-71 184q93 46 208 72t220 26q219 0 335.5 -115.5t116.5 -316.5v-608h-276v131q-4 -6 -12.5 -16.5t-39 -37t-65 -47t-91.5 -37t-118 -16.5 q-162 0 -257 84.5t-95 210.5zM330 303q0 -54 38 -88.5t99 -34.5q51 0 100 18t82 43.5t53.5 52.5t20.5 46v80q-62 33 -166 33q-110 0 -168.5 -42.5t-58.5 -107.5z" />
<glyph unicode="b" horiz-adv-x="1310" d="M131 0v1454h287v-580q55 74 142.5 120t180.5 46q220 0 362 -152.5t142 -387.5q0 -227 -141 -373.5t-359 -146.5q-101 0 -190 45t-137 118v-143h-287zM416 504q0 -128 75.5 -212.5t192.5 -84.5t192.5 83.5t75.5 211.5q0 137 -75.5 227t-192.5 90q-116 0 -192 -89.5 t-76 -225.5z" />
<glyph unicode="c" horiz-adv-x="1001" d="M66 508q0 231 156 381.5t396 150.5q105 0 196.5 -27.5t141.5 -64.5l-69 -196q-46 29 -110.5 48t-123.5 19q-131 0 -212 -86t-81 -223q0 -141 82.5 -224t214.5 -83q124 0 226 57l69 -188q-57 -37 -149 -66t-197 -29q-236 0 -388 150t-152 381z" />
<glyph unicode="d" horiz-adv-x="1310" d="M66 500q0 235 142 387.5t361 152.5q93 0 181 -46t143 -120v580h287v-1454h-287v143q-48 -73 -137 -118t-191 -45q-218 0 -358.5 146.5t-140.5 373.5zM358 502q0 -128 76 -211.5t193 -83.5t192.5 84.5t75.5 212.5q0 136 -75.5 225.5t-192.5 89.5t-193 -90t-76 -227z" />
<glyph unicode="e" horiz-adv-x="1138" d="M66 500q0 106 34 202.5t98 172t165.5 120.5t226.5 45q249 0 386 -166q117 -143 117 -368q0 -38 -3 -78h-748q21 -125 102.5 -178t227.5 -53q87 0 165.5 16.5t114.5 33.5l35 17l68 -192q-6 -4 -17.5 -10.5t-51 -22.5t-83 -28.5t-111.5 -23t-139 -10.5q-146 0 -260 41.5 t-184.5 114t-106.5 166t-36 201.5zM348 623h475q-10 92 -72 157.5t-163 65.5q-194 0 -240 -223z" />
<glyph unicode="f" horiz-adv-x="772" d="M16 805v203h150v63q0 406 442 406q82 0 164 -15v-227q-77 12 -149 12q-91 0 -130.5 -47.5t-39.5 -150.5v-41h213v-203h-213v-805h-287v805h-150z" />
<glyph unicode="g" horiz-adv-x="1292" d="M66 500q0 235 142 387.5t361 152.5q93 0 181 -46t143 -120v144h287v-918q0 -528 -518 -528q-92 0 -179 18.5t-138 38.5t-122 54l88 206q106 -58 168 -76q73 -22 146 -22q153 0 210.5 80t57.5 240v32q-48 -73 -138 -118t-192 -45q-217 0 -357 146.5t-140 373.5zM358 502 q0 -128 76 -211.5t193 -83.5t192.5 84.5t75.5 212.5q0 136 -75.5 225.5t-192.5 89.5t-193 -90t-76 -227z" />
<glyph unicode="h" horiz-adv-x="1277" d="M141 0v1454h289v-575q61 74 148 117.5t180 43.5q88 0 158.5 -24t116 -63.5t76 -92.5t43.5 -108t13 -113v-639h-286v567q0 112 -43.5 181t-139.5 69q-108 0 -181 -76t-85 -200v-541h-289z" />
<glyph unicode="i" horiz-adv-x="583" d="M141 1280q0 65 45 110.5t111 45.5t111 -45.5t45 -110.5q0 -66 -45 -112t-111 -46t-111 46t-45 112zM154 0v1018h286v-1018h-286z" />
<glyph unicode="j" horiz-adv-x="571" d="M-119 -207q141 0 200.5 63.5t59.5 192.5v969h287v-987q-1 -96 -26 -173.5t-67.5 -128t-95.5 -86.5t-115.5 -53t-121.5 -23q-33 -3 -66 -3q-27 0 -55 2v227zM131 1280q0 65 44.5 110.5t109.5 45.5q66 0 110.5 -45.5t44.5 -110.5q0 -66 -44.5 -112t-110.5 -46t-110 46 t-44 112z" />
<glyph unicode="k" horiz-adv-x="1198" d="M141 0v1454h289v-813l377 377h362l-438 -418l449 -600h-351l-294 412l-105 -101v-311h-289z" />
<glyph unicode="l" horiz-adv-x="540" d="M141 0v1454h287v-1454h-287z" />
<glyph unicode="m" horiz-adv-x="1892" d="M131 0v1018h287v-139q119 161 323 161q118 0 201.5 -56.5t122.5 -156.5q21 38 51.5 72.5t74.5 67.5t104 53t128 20q167 0 262 -110.5t95 -290.5v-639h-287v567q0 122 -39 186t-131 64q-87 0 -149 -75t-76 -195v-547h-287v567q0 122 -39 186t-131 64q-88 0 -149.5 -75 t-73.5 -195v-547h-287z" />
<glyph unicode="n" horiz-adv-x="1265" d="M131 0v1018h287v-139q62 74 148.5 117.5t181.5 43.5q108 0 189.5 -36t126.5 -95.5t67 -127.5t22 -142v-639h-287v567q0 112 -43 181t-139 69q-108 0 -181 -76t-85 -200v-541h-287z" />
<glyph unicode="o" horiz-adv-x="1263" d="M66 508q0 152 73 274t202.5 190t291.5 68q246 0 405.5 -150t159.5 -382q0 -231 -160 -381t-407 -150q-246 0 -405.5 149.5t-159.5 381.5zM358 510q0 -141 78 -233.5t195 -92.5q118 0 197 93t79 233q0 139 -78.5 231.5t-197.5 92.5q-117 0 -195 -92t-78 -232z" />
<glyph unicode="p" horiz-adv-x="1320" d="M141 -406v1424h287v-144q55 74 143 120t181 46q219 0 361 -152.5t142 -387.5q0 -227 -140.5 -373.5t-358.5 -146.5q-102 0 -191 45t-137 118v-549h-287zM426 504q0 -128 75.5 -212.5t192.5 -84.5t193 83.5t76 211.5q0 137 -76 227t-193 90q-116 0 -192 -89.5t-76 -225.5z " />
<glyph unicode="q" horiz-adv-x="1310" d="M66 500q0 235 142 387.5t361 152.5q93 0 181 -46t143 -120v144h287v-1424h-287v549q-48 -73 -137 -118t-191 -45q-218 0 -358.5 146.5t-140.5 373.5zM358 502q0 -128 76 -211.5t193 -83.5t192.5 84.5t75.5 212.5q0 136 -75.5 225.5t-192.5 89.5t-193 -90t-76 -227z" />
<glyph unicode="r" horiz-adv-x="759" d="M131 0v1018h287v-164q48 79 131 132.5t192 53.5v-258q-55 0 -111 -19t-104 -53.5t-78 -88.5t-30 -117v-504h-287z" />
<glyph unicode="s" horiz-adv-x="950" d="M72 96l78 193q90 -51 166.5 -79t154.5 -28q63 0 97 21.5t34 58.5t-38.5 62t-160.5 77q-57 24 -92.5 41.5t-81.5 48t-72 61.5t-44.5 77.5t-18.5 101.5q0 141 105 225t282 84q171 0 355 -94l-70 -186q-168 80 -272 80q-58 0 -89.5 -23t-31.5 -65q0 -46 40.5 -74.5 t149.5 -73.5q45 -19 72 -31t64.5 -32t60 -36.5t48 -41t39 -49.5t23 -58t9.5 -71q0 -137 -104 -222.5t-294 -85.5q-227 0 -409 119z" />
<glyph unicode="t" horiz-adv-x="796" d="M16 805v213h162v178h283v-178h262v-213h-262v-385q0 -127 20.5 -167t100.5 -40q27 0 61 3t54 6l20 3v-231q-83 -17 -201 -17q-184 0 -261 93t-77 299v436h-162z" />
<glyph unicode="u" horiz-adv-x="1249" d="M113 379v639h288v-567q0 -72 16.5 -125.5t58 -89t106.5 -35.5q106 0 179.5 74t88.5 194v549h287v-1018h-289v139q-60 -74 -147.5 -118t-180.5 -44q-88 0 -158.5 24t-116 63.5t-76 93t-43.5 108.5t-13 113z" />
<glyph unicode="v" horiz-adv-x="1173" d="M16 1018h314l260 -737l262 737h303l-410 -1018h-319z" />
<glyph unicode="w" horiz-adv-x="1693" d="M16 1018h277l205 -705l239 705h219l238 -705l205 705h276l-350 -1018h-235l-244 702l-242 -702h-235z" />
<glyph unicode="x" horiz-adv-x="1153" d="M16 1018h324l235 -352l236 352h324l-390 -510l365 -508h-305l-238 344l-235 -344h-307l372 518z" />
<glyph unicode="y" horiz-adv-x="1169" d="M16 1018h308l262 -739l262 739h303l-420 -1018l-82 -197q-57 -136 -162.5 -197t-263.5 -69l-69 270q78 0 138 47.5t85 122.5l20 64z" />
<glyph unicode="z" horiz-adv-x="1083" d="M72 0v176l551 612h-517v230h889v-172l-542 -617h559v-229h-940z" />
<glyph unicode="{" horiz-adv-x="729" d="M121 500v168q86 0 120.5 43.5t34.5 150.5v205q0 66 15 120.5t42 91t63 64t78.5 39t89 16.5t93.5 -3v-178q-35 0 -62 -5t-45 -11.5t-30 -21t-18 -25.5t-9 -33t-3.5 -35t-0.5 -40v-10v-213q0 -135 -112 -239q112 -104 112 -240v-213q0 -84 11 -111q24 -64 137 -69h20v-178 q-57 -5 -111.5 -1.5t-103.5 27.5t-86 61t-58.5 99t-21.5 141v205q0 108 -34.5 151.5t-120.5 43.5z" />
<glyph unicode="|" horiz-adv-x="501" d="M143 -512v2048h215v-2048h-215z" />
<glyph unicode="}" horiz-adv-x="729" d="M70 -49q36 0 63 5t45 11.5t30.5 21t18.5 25t9 32.5t3.5 35t0.5 40v10v213q0 134 110 240q-110 106 -110 239v213v10q0 82 -15 112q-31 59 -155 59v178q74 10 140 -3t121.5 -49t88.5 -107t33 -169v-205q0 -107 34 -150.5t119 -43.5v-168q-85 0 -119 -44t-34 -151v-205 q0 -79 -22 -141t-59 -99t-86 -61t-104 -27.5t-112 1.5v178z" />
<glyph unicode="~" d="M63 393q-1 56 5 104t25.5 101t51.5 90t89 61.5t133 24.5q65 0 124.5 -18t102 -44t80.5 -52t77 -44t74 -18q76 0 102 39.5t23 144.5h221q3 -52 -5 -104.5t-31 -106.5t-58.5 -95.5t-94 -68t-132.5 -26.5q-66 0 -125.5 18t-102 44t-80.5 52t-77 44t-74 18q-63 0 -87 -37.5 t-17 -126.5h-224z" />
<glyph unicode="&#xa1;" horiz-adv-x="567" d="M109 827q0 74 50 125.5t122 51.5q74 0 126 -52t52 -125q0 -72 -52.5 -124t-125.5 -52q-72 0 -122 52t-50 124zM150 -399l18 936h227l19 -936h-264z" />
<glyph unicode="&#xa2;" d="M197 676q0 184 117.5 321t303.5 172v211h183v-204q117 -16 231 -80l-59 -168q-82 42 -172 51v-606q95 11 174 51l59 -168q-5 -2 -22.5 -11t-23.5 -12t-21.5 -10.5t-24 -10.5t-23.5 -9t-26.5 -8.5t-27 -6.5t-31.5 -6t-33 -4v-201h-183v205q-186 35 -303.5 172.5 t-117.5 321.5zM422 676q0 -90 53 -171t143 -114v572q-90 -34 -143 -115.5t-53 -171.5z" />
<glyph unicode="&#xa3;" d="M139 0v238q78 0 125.5 23.5t60.5 59.5t17.5 78.5t-3.5 80.5q-1 9 -1 14l-6 84h-193v200h183l-7 178q-4 201 117.5 310.5t321.5 109.5q175 0 309 -67l-62 -207q-99 47 -206 47t-162 -63t-55 -201l6 -107h307v-200h-297l6 -121q6 -117 -55 -221h540v-236h-946z" />
<glyph unicode="&#xa4;" horiz-adv-x="1232" d="M94 297l131 131q-71 107 -71 240q0 140 77 247l-137 136l144 145l147 -147q109 53 231 53q128 0 228 -53l151 147l144 -145l-138 -136q74 -110 74 -247q0 -136 -69 -240l131 -133l-144 -143l-141 143q-105 -57 -238 -57q-128 0 -235 55l-141 -139zM395 672 q0 -116 62 -190t157 -74q96 0 159 74.5t63 189.5q0 114 -63 188t-159 74q-94 0 -156.5 -74t-62.5 -188z" />
<glyph unicode="&#xa5;" d="M18 1331h271l325 -536l324 536h270l-415 -643h297v-133h-361v-115h361v-133h-361v-307h-246v307h-360v133h360v115h-360v133h311z" />
<glyph unicode="&#xa6;" horiz-adv-x="501" d="M143 356h215v-716h-215v716zM143 664v716h215v-716h-215z" />
<glyph unicode="&#xa7;" horiz-adv-x="970" d="M88 -12l70 176q174 -105 313 -105q92 0 143.5 35t51.5 80q0 44 -42 71.5t-198 94.5q-172 66 -244.5 141.5t-72.5 180.5q0 146 110 241q-108 89 -108 211q0 121 102.5 205t259.5 84q193 0 348 -88l-67 -172q-48 27 -129 53.5t-156 26.5q-60 0 -97.5 -25.5t-37.5 -71.5 q0 -23 12.5 -43t27.5 -34t50 -32t56.5 -27t70.5 -29q155 -62 206 -95q92 -60 111 -158q6 -32 6 -71q0 -60 -29 -124t-83 -112q121 -87 121 -217q0 -60 -23.5 -113.5t-70 -97.5t-124.5 -70t-178 -26q-66 0 -129.5 10.5t-108 25t-82 31.5t-55.5 27.5t-24 16.5zM322 670 q0 -23 9.5 -42t22.5 -31.5t40 -26.5t46.5 -22t59.5 -23t63 -25q101 34 101 121q0 62 -40 89.5t-208 90.5q-94 -29 -94 -131z" />
<glyph unicode="&#xa8;" horiz-adv-x="1024" d="M160 1305q0 53 40 93t93 40q54 0 94.5 -39.5t40.5 -93.5t-40.5 -95t-94.5 -41q-52 0 -92.5 41.5t-40.5 94.5zM596 1305q0 53 40.5 93t94.5 40q53 0 93 -39.5t40 -93.5t-40 -95t-93 -41q-54 0 -94.5 41.5t-40.5 94.5z" />
<glyph unicode="&#xa9;" horiz-adv-x="1531" d="M53 688q0 198 92.5 362t257 258.5t365.5 94.5q200 0 363.5 -94.5t255.5 -258.5t92 -362q0 -147 -53.5 -278t-147 -226.5t-226 -151t-284.5 -55.5t-285.5 55.5t-227.5 151t-148 226.5t-54 278zM227 688q0 -149 69.5 -271.5t193 -193.5t276.5 -71q230 0 382 154.5 t152 381.5q0 149 -69 272t-191.5 194t-273.5 71q-114 0 -214.5 -42t-171.5 -113.5t-112 -171t-41 -210.5zM403 690q0 158 113.5 267.5t282.5 109.5q114 0 229 -61l-53 -148q-76 39 -148 39q-58 0 -102 -21.5t-67.5 -55t-34.5 -67t-11 -65.5q0 -23 5.5 -48t21 -53.5 t38.5 -50.5t62 -36.5t88 -14.5q68 0 148 39l53 -151q-117 -62 -227 -62q-169 0 -283.5 110t-114.5 269z" />
<glyph unicode="&#xaa;" horiz-adv-x="765" d="M35 729q0 102 81.5 173t237.5 71q93 0 150 -19q-3 189 -152 189q-110 0 -202 -49l-56 137q52 25 132 40t155 15q313 0 313 -315v-441h-190v91l-6 -7q-6 -6 -12.5 -13t-18.5 -17.5t-25 -19.5t-32 -18.5t-39 -16t-46 -11t-53 -4.5q-109 0 -173 61.5t-64 153.5zM211 739 q0 -45 30 -68.5t78 -23.5q70 0 127.5 46.5t57.5 82.5v51q-42 21 -117 21q-78 0 -127 -26t-49 -83z" />
<glyph unicode="&#xab;" horiz-adv-x="1110" d="M35 518l317 379h252l-315 -379l315 -379h-252zM469 518l317 379h254l-315 -379l315 -379h-254z" />
<glyph unicode="&#xac;" d="M43 621v200h1147v-573h-201v373h-946z" />
<glyph unicode="&#xad;" horiz-adv-x="819" d="M102 449v219h615v-219h-615z" />
<glyph unicode="&#xae;" horiz-adv-x="1531" d="M53 688q0 198 92.5 362t257 258.5t365.5 94.5q200 0 363.5 -94.5t255.5 -258.5t92 -362q0 -147 -53.5 -278t-147 -226.5t-226 -151t-284.5 -55.5t-285.5 55.5t-227.5 151t-148 226.5t-54 278zM227 688q0 -149 69.5 -271.5t193 -193.5t276.5 -71q230 0 382 154.5 t152 381.5q0 149 -69 272t-191.5 194t-273.5 71q-114 0 -214.5 -42t-171.5 -113.5t-112 -171t-41 -210.5zM496 340v711h315q131 0 200.5 -55t69.5 -152q0 -71 -36 -125.5t-103 -85.5l166 -289h-197l-129 262h-94v-266h-192zM688 754h68q81 0 113 20t32 68q0 47 -31 65.5 t-114 18.5h-68v-172z" />
<glyph unicode="&#xaf;" horiz-adv-x="1024" d="M254 1200v164h512v-164h-512z" />
<glyph unicode="&#xb0;" horiz-adv-x="669" d="M53 1122q0 118 82 199.5t201 81.5q117 0 198.5 -81.5t81.5 -199.5q0 -117 -81.5 -198.5t-198.5 -81.5q-118 0 -200.5 81.5t-82.5 198.5zM227 1122q0 -46 31.5 -78t77.5 -32q44 0 76 32t32 78t-32 78.5t-76 32.5q-46 0 -77.5 -32.5t-31.5 -78.5z" />
<glyph unicode="&#xb1;" d="M45 0v221h1139v-221h-1139zM45 639v219h455v311h229v-311h455v-219h-455v-313h-229v313h-455z" />
<glyph unicode="&#xb2;" horiz-adv-x="765" d="M78 901v119q0 52 14 95.5t32 70t51 53t52.5 38t55.5 30.5q100 54 136 86t36 71t-29.5 63.5t-79.5 24.5q-88 0 -201 -65l-61 153q141 78 303 78q138 0 215.5 -60t77.5 -175q0 -94 -53 -153t-162 -118q-97 -53 -130.5 -80t-39.5 -65h401v-166h-618z" />
<glyph unicode="&#xb3;" horiz-adv-x="765" d="M74 946l53 148q39 -19 99.5 -33t105.5 -14q57 0 89 24.5t32 67.5q0 58 -61 91.5t-159 33.5h-26v139h26q81 0 139 25.5t58 72.5q0 31 -26 49.5t-70 18.5q-88 0 -180 -45l-48 137q9 5 45 17.5t104.5 26t129.5 13.5q128 0 199 -52.5t71 -137.5q0 -69 -46 -116.5t-115 -72.5 q34 -10 64.5 -26t61 -41.5t48.5 -65t18 -86.5q0 -105 -90.5 -167t-239.5 -62q-78 0 -155.5 16t-126.5 39z" />
<glyph unicode="&#xb4;" horiz-adv-x="1024" d="M412 1126l211 301h278l-283 -301h-206z" />
<glyph unicode="&#xb6;" horiz-adv-x="1372" d="M104 975q0 196 132.5 300.5t396.5 104.5h670v-170h-138v-1347h-186v1347h-137v-1347h-189v694h-20q-261 0 -395 110t-134 308z" />
<glyph unicode="&#xb7;" horiz-adv-x="505" d="M78 543q0 72 50 123t122 51q74 0 126 -51t52 -123q0 -73 -52 -124.5t-126 -51.5q-72 0 -122 51t-50 125z" />
<glyph unicode="&#xb8;" horiz-adv-x="1024" d="M297 -362l45 116q12 -10 44.5 -21.5t62.5 -11.5q77 0 77 46q0 31 -38 41t-123 10l65 182h164l-51 -100q60 -14 102.5 -54t42.5 -106q0 -73 -57 -118.5t-146 -45.5q-113 0 -188 62z" />
<glyph unicode="&#xb9;" horiz-adv-x="765" d="M104 1597l220 111h204v-807h-221v633l-149 -74z" />
<glyph unicode="&#xba;" horiz-adv-x="856" d="M35 897q0 161 114.5 274t278.5 113t278.5 -112.5t114.5 -272.5q0 -162 -114.5 -275.5t-278.5 -113.5t-278.5 113t-114.5 274zM219 897q0 -103 60.5 -173.5t148.5 -70.5t148.5 70.5t60.5 173.5t-60.5 173.5t-148.5 70.5t-148.5 -70.5t-60.5 -173.5z" />
<glyph unicode="&#xbb;" horiz-adv-x="1110" d="M70 139l315 379l-315 379h254l317 -379l-317 -379h-254zM506 139l315 379l-315 379h254l317 -379l-317 -379h-254z" />
<glyph unicode="&#xbc;" horiz-adv-x="1699" d="M61 1231l220 110h204v-806h-221v632l-149 -73zM270 -23l869 1377h204l-868 -1377h-205zM911 201v133l392 469h200v-459h84v-143h-84v-205h-207v205h-385zM1116 344h180v217z" />
<glyph unicode="&#xbd;" horiz-adv-x="1773" d="M59 1231l220 110h204v-806h-221v632l-149 -73zM250 -23l868 1377h205l-868 -1377h-205zM1034 0v119q0 52 14 95.5t32 70t51 53t52.5 38t55.5 30.5q100 54 136 86t36 71t-29 63.5t-79 24.5q-88 0 -201 -65l-62 153q141 78 303 78q138 0 215.5 -60t77.5 -175 q0 -94 -53 -153t-162 -118q-97 -53 -130.5 -80t-39.5 -65h402v-166h-619z" />
<glyph unicode="&#xbe;" horiz-adv-x="1814" d="M84 569l53 148q39 -19 99.5 -33t105.5 -14q57 0 89 24.5t32 67.5q0 58 -60.5 91.5t-158.5 33.5h-27v139h27q81 0 138.5 25.5t57.5 72.5q0 31 -26 49.5t-70 18.5q-88 0 -180 -45l-47 137q9 5 45 17.5t104 26t129 13.5q128 0 199.5 -53t71.5 -137q0 -69 -46.5 -116 t-115.5 -72q33 -10 64 -26t61.5 -42t48.5 -65.5t18 -86.5q0 -105 -90 -167t-239 -62q-78 0 -156.5 16t-126.5 39zM387 -23l868 1377h205l-868 -1377h-205zM1026 201v133l391 469h201v-459h84v-143h-84v-205h-207v205h-385zM1231 344h180v217z" />
<glyph unicode="&#xbf;" horiz-adv-x="948" d="M88 -51q0 62 22 117.5t48.5 90t70.5 83.5q10 11 15 16q93 105 125 175.5t32 152.5h269q0 -50 -4 -89.5t-17 -76t-21.5 -58t-34.5 -56t-38 -49t-49 -56.5q-77 -89 -107 -136.5t-30 -97.5q0 -55 35 -83.5t100 -28.5q102 0 284 92l72 -203q-109 -57 -206 -87t-210 -30 q-168 0 -262 92.5t-94 231.5zM362 874q0 74 52 125.5t125 51.5q72 0 122 -51.5t50 -125.5q0 -72 -50 -123t-122 -51q-73 0 -125 51t-52 123z" />
<glyph unicode="&#xc0;" horiz-adv-x="1392" d="M16 0l504 1380h352l504 -1380h-305l-135 391h-479l-135 -391h-306zM305 1759h279l211 -301h-207zM532 608h328l-164 477z" />
<glyph unicode="&#xc1;" horiz-adv-x="1392" d="M16 0l504 1380h352l504 -1380h-305l-135 391h-479l-135 -391h-306zM532 608h328l-164 477zM594 1458l211 301h278l-282 -301h-207z" />
<glyph unicode="&#xc2;" horiz-adv-x="1392" d="M16 0l504 1380h352l504 -1380h-305l-135 391h-479l-135 -391h-306zM373 1458l213 309h219l213 -309h-217l-107 164l-104 -164h-217zM532 608h328l-164 477z" />
<glyph unicode="&#xc3;" horiz-adv-x="1392" d="M16 0l504 1380h352l504 -1380h-305l-135 391h-479l-135 -391h-306zM354 1483q0 72 19 124t51 79t65.5 39t69.5 12q56 0 127.5 -35t110.5 -35q27 0 45 23.5t18 60.5h180q0 -71 -18.5 -123t-50 -79t-65 -39.5t-70.5 -12.5q-54 0 -125.5 35t-112.5 35q-27 0 -44 -22.5 t-17 -61.5h-183zM532 608h328l-164 477z" />
<glyph unicode="&#xc4;" horiz-adv-x="1392" d="M16 0l504 1380h352l504 -1380h-305l-135 391h-479l-135 -391h-306zM344 1636q0 52 40 92.5t93 40.5q54 0 94.5 -39.5t40.5 -93.5t-40.5 -94.5t-94.5 -40.5q-52 0 -92.5 41t-40.5 94zM532 608h328l-164 477zM780 1636q0 53 40.5 93t94.5 40q53 0 93.5 -39.5t40.5 -93.5 t-40.5 -94.5t-93.5 -40.5q-54 0 -94.5 41t-40.5 94z" />
<glyph unicode="&#xc5;" horiz-adv-x="1392" d="M16 0l504 1380h352l504 -1380h-305l-135 391h-479l-135 -391h-306zM479 1649q0 91 62 154t153 63q92 0 154.5 -63t62.5 -154q0 -90 -62.5 -152.5t-154.5 -62.5q-90 0 -152.5 62.5t-62.5 152.5zM532 608h328l-164 477zM596 1649q0 -41 28.5 -70t69.5 -29q44 0 72.5 28.5 t28.5 70.5q0 43 -28.5 71.5t-72.5 28.5q-41 0 -69.5 -28.5t-28.5 -71.5z" />
<glyph unicode="&#xc6;" horiz-adv-x="1931" d="M16 0l836 1380h989v-237h-606v-316h565v-235h-565v-354h623v-238h-910v391h-377l-233 -391h-322zM696 608h252v424z" />
<glyph unicode="&#xc7;" horiz-adv-x="1296" d="M66 690q0 149 55 281t151 227t231 150t288 55q218 0 432 -113l-80 -219q-57 39 -147.5 65.5t-176.5 26.5q-197 0 -323.5 -132t-126.5 -341t128 -342t328 -133q84 0 176 26.5t146 61.5l74 -211q-220 -113 -422 -115l-39 -77q60 -14 102.5 -54t42.5 -106q0 -73 -57 -118.5 t-146 -45.5q-113 0 -188 62l45 116q12 -10 44.5 -21.5t62.5 -11.5q77 0 77 46q0 31 -38 41t-123 10l61 174q-256 46 -416.5 239.5t-160.5 458.5z" />
<glyph unicode="&#xc8;" horiz-adv-x="1130" d="M145 0v1380h895v-237h-606v-316h565v-235h-565v-354h623v-238h-912zM248 1759h278l211 -301h-207z" />
<glyph unicode="&#xc9;" horiz-adv-x="1130" d="M145 0v1380h895v-237h-606v-316h565v-235h-565v-354h623v-238h-912zM492 1458l210 301h279l-283 -301h-206z" />
<glyph unicode="&#xca;" horiz-adv-x="1130" d="M145 0v1380h895v-237h-606v-316h565v-235h-565v-354h623v-238h-912zM270 1458l213 309h219l213 -309h-217l-106 164l-105 -164h-217z" />
<glyph unicode="&#xcb;" horiz-adv-x="1130" d="M145 0v1380h895v-237h-606v-316h565v-235h-565v-354h623v-238h-912zM250 1636q0 52 40 92.5t93 40.5q54 0 94.5 -39.5t40.5 -93.5t-40.5 -94.5t-94.5 -40.5q-52 0 -92.5 41t-40.5 94zM686 1636q0 53 40.5 93t94.5 40q53 0 93 -39.5t40 -93.5t-40 -94.5t-93 -40.5 q-54 0 -94.5 41t-40.5 94z" />
<glyph unicode="&#xcc;" horiz-adv-x="579" d="M-100 1759h278l211 -301h-207zM145 0v1380h287v-1380h-287z" />
<glyph unicode="&#xcd;" horiz-adv-x="577" d="M145 0v1380h287v-1380h-287zM182 1458l211 301h279l-283 -301h-207z" />
<glyph unicode="&#xce;" horiz-adv-x="577" d="M-35 1458l213 309h219l213 -309h-217l-106 164l-105 -164h-217zM145 0v1380h287v-1380h-287z" />
<glyph unicode="&#xcf;" horiz-adv-x="579" d="M-61 1636q0 52 40.5 92.5t92.5 40.5q54 0 94.5 -39.5t40.5 -93.5t-40.5 -94.5t-94.5 -40.5q-52 0 -92.5 41t-40.5 94zM145 0v1380h287v-1380h-287zM375 1636q0 53 40.5 93t94.5 40q53 0 93 -39.5t40 -93.5t-40 -94.5t-93 -40.5q-54 0 -94.5 41t-40.5 94z" />
<glyph unicode="&#xd0;" horiz-adv-x="1570" d="M16 590v225h164v565h537q354 0 571 -189.5t217 -500.5q0 -205 -98.5 -362t-277.5 -242.5t-412 -85.5h-537v590h-164zM469 225h227q110 0 198 27t144.5 72t93.5 106.5t52.5 125.5t15.5 134t-15.5 134t-52.5 126t-93.5 107.5t-144.5 73.5t-198 28h-227v-344h334v-225h-334 v-365z" />
<glyph unicode="&#xd1;" horiz-adv-x="1433" d="M125 0v1380h338l579 -934v934h265v-1380h-310l-606 993v-993h-266zM371 1483q0 72 19 124t50.5 79t65 39t69.5 12q56 0 127.5 -35t110.5 -35q27 0 45.5 23.5t18.5 60.5h180q0 -71 -19 -123t-50.5 -79t-65 -39.5t-70.5 -12.5q-54 0 -125.5 35t-112.5 35q-27 0 -44 -22.5 t-17 -61.5h-182z" />
<glyph unicode="&#xd2;" horiz-adv-x="1554" d="M66 690q0 120 34.5 229.5t99 197t151 152t196 99.5t229.5 35q200 0 363.5 -93t256.5 -256.5t93 -363.5t-93 -363.5t-256.5 -256.5t-363.5 -93q-120 0 -229.5 35t-196 99.5t-151 152t-99 197t-34.5 229.5zM371 690q0 -206 117 -344.5t290 -138.5t290.5 139t117.5 344 q0 206 -117.5 345t-290.5 139t-290 -139t-117 -345zM395 1759h279l211 -301h-207z" />
<glyph unicode="&#xd3;" horiz-adv-x="1554" d="M66 690q0 120 34.5 229.5t99 197t151 152t196 99.5t229.5 35q200 0 363.5 -93t256.5 -256.5t93 -363.5t-93 -363.5t-256.5 -256.5t-363.5 -93q-120 0 -229.5 35t-196 99.5t-151 152t-99 197t-34.5 229.5zM371 690q0 -206 117 -344.5t290 -138.5t290.5 139t117.5 344 q0 206 -117.5 345t-290.5 139t-290 -139t-117 -345zM676 1458l211 301h278l-282 -301h-207z" />
<glyph unicode="&#xd4;" horiz-adv-x="1554" d="M66 690q0 120 34.5 229.5t99 197t151 152t196 99.5t229.5 35q200 0 363.5 -93t256.5 -256.5t93 -363.5t-93 -363.5t-256.5 -256.5t-363.5 -93q-120 0 -229.5 35t-196 99.5t-151 152t-99 197t-34.5 229.5zM371 690q0 -206 117 -344.5t290 -138.5t290.5 139t117.5 344 q0 206 -117.5 345t-290.5 139t-290 -139t-117 -345zM446 1458l213 309h220l213 -309h-218l-106 164l-104 -164h-218z" />
<glyph unicode="&#xd5;" horiz-adv-x="1554" d="M66 690q0 120 34.5 229.5t99 197t151 152t196 99.5t229.5 35q200 0 363.5 -93t256.5 -256.5t93 -363.5t-93 -363.5t-256.5 -256.5t-363.5 -93q-120 0 -229.5 35t-196 99.5t-151 152t-99 197t-34.5 229.5zM371 690q0 -206 117 -344.5t290 -138.5t290.5 139t117.5 344 q0 206 -117.5 345t-290.5 139t-290 -139t-117 -345zM430 1483q0 72 19 124t51 79t65.5 39t69.5 12q56 0 127 -35t110 -35q27 0 45.5 23.5t18.5 60.5h180q0 -71 -19 -123t-50.5 -79t-65 -39.5t-70.5 -12.5q-54 0 -125 35t-112 35q-27 0 -44.5 -22.5t-17.5 -61.5h-182z" />
<glyph unicode="&#xd6;" horiz-adv-x="1554" d="M66 690q0 120 34.5 229.5t99 197t151 152t196 99.5t229.5 35q200 0 363.5 -93t256.5 -256.5t93 -363.5t-93 -363.5t-256.5 -256.5t-363.5 -93q-120 0 -229.5 35t-196 99.5t-151 152t-99 197t-34.5 229.5zM371 690q0 -206 117 -344.5t290 -138.5t290.5 139t117.5 344 q0 206 -117.5 345t-290.5 139t-290 -139t-117 -345zM424 1636q0 52 40 92.5t93 40.5q54 0 94.5 -39.5t40.5 -93.5t-40.5 -94.5t-94.5 -40.5q-52 0 -92.5 41t-40.5 94zM860 1636q0 53 40.5 93t94.5 40q53 0 93 -39.5t40 -93.5t-40 -94.5t-93 -40.5q-54 0 -94.5 41t-40.5 94z " />
<glyph unicode="&#xd7;" d="M27 156l430 432l-430 432l155 156l430 -435l432 435l156 -156l-432 -432l432 -432l-156 -156l-432 432l-430 -432z" />
<glyph unicode="&#xd8;" horiz-adv-x="1554" d="M66 690q0 120 34.5 229.5t99 197t151 152t196 99.5t229.5 35q215 0 385 -109l135 172l117 -92l-133 -172q100 -97 154.5 -228.5t54.5 -283.5q0 -200 -93 -363.5t-256.5 -256.5t-363.5 -93q-202 0 -377 101l-129 -162l-114 92l127 162q-103 99 -160 232.5t-57 287.5z M371 690q0 -169 84 -299l551 703q-99 80 -228 80q-173 0 -290 -139t-117 -345zM557 279q101 -72 221 -72q173 0 290.5 139t117.5 344q0 166 -80 291z" />
<glyph unicode="&#xd9;" horiz-adv-x="1490" d="M145 598v782h289v-737q0 -86 12 -154.5t34 -115.5t50.5 -79.5t66 -50.5t75 -26t82.5 -8q55 0 99.5 11t87 40.5t71 76.5t46 125t17.5 181v737h289v-782q0 -303 -157 -462t-453 -159t-452.5 158.5t-156.5 462.5zM379 1759h278l211 -301h-206z" />
<glyph unicode="&#xda;" horiz-adv-x="1490" d="M145 598v782h289v-737q0 -86 12 -154.5t34 -115.5t50.5 -79.5t66 -50.5t75 -26t82.5 -8q55 0 99.5 11t87 40.5t71 76.5t46 125t17.5 181v737h289v-782q0 -303 -157 -462t-453 -159t-452.5 158.5t-156.5 462.5zM635 1458l211 301h278l-282 -301h-207z" />
<glyph unicode="&#xdb;" horiz-adv-x="1490" d="M145 598v782h289v-737q0 -86 12 -154.5t34 -115.5t50.5 -79.5t66 -50.5t75 -26t82.5 -8q55 0 99.5 11t87 40.5t71 76.5t46 125t17.5 181v737h289v-782q0 -303 -157 -462t-453 -159t-452.5 158.5t-156.5 462.5zM428 1458l213 309h219l213 -309h-217l-106 164l-105 -164 h-217z" />
<glyph unicode="&#xdc;" horiz-adv-x="1490" d="M145 598v782h289v-737q0 -86 12 -154.5t34 -115.5t50.5 -79.5t66 -50.5t75 -26t82.5 -8q55 0 99.5 11t87 40.5t71 76.5t46 125t17.5 181v737h289v-782q0 -303 -157 -462t-453 -159t-452.5 158.5t-156.5 462.5zM406 1636q0 52 40 92.5t93 40.5q54 0 94.5 -39.5t40.5 -93.5 t-40.5 -94.5t-94.5 -40.5q-52 0 -92.5 41t-40.5 94zM842 1636q0 53 40.5 93t94.5 40q53 0 93 -39.5t40 -93.5t-40 -94.5t-93 -40.5q-54 0 -94.5 41t-40.5 94z" />
<glyph unicode="&#xdd;" horiz-adv-x="1290" d="M16 1380h332l316 -569l286 569h324l-475 -759v-621h-287v594zM543 1458l211 301h278l-282 -301h-207z" />
<glyph unicode="&#xde;" horiz-adv-x="1232" d="M145 0v1380h287v-229h180q266 0 410.5 -106t144.5 -300q0 -198 -147.5 -320t-407.5 -122h-180v-303h-287zM432 524h160q291 0 291 205q0 203 -291 203h-160v-408z" />
<glyph unicode="&#xdf;" horiz-adv-x="1236" d="M145 0v940q0 247 128.5 380.5t365.5 133.5q221 0 340 -101.5t119 -289.5q0 -109 -50.5 -191.5t-142.5 -123.5q124 -35 191 -127t67 -226q0 -201 -147 -303t-422 -92v211q135 0 206.5 46.5t71.5 135.5q0 97 -72 150t-206 53v248q109 0 167 49t58 143q0 95 -47.5 146 t-138.5 51q-95 0 -147 -61t-52 -175v-997h-289z" />
<glyph unicode="&#xe0;" horiz-adv-x="1112" d="M45 272q0 158 121 254.5t346 96.5q56 0 108.5 -5.5t77.5 -10.5l25 -5q0 127 -52 182.5t-167 55.5q-150 0 -314 -82l-71 184q93 46 208 72t220 26q219 0 335.5 -115.5t116.5 -316.5v-608h-276v131q-4 -6 -12.5 -16.5t-39 -37t-65 -47t-91.5 -37t-118 -16.5 q-162 0 -257 84.5t-95 210.5zM180 1427h279l211 -301h-207zM330 303q0 -54 38 -88.5t99 -34.5q51 0 100 18t82 43.5t53.5 52.5t20.5 46v80q-62 33 -166 33q-110 0 -168.5 -42.5t-58.5 -107.5z" />
<glyph unicode="&#xe1;" horiz-adv-x="1112" d="M45 272q0 158 121 254.5t346 96.5q56 0 108.5 -5.5t77.5 -10.5l25 -5q0 127 -52 182.5t-167 55.5q-150 0 -314 -82l-71 184q93 46 208 72t220 26q219 0 335.5 -115.5t116.5 -316.5v-608h-276v131q-4 -6 -12.5 -16.5t-39 -37t-65 -47t-91.5 -37t-118 -16.5 q-162 0 -257 84.5t-95 210.5zM330 303q0 -54 38 -88.5t99 -34.5q51 0 100 18t82 43.5t53.5 52.5t20.5 46v80q-62 33 -166 33q-110 0 -168.5 -42.5t-58.5 -107.5zM457 1126l211 301h278l-282 -301h-207z" />
<glyph unicode="&#xe2;" horiz-adv-x="1112" d="M45 272q0 158 121 254.5t346 96.5q56 0 108.5 -5.5t77.5 -10.5l25 -5q0 127 -52 182.5t-167 55.5q-150 0 -314 -82l-71 184q93 46 208 72t220 26q219 0 335.5 -115.5t116.5 -316.5v-608h-276v131q-4 -6 -12.5 -16.5t-39 -37t-65 -47t-91.5 -37t-118 -16.5 q-162 0 -257 84.5t-95 210.5zM223 1126l213 310h219l213 -310h-217l-106 164l-105 -164h-217zM330 303q0 -54 38 -88.5t99 -34.5q51 0 100 18t82 43.5t53.5 52.5t20.5 46v80q-62 33 -166 33q-110 0 -168.5 -42.5t-58.5 -107.5z" />
<glyph unicode="&#xe3;" horiz-adv-x="1112" d="M45 272q0 158 121 254.5t346 96.5q56 0 108.5 -5.5t77.5 -10.5l25 -5q0 127 -52 182.5t-167 55.5q-150 0 -314 -82l-71 184q93 46 208 72t220 26q219 0 335.5 -115.5t116.5 -316.5v-608h-276v131q-4 -6 -12.5 -16.5t-39 -37t-65 -47t-91.5 -37t-118 -16.5 q-162 0 -257 84.5t-95 210.5zM205 1165q0 72 19 124t51 79t65.5 39t69.5 12q56 0 127 -34.5t110 -34.5q27 0 45.5 23.5t18.5 60.5h180q0 -71 -19 -123t-50.5 -79t-65 -39.5t-70.5 -12.5q-54 0 -125 34.5t-112 34.5q-27 0 -44.5 -22.5t-17.5 -61.5h-182zM330 303 q0 -54 38 -88.5t99 -34.5q51 0 100 18t82 43.5t53.5 52.5t20.5 46v80q-62 33 -166 33q-110 0 -168.5 -42.5t-58.5 -107.5z" />
<glyph unicode="&#xe4;" horiz-adv-x="1112" d="M45 272q0 158 121 254.5t346 96.5q56 0 108.5 -5.5t77.5 -10.5l25 -5q0 127 -52 182.5t-167 55.5q-150 0 -314 -82l-71 184q93 46 208 72t220 26q219 0 335.5 -115.5t116.5 -316.5v-608h-276v131q-4 -6 -12.5 -16.5t-39 -37t-65 -47t-91.5 -37t-118 -16.5 q-162 0 -257 84.5t-95 210.5zM201 1305q0 53 40.5 93t92.5 40q54 0 94.5 -39.5t40.5 -93.5t-40.5 -95t-94.5 -41q-52 0 -92.5 41.5t-40.5 94.5zM330 303q0 -54 38 -88.5t99 -34.5q51 0 100 18t82 43.5t53.5 52.5t20.5 46v80q-62 33 -166 33q-110 0 -168.5 -42.5 t-58.5 -107.5zM637 1305q0 53 40.5 93t94.5 40q53 0 93 -39.5t40 -93.5t-40 -95t-93 -41q-54 0 -94.5 41.5t-40.5 94.5z" />
<glyph unicode="&#xe5;" horiz-adv-x="1112" d="M45 272q0 158 121 254.5t346 96.5q56 0 108.5 -5.5t77.5 -10.5l25 -5q0 127 -52 182.5t-167 55.5q-150 0 -314 -82l-71 184q93 46 208 72t220 26q219 0 335.5 -115.5t116.5 -316.5v-608h-276v131q-4 -6 -12.5 -16.5t-39 -37t-65 -47t-91.5 -37t-118 -16.5 q-162 0 -257 84.5t-95 210.5zM330 303q0 -54 38 -88.5t99 -34.5q51 0 100 18t82 43.5t53.5 52.5t20.5 46v80q-62 33 -166 33q-110 0 -168.5 -42.5t-58.5 -107.5zM340 1315q0 91 62 154t153 63q92 0 154.5 -63t62.5 -154q0 -90 -62.5 -152.5t-154.5 -62.5q-90 0 -152.5 62.5 t-62.5 152.5zM457 1315q0 -41 28.5 -69.5t69.5 -28.5q44 0 72 28t28 70q0 43 -28 71.5t-72 28.5q-41 0 -69.5 -28.5t-28.5 -71.5z" />
<glyph unicode="&#xe6;" horiz-adv-x="1794" d="M45 272q0 158 121 254.5t346 96.5q56 0 108.5 -5.5t77.5 -10.5l25 -5q0 127 -52 182.5t-167 55.5q-150 0 -314 -82l-71 184q94 46 208 72t220 26q226 0 334 -137q140 137 362 137q247 0 385.5 -166.5t118.5 -445.5h-750q21 -126 102 -178.5t226 -52.5q86 0 164.5 16.5 t114.5 33.5l36 17l68 -192q-6 -4 -17.5 -10.5t-51 -22.5t-83 -28.5t-111 -23t-136.5 -10.5q-306 0 -471 187q-21 -27 -55.5 -55t-88 -60t-132 -52t-165.5 -20q-162 0 -257 84.5t-95 210.5zM330 303q0 -54 38 -88.5t99 -34.5q51 0 100 18t82 43.5t53.5 52.5t20.5 46v80 q-62 33 -166 33q-110 0 -168.5 -42.5t-58.5 -107.5zM999 627h482q-13 90 -76 154.5t-164 64.5q-194 0 -242 -219z" />
<glyph unicode="&#xe7;" horiz-adv-x="1001" d="M66 508q0 231 156 381.5t396 150.5q105 0 196.5 -27.5t141.5 -64.5l-69 -196q-46 29 -110.5 48t-123.5 19q-131 0 -212 -86t-81 -223q0 -141 82.5 -224t214.5 -83q124 0 226 57l69 -188q-50 -33 -131 -60t-174 -32l-41 -80q61 -14 103.5 -54t42.5 -106q0 -73 -57 -118.5 t-146 -45.5q-114 0 -189 62l46 116q12 -10 44 -21.5t62 -11.5q78 0 78 46q0 31 -38 41t-124 10l61 170q-190 37 -306.5 178.5t-116.5 341.5z" />
<glyph unicode="&#xe8;" horiz-adv-x="1138" d="M66 500q0 106 34 202.5t98 172t165.5 120.5t226.5 45q249 0 386 -166.5t114 -445.5h-748q21 -125 102.5 -178t227.5 -53q87 0 165.5 16.5t114.5 33.5l35 17l68 -192q-6 -4 -17.5 -10.5t-51 -22.5t-83 -28.5t-111.5 -23t-139 -10.5q-146 0 -260 41.5t-184.5 114 t-106.5 166t-36 201.5zM229 1427h279l211 -301h-207zM348 623h475q-10 92 -72 157.5t-163 65.5q-194 0 -240 -223z" />
<glyph unicode="&#xe9;" horiz-adv-x="1138" d="M66 500q0 106 34 202.5t98 172t165.5 120.5t226.5 45q249 0 386 -166.5t114 -445.5h-748q21 -125 102.5 -178t227.5 -53q87 0 165.5 16.5t114.5 33.5l35 17l68 -192q-6 -4 -17.5 -10.5t-51 -22.5t-83 -28.5t-111.5 -23t-139 -10.5q-146 0 -260 41.5t-184.5 114 t-106.5 166t-36 201.5zM348 623h475q-10 92 -72 157.5t-163 65.5q-194 0 -240 -223zM446 1126l211 301h279l-283 -301h-207z" />
<glyph unicode="&#xea;" horiz-adv-x="1138" d="M66 500q0 106 34 202.5t98 172t165.5 120.5t226.5 45q249 0 386 -166.5t114 -445.5h-748q21 -125 102.5 -178t227.5 -53q87 0 165.5 16.5t114.5 33.5l35 17l68 -192q-6 -4 -17.5 -10.5t-51 -22.5t-83 -28.5t-111.5 -23t-139 -10.5q-146 0 -260 41.5t-184.5 114 t-106.5 166t-36 201.5zM287 1126l213 310h219l213 -310h-217l-107 164l-104 -164h-217zM348 623h475q-10 92 -72 157.5t-163 65.5q-194 0 -240 -223z" />
<glyph unicode="&#xeb;" horiz-adv-x="1138" d="M66 500q0 106 34 202.5t98 172t165.5 120.5t226.5 45q249 0 386 -166.5t114 -445.5h-748q21 -125 102.5 -178t227.5 -53q87 0 165.5 16.5t114.5 33.5l35 17l68 -192q-6 -4 -17.5 -10.5t-51 -22.5t-83 -28.5t-111.5 -23t-139 -10.5q-146 0 -260 41.5t-184.5 114 t-106.5 166t-36 201.5zM260 1305q0 53 40 93t93 40q54 0 94.5 -39.5t40.5 -93.5t-40.5 -95t-94.5 -41q-52 0 -92.5 41.5t-40.5 94.5zM348 623h475q-10 92 -72 157.5t-163 65.5q-194 0 -240 -223zM696 1305q0 53 40.5 93t94.5 40q53 0 93.5 -39.5t40.5 -93.5t-40.5 -95 t-93.5 -41q-54 0 -94.5 41.5t-40.5 94.5z" />
<glyph unicode="&#xec;" horiz-adv-x="602" d="M-90 1427h278l211 -301h-206zM158 0v1018h286v-1018h-286z" />
<glyph unicode="&#xed;" horiz-adv-x="602" d="M158 0v1018h286v-1018h-286zM203 1126l211 301h278l-282 -301h-207z" />
<glyph unicode="&#xee;" horiz-adv-x="602" d="M-20 1126l213 310h219l213 -310h-217l-107 164l-104 -164h-217zM158 0v1018h286v-1018h-286z" />
<glyph unicode="&#xef;" horiz-adv-x="602" d="M-51 1305q0 53 40.5 93t92.5 40q54 0 94.5 -39.5t40.5 -93.5t-40.5 -95t-94.5 -41q-52 0 -92.5 41.5t-40.5 94.5zM158 0v1018h286v-1018h-286zM385 1305q0 53 40.5 93t94.5 40q53 0 93 -39.5t40 -93.5t-40 -95t-93 -41q-54 0 -94.5 41.5t-40.5 94.5z" />
<glyph unicode="&#xf0;" d="M66 502q0 231 132.5 369.5t352.5 138.5q140 0 250 -56q-59 121 -172 220l-318 -119l-51 135l223 82q-91 50 -200 67l77 213q230 -44 418 -176l221 82l50 -135l-146 -55q126 -129 193 -300t67 -350q0 -137 -38.5 -254t-110.5 -203t-181.5 -135t-244.5 -49 q-235 0 -378.5 142t-143.5 383zM358 492q0 -140 64.5 -221t171.5 -81q90 0 154.5 60.5t95 158t30.5 220.5q0 49 -6 102q-117 72 -241 72q-126 0 -197.5 -82t-71.5 -229z" />
<glyph unicode="&#xf1;" horiz-adv-x="1265" d="M131 0v1018h287v-139q62 74 148.5 117.5t181.5 43.5q108 0 189.5 -36t126.5 -95.5t67 -127.5t22 -142v-639h-287v567q0 112 -43 181t-139 69q-108 0 -181 -76t-85 -200v-541h-287zM305 1165q0 72 19 124t51 79t65.5 39t69.5 12q56 0 127.5 -34.5t110.5 -34.5q27 0 45 23 t18 61h180q0 -71 -19 -123t-50.5 -79t-65 -39.5t-70.5 -12.5q-54 0 -125 34.5t-112 34.5q-27 0 -44.5 -22.5t-17.5 -61.5h-182z" />
<glyph unicode="&#xf2;" horiz-adv-x="1263" d="M66 508q0 152 73 274t202.5 190t291.5 68q246 0 405.5 -150t159.5 -382q0 -231 -160 -381t-407 -150q-246 0 -405.5 149.5t-159.5 381.5zM246 1427h278l211 -301h-207zM358 510q0 -141 78 -233.5t195 -92.5q118 0 197 93t79 233q0 139 -78.5 231.5t-197.5 92.5 q-117 0 -195 -92t-78 -232z" />
<glyph unicode="&#xf3;" horiz-adv-x="1263" d="M66 508q0 152 73 274t202.5 190t291.5 68q246 0 405.5 -150t159.5 -382q0 -231 -160 -381t-407 -150q-246 0 -405.5 149.5t-159.5 381.5zM358 510q0 -141 78 -233.5t195 -92.5q118 0 197 93t79 233q0 139 -78.5 231.5t-197.5 92.5q-117 0 -195 -92t-78 -232zM535 1126 l210 301h279l-283 -301h-206z" />
<glyph unicode="&#xf4;" horiz-adv-x="1263" d="M66 508q0 152 73 274t202.5 190t291.5 68q246 0 405.5 -150t159.5 -382q0 -231 -160 -381t-407 -150q-246 0 -405.5 149.5t-159.5 381.5zM315 1126l213 310h220l213 -310h-218l-106 164l-105 -164h-217zM358 510q0 -141 78 -233.5t195 -92.5q118 0 197 93t79 233 q0 139 -78.5 231.5t-197.5 92.5q-117 0 -195 -92t-78 -232z" />
<glyph unicode="&#xf5;" horiz-adv-x="1263" d="M66 508q0 152 73 274t202.5 190t291.5 68q246 0 405.5 -150t159.5 -382q0 -231 -160 -381t-407 -150q-246 0 -405.5 149.5t-159.5 381.5zM293 1165q0 72 19 124t51 79t65.5 39t69.5 12q56 0 127 -34.5t110 -34.5q27 0 45.5 23.5t18.5 60.5h180q0 -71 -19 -123t-50.5 -79 t-65 -39.5t-70.5 -12.5q-54 0 -125 34.5t-112 34.5q-27 0 -44.5 -22.5t-17.5 -61.5h-182zM358 510q0 -141 78 -233.5t195 -92.5q118 0 197 93t79 233q0 139 -78.5 231.5t-197.5 92.5q-117 0 -195 -92t-78 -232z" />
<glyph unicode="&#xf6;" horiz-adv-x="1263" d="M66 508q0 152 73 274t202.5 190t291.5 68q246 0 405.5 -150t159.5 -382q0 -231 -160 -381t-407 -150q-246 0 -405.5 149.5t-159.5 381.5zM285 1305q0 53 40.5 93t92.5 40q54 0 94.5 -39.5t40.5 -93.5t-40.5 -95t-94.5 -41q-52 0 -92.5 41.5t-40.5 94.5zM358 510 q0 -141 78 -233.5t195 -92.5q118 0 197 93t79 233q0 139 -78.5 231.5t-197.5 92.5q-117 0 -195 -92t-78 -232zM721 1305q0 53 40.5 93t94.5 40q53 0 93 -39.5t40 -93.5t-40 -95t-93 -41q-54 0 -94.5 41.5t-40.5 94.5z" />
<glyph unicode="&#xf7;" d="M45 436v221h1139v-221h-1139zM485 139q0 55 40.5 98.5t95.5 43.5t98 -44t43 -98q0 -55 -42.5 -97t-98.5 -42q-55 0 -95.5 41.5t-40.5 97.5zM485 950q0 55 40.5 97.5t95.5 42.5t98 -43t43 -97q0 -56 -43 -98.5t-98 -42.5t-95.5 42.5t-40.5 98.5z" />
<glyph unicode="&#xf8;" horiz-adv-x="1263" d="M66 508q0 152 73 274t202.5 190t291.5 68q157 0 287 -65l77 98l95 -76l-72 -90q85 -73 131.5 -175.5t46.5 -223.5q0 -231 -160 -381t-407 -150q-155 0 -287 66l-102 -129l-97 76l97 123q-176 149 -176 395zM358 510q0 -109 48 -188l368 469q-65 43 -143 43 q-117 0 -195 -92t-78 -232zM489 229q61 -45 142 -45q118 0 197 93t79 233q0 106 -49 190z" />
<glyph unicode="&#xf9;" horiz-adv-x="1249" d="M113 379v639h288v-567q0 -72 16.5 -125.5t58 -89t106.5 -35.5q106 0 179.5 74t88.5 194v549h287v-1018h-289v139q-60 -74 -147.5 -118t-180.5 -44q-88 0 -158.5 24t-116 63.5t-76 93t-43.5 108.5t-13 113zM242 1427h278l211 -301h-207z" />
<glyph unicode="&#xfa;" horiz-adv-x="1249" d="M113 379v639h288v-567q0 -72 16.5 -125.5t58 -89t106.5 -35.5q106 0 179.5 74t88.5 194v549h287v-1018h-289v139q-60 -74 -147.5 -118t-180.5 -44q-88 0 -158.5 24t-116 63.5t-76 93t-43.5 108.5t-13 113zM516 1126l211 301h279l-283 -301h-207z" />
<glyph unicode="&#xfb;" horiz-adv-x="1249" d="M113 379v639h288v-567q0 -72 16.5 -125.5t58 -89t106.5 -35.5q106 0 179.5 74t88.5 194v549h287v-1018h-289v139q-60 -74 -147.5 -118t-180.5 -44q-88 0 -158.5 24t-116 63.5t-76 93t-43.5 108.5t-13 113zM303 1126l213 310h219l213 -310h-217l-106 164l-105 -164h-217z " />
<glyph unicode="&#xfc;" horiz-adv-x="1249" d="M113 379v639h288v-567q0 -72 16.5 -125.5t58 -89t106.5 -35.5q106 0 179.5 74t88.5 194v549h287v-1018h-289v139q-60 -74 -147.5 -118t-180.5 -44q-88 0 -158.5 24t-116 63.5t-76 93t-43.5 108.5t-13 113zM268 1305q0 53 40 93t93 40q54 0 95 -39.5t41 -93.5t-41 -95 t-95 -41q-52 0 -92.5 41.5t-40.5 94.5zM705 1305q0 53 40.5 93t94.5 40q53 0 93 -39.5t40 -93.5t-40 -95t-93 -41q-54 0 -94.5 41.5t-40.5 94.5z" />
<glyph unicode="&#xfd;" horiz-adv-x="1169" d="M16 1018h308l262 -739l262 739h303l-420 -1018l-82 -197q-57 -136 -162.5 -197t-263.5 -69l-69 270q78 0 138 47.5t85 122.5l20 64zM477 1126l211 301h279l-283 -301h-207z" />
<glyph unicode="&#xfe;" horiz-adv-x="1320" d="M141 -406v1860h287v-580q55 74 143 120t181 46q219 0 361 -152.5t142 -387.5q0 -227 -140.5 -373.5t-358.5 -146.5q-102 0 -191 45t-137 118v-549h-287zM426 504q0 -128 75.5 -212.5t192.5 -84.5t193 83.5t76 211.5q0 137 -76 227t-193 90q-116 0 -192 -89.5t-76 -225.5z " />
<glyph unicode="&#xff;" horiz-adv-x="1169" d="M16 1018h308l262 -739l262 739h303l-420 -1018l-82 -197q-57 -136 -162.5 -197t-263.5 -69l-69 270q78 0 138 47.5t85 122.5l20 64zM233 1305q0 52 40.5 92.5t93.5 40.5q54 0 94.5 -39.5t40.5 -93.5t-40.5 -95t-94.5 -41q-52 0 -93 41.5t-41 94.5zM670 1305q0 53 40.5 93 t94.5 40q53 0 93 -39.5t40 -93.5t-40 -95t-93 -41q-54 0 -94.5 41.5t-40.5 94.5z" />
<glyph unicode="&#x152;" horiz-adv-x="1849" d="M66 690q0 145 54.5 273t149 219.5t226.5 144.5t282 53h981v-237h-606v-316h565v-235h-565v-354h623v-238h-998q-150 0 -282 52.5t-226.5 144t-149 219.5t-54.5 274zM371 688q0 -125 50.5 -227t144.5 -162.5t212 -60.5h86v905h-86q-179 0 -293 -131t-114 -324z" />
<glyph unicode="&#x153;" horiz-adv-x="1972" d="M66 508q0 230 160.5 381t406.5 151q262 0 403 -182q132 182 387 182q249 0 387 -167t115 -445h-747q18 -123 100 -177t227 -54q55 0 107.5 7t88.5 16.5t64.5 19.5t42.5 17l13 7l69 -192q-6 -4 -18 -10.5t-51.5 -22.5t-83 -28.5t-111.5 -23t-139 -10.5q-304 0 -451 183 q-142 -183 -405 -183q-246 0 -405.5 149.5t-159.5 381.5zM362 510q0 -141 76 -233.5t193 -92.5q118 0 194 93t76 233t-76 232t-194 92q-117 0 -193 -91.5t-76 -232.5zM1182 623h477q-10 91 -73 157t-163 66q-196 0 -241 -223z" />
<glyph unicode="&#x178;" horiz-adv-x="1290" d="M16 1380h332l316 -569l286 569h324l-475 -759v-621h-287v594zM297 1636q0 52 40.5 92.5t92.5 40.5q54 0 94.5 -39.5t40.5 -93.5t-40.5 -94.5t-94.5 -40.5q-52 0 -92.5 41t-40.5 94zM733 1636q0 53 40.5 93t94.5 40q53 0 93 -39.5t40 -93.5t-40 -94.5t-93 -40.5 q-54 0 -94.5 41t-40.5 94z" />
<glyph unicode="&#x2c6;" horiz-adv-x="1024" d="M190 1126l213 310h220l213 -310h-218l-106 164l-104 -164h-218z" />
<glyph unicode="&#x2dc;" horiz-adv-x="1024" d="M170 1165q0 72 19 124t51 79t65.5 39t69.5 12q56 0 127 -34.5t110 -34.5q27 0 45.5 23.5t18.5 60.5h180q0 -71 -19 -123t-50.5 -79t-65 -39.5t-70.5 -12.5q-54 0 -125 34.5t-112 34.5q-27 0 -44.5 -22.5t-17.5 -61.5h-182z" />
<glyph unicode="&#x2000;" horiz-adv-x="933" />
<glyph unicode="&#x2001;" horiz-adv-x="1866" />
<glyph unicode="&#x2002;" horiz-adv-x="933" />
<glyph unicode="&#x2003;" horiz-adv-x="1866" />
<glyph unicode="&#x2004;" horiz-adv-x="622" />
<glyph unicode="&#x2005;" horiz-adv-x="466" />
<glyph unicode="&#x2006;" horiz-adv-x="311" />
<glyph unicode="&#x2007;" horiz-adv-x="311" />
<glyph unicode="&#x2008;" horiz-adv-x="233" />
<glyph unicode="&#x2009;" horiz-adv-x="373" />
<glyph unicode="&#x200a;" horiz-adv-x="103" />
<glyph unicode="&#x2010;" horiz-adv-x="819" d="M102 449v219h615v-219h-615z" />
<glyph unicode="&#x2011;" horiz-adv-x="819" d="M102 449v219h615v-219h-615z" />
<glyph unicode="&#x2012;" horiz-adv-x="819" d="M102 449v219h615v-219h-615z" />
<glyph unicode="&#x2013;" horiz-adv-x="1024" d="M102 449v219h820v-219h-820z" />
<glyph unicode="&#x2014;" horiz-adv-x="2048" d="M102 449v219h1844v-219h-1844z" />
<glyph unicode="&#x2018;" horiz-adv-x="626" d="M102 850q0 83 24 172t58 156.5t68 123.5t58 86l24 29h190q-7 -11 -17.5 -31t-38.5 -83t-48.5 -126.5t-36 -153.5t-12.5 -173h-269z" />
<glyph unicode="&#x2019;" horiz-adv-x="626" d="M102 850q6 11 16.5 32t37 84.5t47 127.5t37 153.5t16.5 169.5h268q0 -81 -23.5 -169.5t-57 -156.5t-67.5 -124.5t-58 -86.5l-23 -30h-193z" />
<glyph unicode="&#x201a;" horiz-adv-x="677" d="M102 -272l174 589h299l-266 -589h-207z" />
<glyph unicode="&#x201c;" horiz-adv-x="1028" d="M102 850q0 83 24 172t58 156.5t68 123.5t58 86l24 29h190q-7 -11 -17.5 -31t-38.5 -83t-48.5 -126.5t-36 -153.5t-12.5 -173h-269zM504 850q0 83 24 172t58 156.5t67.5 123.5t57.5 86l24 29h191q-7 -11 -18 -31t-39 -83t-49 -126.5t-37 -153.5t-13 -173h-266z" />
<glyph unicode="&#x201d;" horiz-adv-x="1028" d="M102 850q7 11 18 31t38.5 83t48 126.5t36.5 153.5t13 173h268q0 -83 -24 -172t-58 -156.5t-67.5 -123.5t-57.5 -85l-24 -30h-191zM504 850q7 11 17.5 31t38.5 83t48.5 126.5t36 153.5t12.5 173h269q0 -83 -24 -172t-58.5 -156.5t-69 -123.5t-58.5 -85l-24 -30h-188z" />
<glyph unicode="&#x201e;" horiz-adv-x="1095" d="M102 -272l174 589h299l-266 -589h-207zM522 -272l174 589h297l-266 -589h-205z" />
<glyph unicode="&#x2022;" horiz-adv-x="702" d="M88 559q0 111 75 187.5t187 76.5q113 0 188.5 -76.5t75.5 -187.5q0 -110 -75.5 -186t-188.5 -76q-112 0 -187 76t-75 186z" />
<glyph unicode="&#x2026;" horiz-adv-x="2002" d="M104 154q0 72 50 124t122 52q73 0 126 -52t53 -124q0 -73 -52.5 -125t-126.5 -52q-72 0 -122 51.5t-50 125.5zM827 154q0 72 50 124t122 52q73 0 126 -52t53 -124q0 -73 -52.5 -125t-126.5 -52q-72 0 -122 51.5t-50 125.5zM1548 154q0 72 50 124t122 52q73 0 125.5 -52 t52.5 -124q0 -73 -52 -125t-126 -52q-72 0 -122 51.5t-50 125.5z" />
<glyph unicode="&#x202f;" horiz-adv-x="373" />
<glyph unicode="&#x2039;" horiz-adv-x="675" d="M35 518l317 379h252l-315 -379l315 -379h-252z" />
<glyph unicode="&#x203a;" horiz-adv-x="675" d="M70 139l315 379l-315 379h254l317 -379l-317 -379h-254z" />
<glyph unicode="&#x205f;" horiz-adv-x="466" />
<glyph unicode="&#x20ac;" d="M-49 461l55 153h146l-2 52q0 23 4 69h-185l54 154h161q68 210 247.5 337.5t418.5 127.5q210 0 416 -109l-76 -211q-56 37 -143.5 62.5t-169.5 25.5q-130 0 -231.5 -62t-156.5 -171h648l-56 -154h-637q-4 -46 -4 -69q0 -36 2 -52h596l-55 -153h-502q52 -117 158 -184.5 t244 -67.5q82 0 170 24.5t141 57.5l72 -203q-213 -111 -416 -111q-244 0 -426 133.5t-246 350.5h-227z" />
<glyph unicode="&#x2122;" horiz-adv-x="1302" d="M35 1255v125h475v-125h-168v-432h-139v432h-168zM578 823v557h182l145 -356l146 356h182v-557h-156v305l-129 -305h-94l-127 305v-305h-149z" />
<glyph unicode="&#x25fc;" horiz-adv-x="1013" d="M0 0v1014h1014v-1014h-1014z" />
</font>
</defs>
</svg>
