<?xml version="1.0" standalone="no"?>
<!DOCTYPE svg PUBLIC "-//W3C//DTD SVG 1.1//EN" "http://www.w3.org/Graphics/SVG/1.1/DTD/svg11.dtd" >
<svg xmlns="http://www.w3.org/2000/svg">
<metadata></metadata>
<defs>
<font id="ortodoxabold_italic" horiz-adv-x="1239" >
<font-face units-per-em="2048" ascent="1536" descent="-512" />
<missing-glyph horiz-adv-x="610" />
<glyph unicode="&#xfb01;" horiz-adv-x="1306" d="M70 0l161 827h-149l33 174h149l15 70q38 200 167 303t342 103q79 0 148 -13l-37 -194q-73 12 -139 12q-115 0 -168.5 -56.5t-79.5 -185.5l-8 -39h241l-32 -174h-242l-162 -827h-239zM813 0l197 1006h237l-196 -1006h-238zM1051 1300q9 50 50 85.5t93 35.5q63 0 98 -45 t23 -108q-9 -51 -51 -86t-95 -35q-62 0 -96 44.5t-22 108.5z" />
<glyph unicode="&#xfb02;" horiz-adv-x="1261" d="M70 0l161 827h-149l33 174h149l15 70q38 200 167 303t342 103q79 0 148 -13l-37 -194q-73 12 -139 12q-115 0 -168.5 -56.5t-79.5 -185.5l-8 -39h241l-32 -174h-242l-162 -827h-239zM801 0l282 1454h240l-283 -1454h-239z" />
<glyph horiz-adv-x="0" />
<glyph horiz-adv-x="682" />
<glyph unicode="&#xd;" horiz-adv-x="610" />
<glyph unicode=" "  horiz-adv-x="610" />
<glyph unicode="&#x09;" horiz-adv-x="610" />
<glyph unicode="&#xa0;" horiz-adv-x="610" />
<glyph unicode="!" horiz-adv-x="542" d="M49 152q11 56 59.5 97.5t106.5 41.5q69 0 110 -51.5t27 -120.5q-10 -58 -60.5 -100t-109.5 -42q-69 0 -108.5 52t-24.5 123zM156 422l168 958h233l-205 -958h-196z" />
<glyph unicode="&#x22;" horiz-adv-x="825" d="M233 881l68 536h238l-144 -536h-162zM602 881l66 536h237l-143 -536h-160z" />
<glyph unicode="#" horiz-adv-x="1228" d="M106 389l31 148h207l84 264h-192l30 147h213l125 383h160l-125 -383h207l125 383h159l-124 -383h180l-29 -147h-201l-86 -264h187l-29 -148h-207l-129 -389h-160l127 389h-204l-127 -389h-160l125 389h-187zM502 537h207l84 264h-205z" />
<glyph unicode="$" horiz-adv-x="1226" d="M115 160l92 164q66 -47 127.5 -75t142.5 -36l76 389q-164 75 -227 158.5t-39 208.5q28 142 136 232.5t267 105.5l37 198h152l-39 -198q155 -16 280 -95l-94 -161q-124 60 -221 77l-72 -370q45 -21 78.5 -37.5t66.5 -36t56 -38t43 -39.5t31.5 -43.5t18.5 -49t6.5 -56.5 t-7.5 -65q-30 -146 -143 -244t-291 -116l-39 -209h-152l41 211q-107 11 -192.5 46t-134.5 79zM508 977q-10 -47 12 -81.5t76 -68.5l57 295q-54 -14 -94 -51.5t-51 -93.5zM629 221q73 17 119.5 60.5t58.5 103.5q10 51 -17 83.5t-100 70.5z" />
<glyph unicode="%" horiz-adv-x="2056" d="M295 956q34 175 140 286.5t241 111.5q148 0 219.5 -121t34.5 -309q-34 -175 -141.5 -286.5t-243.5 -111.5q-146 0 -216.5 121t-33.5 309zM391 -23l1137 1377h180l-1135 -1377h-182zM465 728q19 -73 76 -73q70 0 129.5 83t85.5 218q24 123 4 196t-80 73q-67 0 -125 -83 t-84 -218q-25 -123 -6 -196zM1169 408q34 175 140 286t241 111q148 0 219.5 -121t34.5 -309q-34 -175 -141.5 -286.5t-243.5 -111.5q-146 0 -216.5 121.5t-33.5 309.5zM1339.5 179q18.5 -73 75.5 -73q70 0 129.5 83.5t85.5 218.5q24 123 4 195.5t-80 72.5q-67 0 -124.5 -83 t-83.5 -218q-25 -123 -6.5 -196z" />
<glyph unicode="&#x26;" horiz-adv-x="1460" d="M57 389q12 63 39.5 116.5t60.5 91t82 71.5t91.5 56.5t101.5 47.5q-53 84 -67.5 160t2.5 147q27 151 138 237.5t269 86.5q164 0 241.5 -90.5t49.5 -241.5q-13 -68 -43.5 -124.5t-77 -99t-93.5 -73t-110 -61.5l265 -312q64 74 116 163t72 142l20 52h220q-4 -11 -11 -31.5 t-34 -80.5t-59 -118t-86.5 -134.5t-115.5 -139.5l215 -254h-286l-94 115q-210 -138 -465 -138q-111 0 -200 26t-150.5 76t-86 129.5t-4.5 180.5zM279 356q-18 -88 37 -145t184 -57q186 0 346 104l-299 367q-113 -53 -181 -114.5t-87 -154.5zM578 1057q-9 -49 2 -95t49 -104 q99 47 158.5 103t76.5 141q13 72 -15.5 108.5t-80.5 36.5q-67 0 -119.5 -50t-70.5 -140z" />
<glyph unicode="'" horiz-adv-x="458" d="M221 881l68 536h237l-143 -536h-162z" />
<glyph unicode="(" horiz-adv-x="696" d="M152 600q90 473 442 825l192 -71q-66 -72 -106.5 -119t-98 -127t-95 -152.5t-74.5 -174t-58 -212.5q-21 -106 -24 -203t6 -169.5t33 -148.5t47.5 -127t58.5 -118l-194 -45q-224 365 -129 842z" />
<glyph unicode=")" horiz-adv-x="696" d="M-59 -182q80 85 134 151.5t118 164.5t109.5 215t72.5 253q21 107 23.5 204.5t-6.5 169t-34 148.5t-47.5 126t-58.5 118l194 45q223 -372 132 -844q-94 -479 -445 -823z" />
<glyph unicode="*" horiz-adv-x="901" d="M186 913l232 129l-232 132l70 120l227 -129v260h140v-264l231 133l70 -120l-230 -132l230 -129l-70 -120l-231 131v-267h-140v265l-227 -129z" />
<glyph unicode="+" horiz-adv-x="1267" d="M72 449v196h469v445h202v-445h467v-196h-467v-449h-202v449h-469z" />
<glyph unicode="," horiz-adv-x="555" d="M-100 -258l270 549h266l-354 -549h-182z" />
<glyph unicode="-" horiz-adv-x="819" d="M94 467l37 188h614l-36 -188h-615z" />
<glyph unicode="." horiz-adv-x="534" d="M45 152q11 56 59.5 97.5t106.5 41.5q69 0 110 -51.5t27 -120.5q-10 -58 -60.5 -100t-109.5 -42q-69 0 -108.5 52t-24.5 123z" />
<glyph unicode="/" horiz-adv-x="876" d="M-94 -82l915 1485h211l-919 -1485h-207z" />
<glyph unicode="0" horiz-adv-x="1228" d="M113 463q0 104 20 219q36 184 122 334.5t219.5 244t289.5 93.5q98 0 176.5 -37t128 -102.5t79.5 -154.5t30.5 -193t-19.5 -218q-36 -183 -123 -334t-221.5 -244.5t-290.5 -93.5q-98 0 -176 37t-127 102t-78.5 154t-29.5 193zM347 465q-1 -86 16.5 -155.5t61 -109.5 t110.5 -40q94 0 176 76t134.5 191t80.5 255q19 97 20 183t-16.5 155.5t-61 110t-110.5 40.5q-94 0 -176 -75t-135 -190.5t-80 -256.5q-19 -98 -20 -184z" />
<glyph unicode="1" horiz-adv-x="1228" d="M389 1153l375 176h225l-258 -1329h-231l219 1120l-295 -137z" />
<glyph unicode="2" horiz-adv-x="1226" d="M25 0l34 176q11 56 33.5 106.5t48.5 88t67 75.5t73 62t84 54t82.5 45.5t84.5 41.5q26 13 39 19q167 73 247.5 138.5t101.5 164.5q17 87 -32.5 136.5t-152.5 49.5q-147 0 -401 -115l-41 191q250 121 481 121q93 0 166 -21t118.5 -58.5t73.5 -88.5t32 -110.5t-7 -125.5 q-14 -74 -47.5 -133.5t-92 -113t-129.5 -99t-179 -102.5q-176 -82 -227 -112q-142 -84 -173 -186q-1 -2 -2 -5h740l-39 -199h-983z" />
<glyph unicode="3" horiz-adv-x="1224" d="M33 74l86 170q149 -76 358 -76q138 0 232 62t114 165q23 116 -89 172.5t-339 59.5h-26l34 174h13q438 3 481 223q10 64 -39 101.5t-143 37.5q-85 0 -186 -23t-181 -59l-41 185q89 40 202.5 64t211.5 24q223 0 335 -94t81 -254q-20 -97 -101.5 -174t-201.5 -117 q58 -16 103.5 -43.5t81.5 -71.5t46.5 -103t-2.5 -137q-22 -116 -106 -203.5t-208.5 -133.5t-271.5 -46q-262 0 -444 97z" />
<glyph unicode="4" horiz-adv-x="1230" d="M47 348l31 174l835 809h232l-154 -801h199l-37 -182h-197l-69 -348h-228l70 348h-682zM326 530h438l104 525z" />
<glyph unicode="5" horiz-adv-x="1224" d="M47 70l88 172q57 -32 156 -53t180 -21q144 0 245.5 73t125.5 187q14 70 -12 122t-81.5 82t-135 44t-170 12t-189.5 -18l213 661h747l-38 -201h-574l-100 -272q83 8 160.5 3t149.5 -24.5t128 -54.5t95.5 -87t51.5 -122t-4 -159q-39 -201 -214.5 -319t-415.5 -118 q-107 0 -219 26t-187 67z" />
<glyph unicode="6" horiz-adv-x="1226" d="M98 371.5q-3 87.5 15 187.5q29 148 101.5 275.5t175.5 221.5t230 161.5t268 101t286 33.5l-37 -187q-233 0 -404.5 -92.5t-271.5 -253.5q130 68 280 68q140 0 240.5 -60.5t142 -165t17.5 -231.5q-39 -195 -208 -324t-396 -129q-104 0 -186 29t-134.5 81t-84 124.5 t-34.5 160zM358 553q-36 -179 16.5 -287t198.5 -108q120 0 208 72t112 198q25 128 -35 205.5t-192 77.5q-144 0 -291 -93q-14 -45 -17 -65z" />
<glyph unicode="7" horiz-adv-x="1228" d="M209 0q71 176 168 351t200.5 321t191 255t175.5 206h-670l39 198h961l-35 -178q-11 -10 -29.5 -27.5t-77.5 -79t-117 -128.5t-139 -172t-153.5 -213.5t-151 -249.5t-139.5 -283h-223z" />
<glyph unicode="8" horiz-adv-x="1228" d="M74 369q40 196 358 331q-96 46 -146 134t-30 192q29 148 170 238t340 90q209 0 321 -99t80 -260q-19 -97 -99.5 -173t-199.5 -124q124 -58 187 -151t41 -207q-32 -168 -187.5 -265.5t-382.5 -97.5q-238 0 -362.5 106.5t-89.5 285.5zM315 350q-17 -90 42 -146.5t175 -56.5 q125 0 216.5 65t111.5 167q7 38 -2.5 70.5t-31 54t-49 39.5t-56.5 28t-53.5 17t-39.5 10l-16 2q0 -1 -27.5 -9t-67.5 -26t-81.5 -44t-76 -71t-44.5 -100zM481 997q-9 -44 9 -81.5t50 -60.5t65 -39t57 -22.5t24 -5.5l3 1q143 51 212 141q34 44 43 94q15 77 -36 120.5 t-148 43.5q-105 0 -183.5 -53t-95.5 -138z" />
<glyph unicode="9" horiz-adv-x="1226" d="M123 -23l37 187q233 0 403.5 96t270.5 258q-127 -65 -275 -65q-214 0 -328 128.5t-77 323.5q37 194 204 320.5t392 126.5q172 0 282 -78.5t145.5 -210.5t2.5 -301q-36 -182 -138.5 -332.5t-246 -248.5t-317 -151t-355.5 -53zM397 893q-24 -124 37 -193t187 -69 q153 0 303 96q2 9 6 27.5t6 27.5q20 114 10 200.5t-66.5 137.5t-154.5 51q-122 0 -212 -74t-116 -204z" />
<glyph unicode=":" horiz-adv-x="534" d="M45 152q11 56 59.5 97.5t106.5 41.5q69 0 110 -51.5t27 -120.5q-10 -58 -60.5 -100t-109.5 -42q-69 0 -108.5 52t-24.5 123zM184 866q9 57 58 98.5t108 41.5q69 0 110 -51.5t27 -120.5q-12 -59 -62 -100.5t-108 -41.5q-69 0 -108.5 51.5t-24.5 122.5z" />
<glyph unicode=";" horiz-adv-x="559" d="M-121 -258l268 549h271l-355 -549h-184zM225 866q11 57 59.5 98.5t106.5 41.5q69 0 110 -51.5t27 -120.5q-10 -58 -60.5 -100t-109.5 -42q-69 0 -108.5 51.5t-24.5 122.5z" />
<glyph unicode="&#x3c;" horiz-adv-x="1349" d="M117 465v162l1044 465v-215l-782 -332l782 -330v-215z" />
<glyph unicode="=" horiz-adv-x="1359" d="M119 217v195h1138v-195h-1138zM119 690v195h1138v-195h-1138z" />
<glyph unicode="&#x3e;" horiz-adv-x="1351" d="M207 0v215l780 330l-780 332v215l1044 -465v-162z" />
<glyph unicode="?" horiz-adv-x="919" d="M170 150q11 57 60.5 99t107.5 42q69 0 109 -51.5t28 -120.5q-12 -59 -62 -100.5t-110 -41.5q-67 0 -107 52t-26 121zM248 1294q117 54 211.5 81.5t195.5 27.5q72 0 128 -18.5t88.5 -50t52.5 -72.5t21.5 -86.5t-5.5 -92.5q-10 -49 -29.5 -91.5t-55 -85t-58.5 -65.5 t-72 -69q-111 -103 -164.5 -180t-73.5 -170h-219q14 71 35.5 127t57 103.5t62 76t77.5 77.5q16 15 24 23q84 81 124 133.5t50 106.5q13 67 -22 104t-113 37q-58 0 -123 -20.5t-166 -63.5z" />
<glyph unicode="@" horiz-adv-x="1603" d="M78.5 347.5q1.5 79.5 15.5 162.5q39 200 165 364t305.5 257.5t373.5 93.5q151 0 273.5 -52.5t198.5 -142t106.5 -213.5t3.5 -264q-36 -186 -136 -300t-243 -114q-129 0 -168 115q-51 -55 -119 -89t-143 -34q-144 0 -225 106.5t-52 256.5q28 143 143.5 243.5t253.5 100.5 q118 0 195 -88l18 73h142l-70 -352q-38 -201 55 -201q62 0 113 76.5t80 222.5q25 135 -21 253t-157 190.5t-262 72.5q-116 0 -229 -48t-202 -128.5t-153.5 -189.5t-87.5 -227q-14 -87 -9.5 -169.5t38 -156.5t85 -129.5t132.5 -88t180 -32.5q149 0 311 72l68 -99 q-191 -116 -395 -116q-93 0 -174 20.5t-144 58t-114 90t-83 116t-51 137t-17.5 153zM602 473q-15 -78 27 -136t119 -58q76 0 144 62.5t85 150.5q17 85 -23 141.5t-112 56.5q-82 0 -152 -64.5t-88 -152.5z" />
<glyph unicode="A" horiz-adv-x="1359" d="M-80 0l789 1380h284l250 -1380h-250l-65 410h-522l-228 -410h-258zM504 590h395l-88 555z" />
<glyph unicode="B" horiz-adv-x="1230" d="M57 0l269 1380h452q230 0 340 -100q85 -78 85 -196q0 -33 -7 -70q-23 -112 -104.5 -189.5t-190.5 -101.5q38 -7 73.5 -23t71 -44t56.5 -66q22 -38 32 -92q4 -22 4 -47q0 -34 -8 -74q-34 -175 -191.5 -276t-414.5 -101h-467zM330 174h176q332 0 379 240q6 29 6 53 q0 72 -51 109q-68 49 -232 49h-190zM453 799h174q126 0 216.5 55t112.5 164q4 21 4 40q0 66 -50 100q-64 44 -191 44h-189z" />
<glyph unicode="C" horiz-adv-x="1302" d="M100 475q-3 35 -3 72q0 77 14 160q28 144 105 272t186 221.5t252.5 148t297.5 54.5q212 0 416 -119l-92 -176q-55 42 -138 68t-173 26q-142 0 -269 -64t-218 -185.5t-122 -278.5q-12 -63 -12 -119q0 -144 80 -242q110 -137 317 -137q95 0 193 30.5t170 72.5l39 -191 q-230 -111 -441 -111q-128 0 -236 37t-182.5 103t-124 157.5t-59.5 200.5z" />
<glyph unicode="D" horiz-adv-x="1517" d="M57 0l269 1380h512q164 0 298 -51t220 -143q87 -92 121 -224q18 -70 18 -147q0 -68 -14 -141q-38 -199 -167.5 -353.5t-319.5 -237.5t-410 -83h-527zM336 188h242q144 0 264 46.5t198.5 123t127.5 165.5t67 184q9 49 9 97t-10.5 97t-32 91.5t-58.5 80t-86 64t-119 42 t-154 15.5h-254z" />
<glyph unicode="E" horiz-adv-x="1118" d="M57 0l269 1380h870l-39 -198h-631l-73 -375h589l-36 -197h-590l-80 -411h647l-39 -199h-887z" />
<glyph unicode="F" horiz-adv-x="1105" d="M57 0l269 1380h874l-39 -198h-635l-80 -404h590l-37 -196h-589l-113 -582h-240z" />
<glyph unicode="G" horiz-adv-x="1466" d="M111 702q38 197 156.5 356t301 252t394.5 93q215 0 411 -115l-92 -178q-60 43 -148.5 68.5t-175.5 25.5q-221 0 -390 -151t-214 -383q-12 -66 -12 -126q0 -67 15 -127q29 -113 112 -179t207 -66q165 0 290.5 106t151.5 265h-413l36 188h674q-31 -223 -130.5 -393 t-260.5 -265.5t-362 -95.5q-204 0 -344.5 97t-193.5 262q-30 94 -30 200q0 80 17 166z" />
<glyph unicode="H" horiz-adv-x="1480" d="M57 0l269 1380h239l-112 -577h690l112 577h240l-268 -1380h-240l115 592h-690l-115 -592h-240z" />
<glyph unicode="I" horiz-adv-x="548" d="M57 0l269 1380h239l-268 -1380h-240z" />
<glyph unicode="J" horiz-adv-x="837" d="M-90 4l39 201q114 -27 182 -27q74 0 129 23t89.5 66.5t54.5 92t34 113.5l176 907h240l-186 -954q-43 -225 -181.5 -337t-353.5 -112q-91 0 -223 27z" />
<glyph unicode="K" horiz-adv-x="1310" d="M57 0l269 1380h237l-112 -583l694 583h291l-682 -581l440 -799h-270l-359 639l-174 -150l-96 -489h-238z" />
<glyph unicode="L" horiz-adv-x="1067" d="M57 0l269 1380h239l-229 -1179h653l-39 -201h-893z" />
<glyph unicode="M" horiz-adv-x="1751" d="M29 0l268 1380h321l199 -1061l625 1061h323l-268 -1380h-229l211 1069l-617 -1069h-198l-203 1069l-211 -1069h-221z" />
<glyph unicode="N" horiz-adv-x="1431" d="M37 0l268 1380h275l464 -1034l203 1034h221l-268 -1380h-268l-467 1055l-207 -1055h-221z" />
<glyph unicode="O" horiz-adv-x="1550" d="M110 420q-16 66 -15 137q0 72 16 150q37 193 158.5 352.5t298 251.5t368.5 92q200 0 347 -96.5t209 -264.5q38 -103 39 -218q0 -72 -15 -150q-29 -145 -108 -274.5t-189.5 -222t-249.5 -146.5t-283 -54q-149 0 -271.5 56.5t-197.5 155t-107 231.5zM356 674 q-12 -62 -11 -117q-1 -137 69 -241q98 -146 284 -146q129 0 251 71.5t208.5 195t114.5 270.5q12 60 12 115q0 74 -21 140q-36 116 -124.5 182t-210.5 66q-129 0 -250.5 -71t-207.5 -194.5t-114 -270.5z" />
<glyph unicode="P" horiz-adv-x="1210" d="M57 0l269 1380h434q264 0 386 -110q92 -84 92 -220q0 -43 -9 -92q-38 -192 -197.5 -303.5t-419.5 -111.5h-211l-106 -543h-238zM436 731h176q163 0 261 65.5t122 184.5q5 26 5 48q0 72 -51 113q-67 54 -230 54h-191z" />
<glyph unicode="Q" horiz-adv-x="1550" d="M108 433q-13 61 -13 125q0 72 16 149q37 193 158.5 352.5t298 251.5t368.5 92q200 0 347 -96.5t209 -264.5q39 -103 39 -218q0 -73 -15 -150q-49 -250 -233.5 -436.5t-428.5 -241.5q-5 -26 -5 -50q0 -23 5 -44q8 -43 31 -75t74 -49q48 -16 120 -16h8l-36 -188 q-29 -2 -57 -2q-40 0 -78 4q-64 9 -124 37t-100.5 73.5t-57.5 121.5q-10 40 -10 87q0 40 7 85q-137 11 -248.5 71t-179.5 157t-95 225zM356 674q-12 -62 -12 -117q0 -138 70 -241q99 -146 284 -146q129 0 251 71.5t208.5 195t114.5 270.5q12 60 12 115q0 74 -21 140 q-36 116 -124.5 182t-210.5 66q-129 0 -250.5 -71t-207.5 -194.5t-114 -270.5z" />
<glyph unicode="R" horiz-adv-x="1269" d="M57 0l269 1380h434q268 0 390 -101q93 -77 92 -211q0 -43 -9 -91q-47 -252 -318 -348l185 -629h-244l-168 582h-278l-115 -582h-238zM444 762h174q164 0 260.5 60t118.5 175q5 26 5 48q0 69 -51 105q-68 48 -232 48h-191z" />
<glyph unicode="S" horiz-adv-x="1116" d="M4 123l96 176q167 -121 355 -121q131 0 215.5 55t103.5 146q1 16 2 29t-4 25.5t-10 23t-15.5 21.5t-21 20t-26 19t-30.5 18.5t-35.5 19t-40 19.5t-43.5 21q-41 19 -63 30q-181 76 -249 170q-49 67 -49 159q0 36 8 76q32 166 169 269.5t347 103.5q115 0 221 -32t186 -81 l-100 -174q-185 90 -307 90q-61 0 -117 -18t-101 -61t-57 -105q-2 -22 -3 -38.5t8 -33t18 -30t27.5 -28t36.5 -26t45.5 -26t53.5 -28t62 -30.5q19 -9 29 -14q43 -18 76.5 -34.5t66.5 -36t57 -39.5t45 -43.5t34 -49.5t20.5 -56t7.5 -65t-8 -75q-34 -172 -177.5 -282 t-367.5 -110q-143 0 -273 43.5t-192 102.5z" />
<glyph unicode="T" horiz-adv-x="1179" d="M152 1178l36 202h1143l-37 -202h-452l-232 -1178h-237l231 1178h-452z" />
<glyph unicode="U" horiz-adv-x="1462" d="M160 401v18q0 90 18 193l148 768h239l-143 -737q-21 -104 -20 -184q0 -85 18 -139t54 -87.5t82.5 -48t107.5 -14.5q359 0 454 487l142 723h239l-151 -782q-57 -294 -231.5 -457.5t-463.5 -163.5q-121 0 -214 30t-151.5 85t-92 133.5t-35.5 175.5z" />
<glyph unicode="V" horiz-adv-x="1353" d="M188 1380h252l183 -1120l624 1120h260l-788 -1380h-279z" />
<glyph unicode="W" horiz-adv-x="2011" d="M229 1380h254l45 -1067l516 1067h254l97 -1077l467 1077h260l-647 -1380h-250l-111 1047l-520 -1047h-256z" />
<glyph unicode="X" horiz-adv-x="1271" d="M-80 0l604 702l-315 678h258l233 -536l445 536h268l-584 -680l326 -700h-260l-244 559l-465 -559h-266z" />
<glyph unicode="Y" horiz-adv-x="1261" d="M188 1380h271l231 -600l449 600h274l-639 -774l-121 -606h-239l118 600z" />
<glyph unicode="Z" horiz-adv-x="1284" d="M-18 0l32 178l1014 1004h-760l37 198h1055l-33 -178l-1010 -1003h830l-39 -199h-1126z" />
<glyph unicode="[" horiz-adv-x="663" d="M-10 -229l317 1634h457l-33 -162h-266l-254 -1311h266l-31 -161h-456z" />
<glyph unicode="\" horiz-adv-x="839" d="M176 1403h211l338 -1485h-207z" />
<glyph unicode="]" horiz-adv-x="663" d="M-68 -229l33 161h266l256 1311h-268l31 162h457l-318 -1634h-457z" />
<glyph unicode="^" horiz-adv-x="1228" d="M29 385l473 944h178l477 -942h-205l-360 756l-356 -758h-207z" />
<glyph unicode="_" horiz-adv-x="1249" d="M-94 -276l33 172h1136l-33 -172h-1136z" />
<glyph unicode="`" horiz-adv-x="1081" d="M322 1423h249l209 -297h-180z" />
<glyph unicode="a" d="M37 504q43 224 213.5 374t384.5 150q105 0 184.5 -49t126.5 -131l29 158h237l-194 -1006h-238l33 150q-70 -78 -167 -124t-204 -46q-143 0 -246 68t-145 188q-25 72 -25 154q0 55 11 114zM279 494q-7 -39 -7 -74q0 -90 47 -158q66 -94 191 -94q131 0 239 99t136 241 q8 41 8 79q0 89 -46 157q-66 98 -192 98q-130 0 -239 -101.5t-137 -246.5z" />
<glyph unicode="b" horiz-adv-x="1294" d="M43 0l283 1454h237l-121 -594q165 168 365 168q145 0 249 -72q106 -72 148 -197q25 -74 25 -158q0 -57 -12 -120q-41 -215 -208 -358t-378 -143q-112 0 -193.5 50t-122.5 130l-34 -160h-238zM371 483q-8 -39 -8 -74q-1 -86 45 -150q64 -91 188 -91q133 0 244 101t139 247 q9 42 9 79q0 87 -45 153q-64 94 -187 94q-134 0 -245.5 -104.5t-139.5 -254.5z" />
<glyph unicode="c" horiz-adv-x="1007" d="M78 518q43 219 223 364.5t412 145.5q184 0 319 -92l-82 -156q-43 28 -104 45t-117 17q-157 0 -270 -103.5t-142 -251.5q-7 -38 -7 -73q0 -90 48 -155q68 -91 215 -91q61 0 131 18t125 45l37 -170q-160 -84 -336 -84q-158 0 -272 71.5t-162 195.5q-29 77 -29 163 q0 54 11 111z" />
<glyph unicode="d" horiz-adv-x="1296" d="M76 504q43 224 213.5 374t384.5 150q105 0 184.5 -49t126.5 -131l117 606h237l-282 -1454h-238l33 150q-70 -78 -167 -124t-204 -46q-143 0 -246 68t-145 188q-25 72 -25 154q0 55 11 114zM317 494q-7 -39 -7 -74q0 -90 48 -158q66 -94 191 -94q131 0 239 99t136 241 q8 41 8 79q0 89 -46 157q-66 98 -192 98q-130 0 -239.5 -101.5t-137.5 -246.5z" />
<glyph unicode="e" horiz-adv-x="1132" d="M67 338q-1 21 -1 42q0 59 10 122q20 104 72 198.5t129 168t182.5 116.5t224.5 43q154 0 254 -72q102 -71 132 -202q12 -52 12 -111q0 -92 -29 -205h-758q-1 -15 -1 -28q0 -116 68 -178q76 -70 234 -70q80 0 161 18t122 36l41 17l26 -161q-7 -4 -19.5 -10.5t-54 -22.5 t-86 -28.5t-111.5 -23t-134 -10.5q-111 0 -199 27t-144 75.5t-91 114.5t-40 144zM332 604h526q3 23 3 44q-1 85 -43 143q-52 73 -167 73q-112 0 -193.5 -69t-125.5 -191z" />
<glyph unicode="f" horiz-adv-x="749" d="M70 0l161 827h-149l33 174h149l15 70q38 200 167 303t342 103q79 0 148 -13l-37 -194q-73 12 -139 12q-115 0 -168.5 -56.5t-79.5 -185.5l-8 -39h241l-32 -174h-242l-162 -827h-239z" />
<glyph unicode="g" horiz-adv-x="1275" d="M61 -315l97 170q38 -23 55.5 -32.5t60.5 -29.5t88 -28.5t95 -8.5q318 0 383 359l12 30q-71 -78 -166 -123t-199 -45q-109 0 -196.5 41.5t-140 113.5t-74.5 170q-10 47 -10 98q0 55 12 114q43 220 210.5 367t377.5 147q107 0 187 -50t128 -132l35 160h237l-180 -928 q-103 -506 -590 -506q-71 0 -134 9.5t-119.5 29.5t-87.5 34t-81 40zM315 483q-7 -38 -7 -73q0 -86 46 -151q64 -91 187 -91q134 0 244.5 101t138.5 247q9 42 9 79q0 87 -45 153q-64 94 -188 94q-133 0 -245 -104.5t-140 -254.5z" />
<glyph unicode="h" horiz-adv-x="1247" d="M47 0l283 1454h241l-114 -590q161 164 360 164q74 0 133.5 -17.5t97 -47.5t64.5 -70t36 -85q10 -46 12 -94v-18q0 -39 -9 -75l-123 -621h-240l113 575q12 57 12 102q0 161 -151 161q-121 0 -223 -82.5t-144 -208.5l-106 -547h-242z" />
<glyph unicode="i" horiz-adv-x="557" d="M63 0l197 1006h238l-197 -1006h-238zM301 1300q9 50 50 85.5t93 35.5q62 0 98 -45q27 -34 28 -79q0 -14 -3 -29q-11 -51 -53 -86t-94 -35q-61 0 -96 45q-26 34 -26 77q0 15 3 31z" />
<glyph unicode="j" horiz-adv-x="550" d="M-297 -432l37 188q78 0 136.5 21.5t95.5 61t58 87t33 109.5l191 973h240l-197 -1004q-21 -105 -68.5 -186.5t-106.5 -130t-132.5 -78t-143.5 -38.5q-42 -5 -85 -5q-29 0 -58 2zM295 1300q9 50 50 85.5t93 35.5q63 0 98 -45q26 -34 26 -77q0 -15 -3 -31q-9 -51 -51 -86 t-94 -35q-61 0 -96 45q-26 34 -26 77q0 15 3 31z" />
<glyph unicode="k" horiz-adv-x="1136" d="M47 0l283 1454h241l-168 -866l498 418h301l-516 -416l336 -590h-287l-237 438l-148 -119l-61 -319h-242z" />
<glyph unicode="l" horiz-adv-x="512" d="M53 0l283 1454h239l-282 -1454h-240z" />
<glyph unicode="m" horiz-adv-x="1871" d="M43 0l197 1006h237l-33 -146q146 168 347 168q130 0 206.5 -62t92.5 -157q156 219 387 219q77 0 136 -22t94 -60.5t55.5 -90t21.5 -111.5v-5q0 -57 -10 -118l-123 -621h-238l113 575q14 73 14 131q0 62 -36 98q-34 36 -103 36q-109 0 -196 -81.5t-130 -207.5l-110 -551 h-238l113 575q14 73 14 131q0 62 -36 98q-34 36 -103 36q-109 0 -196 -81.5t-130 -207.5l-108 -551h-238z" />
<glyph unicode="n" horiz-adv-x="1243" d="M43 0l197 1006h239l-26 -140q159 162 360 162q74 0 133 -17.5t96.5 -47.5t64 -70t35.5 -85q10 -46 12 -94v-18q0 -39 -9 -75l-121 -621h-240l111 575q12 59 12 104q0 161 -151 161q-120 0 -221.5 -82t-143.5 -207l-108 -551h-240z" />
<glyph unicode="o" d="M74 518q43 219 224.5 364.5t410.5 145.5q157 0 272 -71t164 -195q31 -78 30 -168q0 -53 -10 -109q-43 -218 -224 -363t-411 -145q-157 0 -272 71t-164 195q-31 78 -31 166q0 53 11 109zM311 487q-8 -43 -9 -81q0 -90 46 -156q66 -96 191 -96q134 0 246 105.5t143 260.5 q8 43 8 81q0 90 -46 157q-66 96 -188 96q-133 0 -246 -106t-145 -261z" />
<glyph unicode="p" horiz-adv-x="1306" d="M-27 -406l277 1412h237l-34 -146q165 168 364 168q145 0 249.5 -72t147.5 -197q25 -74 25 -158q0 -58 -12 -120q-41 -215 -208 -358t-378 -143q-111 0 -192.5 50t-122.5 130l-115 -566h-238zM381 483q-8 -39 -8 -74q0 -85 45 -150q64 -91 188 -91q133 0 244 101t139 247 q9 42 9 79q0 87 -45 153q-64 94 -187 94q-134 0 -245.5 -104.5t-139.5 -254.5z" />
<glyph unicode="q" horiz-adv-x="1296" d="M76 504q43 224 213.5 374t384.5 150q105 0 184.5 -49t126.5 -131l31 158h237l-274 -1412h-238l111 556q-70 -78 -167 -124t-204 -46q-143 0 -246 68t-145 188q-25 72 -25 154q0 55 11 114zM317 494q-7 -39 -7 -74q0 -90 48 -158q66 -94 191 -94q131 0 239 99t136 241 q8 41 8 79q0 89 -46 157q-66 98 -192 98q-130 0 -239.5 -101.5t-137.5 -246.5z" />
<glyph unicode="r" horiz-adv-x="737" d="M43 0l197 1006h237l-35 -175q67 84 162.5 140.5t216.5 56.5l-43 -219q-138 0 -256 -87t-145 -220l-96 -502h-238z" />
<glyph unicode="s" horiz-adv-x="913" d="M-2 88l86 154q152 -90 276 -90q84 0 137 36t64 91q2 8 2 15q-1 30 -27 50q-32 25 -143 78q-30 14 -49 23t-45.5 23.5t-43.5 26.5t-37.5 29t-33 33t-24 37.5t-16 44.5t-5 50.5t5.5 58.5q23 127 132.5 203.5t271.5 76.5q159 0 323 -84l-81 -156q-133 70 -236 70 q-68 0 -119 -32t-61 -91q-2 -11 -2 -21q1 -34 27 -56q34 -28 135 -74q27 -11 47 -20.5t43.5 -21.5t41 -23t36.5 -25t32.5 -28.5t26 -31t19.5 -35.5t11.5 -40t4 -45.5t-5.5 -51.5q-26 -124 -135.5 -204.5t-286.5 -80.5q-120 0 -219 34.5t-152 76.5z" />
<glyph unicode="t" horiz-adv-x="765" d="M82 827l35 179h155l37 190h236l-37 -190h270l-35 -179h-270l-84 -442q-10 -48 -14 -74t-3 -56t13 -44t37.5 -23.5t66.5 -9.5q24 0 57 2.5t54 5.5l21 2l-37 -196q-64 -12 -178 -12q-178 0 -239 81q-37 49 -37 142q0 59 15 137l95 487h-158z" />
<glyph unicode="u" horiz-adv-x="1224" d="M92 292q0 9 -1 18q0 39 9 75l121 621h240l-111 -576q-12 -58 -12 -104q0 -160 149 -160q119 0 220 81t145 204l111 555h239l-196 -1006h-242l27 137q-163 -160 -359 -160q-74 0 -133 17.5t-96.5 47.5t-64 70.5t-35.5 86t-11 93.5z" />
<glyph unicode="v" horiz-adv-x="1110" d="M117 1006h256l129 -752l428 752h260l-606 -1006h-254z" />
<glyph unicode="w" horiz-adv-x="1660" d="M117 1006h235l80 -727l397 727h191l110 -727l367 727h244l-547 -1006h-205l-110 735l-404 -735h-203z" />
<glyph unicode="x" horiz-adv-x="1095" d="M-78 0l484 512l-281 494h264l182 -367l330 367h275l-488 -504l270 -502h-253l-185 367l-332 -367h-266z" />
<glyph unicode="y" horiz-adv-x="1107" d="M-4 -240q80 0 157 56.5t117 134.5l41 72l-194 983h254l129 -762l430 762h258l-615 -1006l-120 -201q-83 -134 -192 -193.5t-245 -64.5z" />
<glyph unicode="z" horiz-adv-x="1056" d="M-18 0l30 162l711 653h-557l37 191h862l-29 -158l-706 -658h590l-39 -190h-899z" />
<glyph unicode="{" horiz-adv-x="739" d="M133 510l29 147q85 0 127 50t65 165l39 197q18 97 64 166.5t108.5 106t131 50t141.5 5.5l-31 -158q-53 0 -92 -12t-61.5 -28t-38 -46.5t-21.5 -53t-14 -61.5l-39 -202q-32 -159 -164 -252q95 -95 65 -252l-39 -203q-8 -40 -10.5 -62t1.5 -52.5t19.5 -46.5t50 -28 t87.5 -12l-31 -157q-76 -8 -139 5.5t-111 49.5t-66.5 105.5t-0.5 166.5l39 197q25 110 1 162.5t-110 52.5z" />
<glyph unicode="|" horiz-adv-x="897" d="M354 -512v2048h191v-2048h-191z" />
<glyph unicode="}" horiz-adv-x="739" d="M-68 -229l31 157q53 0 92 12t61.5 28t38 46.5t21.5 53t14 61.5l39 203q30 160 164 252q-97 94 -65 252l41 202q5 29 7 44.5t3 40.5t-3.5 38.5t-15 30.5t-28 26t-46.5 15t-67 6l31 158q76 8 138.5 -5.5t111 -50t67 -106t0.5 -166.5l-39 -197q-25 -110 -1 -162.5t110 -52.5 l-29 -147q-86 0 -127.5 -50t-64.5 -165l-39 -197q-18 -96 -64.5 -166t-109 -106t-131 -49.5t-140.5 -5.5z" />
<glyph unicode="~" horiz-adv-x="1185" d="M70 403q-4 361 288 361q62 0 120.5 -18.5t102.5 -45t83.5 -53t79 -45t73.5 -18.5q81 0 111 40t28 144h197q2 -51 -6 -102t-30.5 -102t-57 -89.5t-90.5 -63t-127 -24.5q-61 0 -119.5 18.5t-102 45t-83.5 53t-80 45t-74 18.5q-66 0 -93.5 -38.5t-21.5 -125.5h-198z" />
<glyph unicode="&#xa1;" horiz-adv-x="542" d="M-23 -399l205 958h197l-168 -958h-234zM186 864q12 57 60.5 98.5t105.5 41.5q70 0 112 -52t28 -121q-11 -57 -62 -99t-111 -42q-67 0 -107 51.5t-26 122.5z" />
<glyph unicode="&#xa2;" horiz-adv-x="1228" d="M233 676q37 185 183 322t340 169l41 213h159l-38 -206q116 -10 227 -80l-82 -146q-83 48 -180 58l-127 -658q100 10 205 55l22 -145q-52 -25 -80.5 -37t-78.5 -25t-101 -16l-39 -203h-160l41 207q-183 32 -275 169.5t-57 322.5zM436 676q-20 -101 22 -190t140 -121 l121 624q-110 -34 -185.5 -122.5t-97.5 -190.5z" />
<glyph unicode="&#xa3;" horiz-adv-x="1232" d="M47 0l39 199q64 0 110.5 17.5t71.5 42.5t41.5 62.5t22 66.5t10.5 67q1 12 2 18l14 115h-192l33 172h186l29 198q37 200 173.5 306t332.5 106q171 0 303 -74l-86 -172q-99 52 -213 52q-243 0 -295 -281l-21 -135h326l-33 -172h-319l-23 -160q-19 -131 -106 -231h571 l-39 -197h-938z" />
<glyph unicode="&#xa4;" horiz-adv-x="1228" d="M59 289l170 147q-51 112 -26 248q28 133 123 238l-117 137l149 131l121 -152q113 58 238 58q126 0 225 -64l188 158l107 -131l-178 -152q60 -110 31 -256q-25 -129 -115 -229l110 -133l-147 -129l-117 143q-111 -61 -243 -61q-138 0 -234 67l-176 -149zM397 653 q-22 -116 30 -192t151 -76q110 0 202 87t117 214q22 114 -29.5 191t-150.5 77q-110 0 -202 -86.5t-118 -214.5z" />
<glyph unicode="&#xa5;" horiz-adv-x="1226" d="M86 322l23 118h374l25 129h-375l25 119h327l-292 643h239l230 -559l446 559h248l-541 -643h309l-24 -119h-375l-25 -129h375l-22 -118h-375l-64 -322h-217l64 322h-375z" />
<glyph unicode="&#xa6;" horiz-adv-x="835" d="M324 356h190v-716h-190v716zM324 664v716h190v-716h-190z" />
<glyph unicode="&#xa7;" horiz-adv-x="960" d="M-6 -12l80 141q140 -96 282 -96q110 0 180.5 45t81.5 108q4 22 0.5 37.5t-28 33.5t-41 27t-72.5 36q-44 21 -69 34q-165 67 -224 141t-37 181q28 148 168 244q-103 80 -77 217q24 115 132.5 190.5t260.5 75.5q186 0 325 -88l-75 -139q-132 73 -248 73q-76 0 -137 -35 t-72 -96q-4 -19 -1 -35t17.5 -31.5t26.5 -26t42 -26.5t47 -24t58 -27q44 -18 69 -28.5t59 -27t52 -29.5t40 -32t31.5 -39t17.5 -45t7.5 -55.5t-7.5 -66.5q-28 -140 -172 -242q54 -35 78.5 -92t11.5 -129q-11 -54 -41.5 -103t-81.5 -90.5t-130.5 -66.5t-176.5 -25 q-75 0 -144.5 13.5t-117.5 35t-73 35.5t-42 27zM326 655q-4 -25 2 -45t17.5 -33t38 -27.5t48 -23.5t63.5 -26t70 -29q119 70 140 174q10 55 -20 79t-164 80q-34 15 -54 23q-121 -66 -141 -172z" />
<glyph unicode="&#xa8;" horiz-adv-x="1024" d="M334 1309q9 42 47 74t82 32q54 0 86.5 -41.5t21.5 -97.5q-8 -43 -46.5 -75t-82.5 -32q-53 0 -85 42.5t-23 97.5zM760 1309q8 42 45.5 74t81.5 32q54 0 86.5 -41.5t21.5 -97.5q-7 -43 -45.5 -75t-81.5 -32q-55 0 -87 42.5t-21 97.5z" />
<glyph unicode="&#xa9;" horiz-adv-x="1566" d="M106 688q0 198 92.5 362t257 258.5t365.5 94.5q200 0 363.5 -94.5t255.5 -258.5t92 -362q0 -147 -53.5 -278t-147 -226.5t-226 -151t-284.5 -55.5t-285.5 55.5t-227.5 151t-148 226.5t-54 278zM270 688q0 -152 70.5 -277t196.5 -197.5t282 -72.5t281 72.5t194.5 197.5 t69.5 277t-70 277t-195 197.5t-280 72.5t-281 -72.5t-197 -197.5t-71 -277zM459 690q0 157 113 266t282 109q110 0 225 -61l-49 -140q-73 39 -153 39q-59 0 -105 -22t-70.5 -56t-36.5 -68.5t-12 -66.5q0 -30 10 -63t33 -68t69 -57.5t109 -22.5q80 0 156 39l49 -143 q-117 -62 -225 -62q-168 0 -281.5 109.5t-113.5 267.5z" />
<glyph unicode="&#xaa;" horiz-adv-x="763" d="M82 739q21 103 121 173.5t243 70.5q95 0 158 -18q32 190 -123 190q-119 0 -219 -51l-24 125q129 59 299 59q151 0 211 -81.5t32 -229.5l-86 -442h-174l19 90q-126 -107 -258 -107q-107 0 -162 63.5t-37 157.5zM252 748q-9 -49 16.5 -76t81.5 -27q69 0 140.5 51.5 t78.5 89.5l11 56q-30 20 -129 20q-177 0 -199 -114z" />
<glyph unicode="&#xab;" horiz-adv-x="1058" d="M41 518l391 379h223l-389 -379l242 -379h-223zM446 518l392 379h223l-389 -379l241 -379h-223z" />
<glyph unicode="&#xac;" horiz-adv-x="1341" d="M104 647v174h1147v-573h-176v399h-971z" />
<glyph unicode="&#xad;" horiz-adv-x="819" d="M94 467l37 188h614l-36 -188h-615z" />
<glyph unicode="&#xae;" horiz-adv-x="1566" d="M106 688q0 198 92.5 362t257 258.5t365.5 94.5q200 0 363.5 -94.5t255.5 -258.5t92 -362q0 -147 -53.5 -278t-147 -226.5t-226 -151t-284.5 -55.5t-285.5 55.5t-227.5 151t-148 226.5t-54 278zM270 688q0 -152 70.5 -277t196.5 -197.5t282 -72.5t281 72.5t194.5 197.5 t69.5 277t-70 277t-195 197.5t-280 72.5t-281 -72.5t-197 -197.5t-71 -277zM549 342v709h315q130 0 198 -54.5t68 -148.5q0 -69 -37 -123t-102 -86l168 -295h-186l-133 268h-109v-270h-182zM731 750h78q82 0 114.5 21t32.5 73q0 48 -31.5 67t-115.5 19h-78v-180z" />
<glyph unicode="&#xaf;" horiz-adv-x="1021" d="M397 1200l29 152h498l-29 -152h-498z" />
<glyph unicode="&#xb0;" horiz-adv-x="677" d="M182 1126q0 117 81 197t198 80q116 0 196 -80t80 -197q0 -115 -80 -194.5t-196 -79.5q-117 0 -198 79.5t-81 194.5zM338 1126q0 -52 36 -88.5t87 -36.5q50 0 85.5 36.5t35.5 88.5t-35.5 88.5t-85.5 36.5q-51 0 -87 -36.5t-36 -88.5z" />
<glyph unicode="&#xb1;" horiz-adv-x="1390" d="M109 0v195h1138v-195h-1138zM109 637v194h469v324h202v-324h467v-194h-467v-326h-202v326h-469z" />
<glyph unicode="&#xb2;" horiz-adv-x="741" d="M147 901l25 121q5 26 14 50.5t17.5 43.5t24 39t25.5 32.5t31 29t30.5 24t33.5 22t31 18.5t33 18t30 16q102 43 150.5 81.5t58.5 92.5q7 41 -16.5 63.5t-73.5 22.5q-97 0 -225 -72l-37 144q142 71 295 71q132 0 200.5 -66t45.5 -184q-16 -83 -78.5 -142t-194.5 -130 q-102 -44 -149 -77.5t-60 -82.5l418 8l-28 -143h-601z" />
<glyph unicode="&#xb3;" horiz-adv-x="739" d="M158 950l59 119q39 -21 96 -33t101 -12q70 0 120 34.5t60 92.5q10 59 -46 91t-163 32h-35l23 119h20q94 0 165 35.5t83 93.5q6 31 -16.5 48t-69.5 17q-99 0 -205 -49l-28 121q35 19 112 39t148 20q133 0 199.5 -59t47.5 -152q-22 -120 -194 -172q73 -24 118.5 -82 t28.5 -147q-20 -99 -116 -157t-240 -58q-156 0 -268 59z" />
<glyph unicode="&#xb4;" horiz-adv-x="966" d="M545 1126l209 297h250l-279 -297h-180z" />
<glyph unicode="&#xb6;" horiz-adv-x="1341" d="M209 991q73 389 596 389h631l-29 -155h-137l-266 -1362h-164l264 1362h-137l-265 -1362h-165l135 694h-13q-261 0 -376 115.5t-74 318.5z" />
<glyph unicode="&#xb7;" horiz-adv-x="452" d="M82 555q11 57 59.5 98t106.5 41q69 0 110 -51.5t27 -120.5q-11 -57 -61.5 -99t-108.5 -42q-69 0 -108 51.5t-25 122.5z" />
<glyph unicode="&#xb8;" horiz-adv-x="1021" d="M133 -367l62 107q43 -31 102 -31q83 0 92 53q7 35 -31.5 47.5t-119.5 12.5l100 178h151l-75 -106q63 -14 99 -52.5t22 -105.5q-14 -72 -78 -117t-154 -45q-108 0 -170 59z" />
<glyph unicode="&#xb9;" horiz-adv-x="739" d="M328 1597l235 111h172l-157 -807h-189l131 655l-168 -77z" />
<glyph unicode="&#xba;" horiz-adv-x="847" d="M117 918q31 153 159.5 258.5t284.5 105.5q168 0 262 -116t62 -281q-29 -152 -158.5 -258.5t-286.5 -106.5q-109 0 -191 53.5t-117 145t-15 199.5zM285 885q-20 -100 23.5 -167t129.5 -67q98 0 178.5 77t102.5 190q20 100 -24 166.5t-132 66.5q-97 0 -176.5 -76.5 t-101.5 -189.5z" />
<glyph unicode="&#xbb;" horiz-adv-x="1058" d="M4 139l389 379l-241 379h225l244 -379l-392 -379h-225zM412 139l389 379l-242 379h223l244 -379l-391 -379h-223z" />
<glyph unicode="&#xbc;" horiz-adv-x="1691" d="M176 -23l1135 1377h186l-1137 -1377h-184zM221 1231l236 110h172l-158 -806h-188l131 655l-168 -78zM860 207l23 117l493 479h168l-92 -471h100l-24 -125h-101l-41 -211h-176l41 211h-391zM1063 332h213l51 256z" />
<glyph unicode="&#xbd;" horiz-adv-x="1755" d="M158 -23l1136 1377h183l-1135 -1377h-184zM221 1231l236 110h172l-158 -806h-188l131 655l-168 -78zM944 0l25 121q5 26 14 50.5t17.5 43.5t24 39t25.5 32.5t31 29t30.5 24t33.5 22t31 18.5t33 18t30 16q102 43 150.5 81.5t58.5 92.5q7 41 -16.5 63.5t-73.5 22.5 q-97 0 -225 -72l-37 143q144 72 295 72q132 0 200 -66t45 -184q-16 -84 -78.5 -143t-193.5 -129q-102 -44 -149 -77.5t-60 -82.5l418 8l-29 -143h-600z" />
<glyph unicode="&#xbe;" horiz-adv-x="1802" d="M100 573l60 119q39 -21 95.5 -33t100.5 -12q70 0 120.5 34.5t60.5 92.5q10 59 -46 91t-163 32h-35l22 119h21q94 0 165 35.5t83 93.5q6 31 -16.5 48t-69.5 17q-99 0 -205 -49l-29 121q35 19 112 39t148 20q133 0 200 -59.5t48 -151.5q-22 -120 -194 -172 q73 -24 118.5 -82t28.5 -147q-20 -99 -116 -157t-240 -58q-157 0 -269 59zM291 -23l1136 1377h185l-1137 -1377h-184zM971 207l22 117l494 479h168l-92 -471h100l-25 -125h-100l-41 -211h-176l41 211h-391zM1174 332h212l52 256z" />
<glyph unicode="&#xbf;" horiz-adv-x="919" d="M-24 -171q-1 45 6 91q8 40 25.5 79t33.5 64.5t50.5 62.5t50 52.5t57.5 54.5q110 103 163 180t72 171h221q-12 -62 -33.5 -115.5t-39.5 -86.5t-57 -77t-58 -62.5t-70 -66.5q-84 -81 -124 -133.5t-50 -108.5q-14 -66 21.5 -103.5t111.5 -37.5q97 0 291 86l27 -168 q-221 -108 -406 -108q-72 0 -128.5 18.5t-89 49.5t-53 72t-21.5 86zM446 887q12 57 61.5 99t106.5 42q70 0 110.5 -51.5t25.5 -122.5q-9 -57 -58.5 -99t-109.5 -42q-67 0 -108.5 52.5t-27.5 121.5z" />
<glyph unicode="&#xc0;" horiz-adv-x="1359" d="M-80 0l789 1380h284l250 -1380h-250l-65 410h-522l-228 -410h-258zM494 1753h249l209 -297h-180zM504 590h395l-88 555z" />
<glyph unicode="&#xc1;" horiz-adv-x="1359" d="M-80 0l789 1380h284l250 -1380h-250l-65 410h-522l-228 -410h-258zM504 590h395l-88 555zM778 1458l209 297h250l-279 -297h-180z" />
<glyph unicode="&#xc2;" horiz-adv-x="1359" d="M-80 0l789 1380h284l250 -1380h-250l-65 410h-522l-228 -410h-258zM504 590h395l-88 555zM559 1458l266 303h195l147 -303h-192l-78 176l-145 -176h-193z" />
<glyph unicode="&#xc3;" horiz-adv-x="1359" d="M-80 0l789 1380h284l250 -1380h-250l-65 410h-522l-228 -410h-258zM504 590h395l-88 555zM557 1483q0 68 18.5 117.5t49.5 75t64 37t69 11.5q58 0 133 -34.5t117 -34.5q30 0 48 23.5t17 62.5h168q0 -68 -18.5 -117.5t-49.5 -75.5t-64 -37.5t-69 -11.5q-58 0 -132.5 35 t-116.5 35q-30 0 -48.5 -23t-17.5 -63h-168z" />
<glyph unicode="&#xc4;" horiz-adv-x="1359" d="M-80 0l789 1380h284l250 -1380h-250l-65 410h-522l-228 -410h-258zM504 590h395l-88 555zM565 1640q9 42 47.5 74.5t81.5 32.5q54 0 86.5 -42t22.5 -97q-8 -43 -46.5 -75t-82.5 -32q-53 0 -85.5 42t-23.5 97zM991 1640q8 42 45.5 74.5t81.5 32.5q54 0 86.5 -42t22.5 -97 q-7 -43 -45.5 -75t-81.5 -32q-55 0 -87.5 42t-21.5 97z" />
<glyph unicode="&#xc5;" horiz-adv-x="1359" d="M-80 0l789 1380h284l250 -1380h-250l-65 410h-522l-228 -410h-258zM504 590h395l-88 555zM692 1636q19 87 89 147t155 60q87 0 135 -60t31 -147q-17 -85 -87 -143.5t-157 -58.5t-134 58.5t-32 143.5zM797 1636q-8 -41 15.5 -69.5t66.5 -28.5t76.5 28.5t41.5 69.5 q8 43 -16 73t-66 30q-41 0 -76 -30t-42 -73z" />
<glyph unicode="&#xc6;" horiz-adv-x="1878" d="M-80 0l1108 1380h926l-39 -198h-631l-72 -375h590l-39 -197h-589l-80 -411h647l-39 -199h-887l82 410h-387l-322 -410h-268zM651 590h281l94 477z" />
<glyph unicode="&#xc7;" horiz-adv-x="1302" d="M111 707q28 144 105 272t186 221.5t252.5 148t297.5 54.5q212 0 416 -119l-92 -176q-55 42 -138 68t-173 26q-142 0 -269 -64t-218 -185.5t-122 -278.5q-43 -224 67.5 -361t317.5 -137q95 0 193 30.5t170 72.5l39 -191q-230 -111 -441 -111h-10l-59 -83q63 -14 99 -52.5 t22 -105.5q-14 -72 -78 -117t-154 -45q-108 0 -170 59l62 107q43 -31 102 -31q83 0 92 53q7 35 -31.5 47.5t-119.5 12.5l96 170q-167 33 -279.5 134.5t-155 252.5t-7.5 328z" />
<glyph unicode="&#xc8;" horiz-adv-x="1118" d="M57 0l269 1380h870l-39 -198h-631l-73 -375h589l-36 -197h-590l-80 -411h647l-39 -199h-887zM449 1755h249l209 -297h-180z" />
<glyph unicode="&#xc9;" horiz-adv-x="1118" d="M57 0l269 1380h870l-39 -198h-631l-73 -375h589l-36 -197h-590l-80 -411h647l-39 -199h-887zM686 1458l209 297h250l-279 -297h-180z" />
<glyph unicode="&#xca;" horiz-adv-x="1118" d="M57 0l269 1380h870l-39 -198h-631l-73 -375h589l-36 -197h-590l-80 -411h647l-39 -199h-887zM471 1458l266 303h195l147 -303h-192l-78 176l-145 -176h-193z" />
<glyph unicode="&#xcb;" horiz-adv-x="1118" d="M57 0l269 1380h870l-39 -198h-631l-73 -375h589l-36 -197h-590l-80 -411h647l-39 -199h-887zM487 1640q9 42 47.5 74.5t81.5 32.5q54 0 86.5 -42t22.5 -97q-8 -43 -46.5 -75t-82.5 -32q-53 0 -85.5 42t-23.5 97zM913 1640q8 42 45.5 74.5t81.5 32.5q54 0 86.5 -42 t22.5 -97q-7 -43 -45.5 -75t-81.5 -32q-55 0 -87.5 42t-21.5 97z" />
<glyph unicode="&#xcc;" horiz-adv-x="548" d="M57 0l269 1380h239l-268 -1380h-240zM90 1755h250l209 -297h-180z" />
<glyph unicode="&#xcd;" horiz-adv-x="520" d="M57 0l269 1380h239l-268 -1380h-240zM369 1458l209 297h249l-278 -297h-180z" />
<glyph unicode="&#xce;" horiz-adv-x="550" d="M57 0l269 1380h239l-268 -1380h-240zM156 1458l266 303h194l148 -303h-193l-77 176l-146 -176h-192z" />
<glyph unicode="&#xcf;" horiz-adv-x="548" d="M57 0l269 1380h239l-268 -1380h-240zM162 1640q9 42 47.5 74.5t81.5 32.5q54 0 86.5 -41.5t21.5 -97.5q-8 -43 -46.5 -75t-82.5 -32q-53 0 -85 42t-23 97zM588 1640q8 42 45.5 74.5t81.5 32.5q54 0 86.5 -41.5t21.5 -97.5q-7 -43 -45.5 -75t-81.5 -32q-55 0 -87 42 t-21 97z" />
<glyph unicode="&#xd0;" horiz-adv-x="1552" d="M39 608l37 189h172l112 583h512q164 0 298 -51t220.5 -142.5t121 -224t4.5 -288.5q-38 -199 -167.5 -353.5t-320 -237.5t-410.5 -83h-526l119 608h-172zM371 188h241q144 0 264 46.5t199 123t128 165.5t67 184q9 49 9 97t-10.5 97t-32 91.5t-58.5 80t-86 64t-119 42 t-154 15.5h-254l-78 -397h375l-37 -189h-372z" />
<glyph unicode="&#xd1;" horiz-adv-x="1431" d="M37 0l268 1380h275l464 -1034l203 1034h221l-268 -1380h-268l-467 1055l-207 -1055h-221zM588 1483q0 68 18.5 117.5t49 75t63.5 37t69 11.5q58 0 133 -34.5t117 -34.5q30 0 48.5 23.5t17.5 62.5h168q0 -68 -18.5 -117.5t-49.5 -75.5t-64 -37.5t-69 -11.5q-58 0 -133 35 t-117 35q-30 0 -48 -23t-17 -63h-168z" />
<glyph unicode="&#xd2;" horiz-adv-x="1550" d="M110.5 420q-31.5 133 0.5 287q37 193 158.5 352.5t298 251.5t368.5 92q200 0 347 -96.5t209.5 -264t23.5 -368.5q-29 -145 -108 -274.5t-189.5 -222t-249.5 -146.5t-283 -54q-149 0 -271.5 56.5t-197.5 155t-106.5 231.5zM356 674q-40 -213 58.5 -358.5t283.5 -145.5 q129 0 251 71.5t208.5 195t114.5 270.5q27 139 -9 255t-124.5 182t-210.5 66q-129 0 -250.5 -71t-207.5 -194.5t-114 -270.5zM596 1755h250l209 -297h-181z" />
<glyph unicode="&#xd3;" horiz-adv-x="1550" d="M110.5 420q-31.5 133 0.5 287q37 193 158.5 352.5t298 251.5t368.5 92q200 0 347 -96.5t209.5 -264t23.5 -368.5q-29 -145 -108 -274.5t-189.5 -222t-249.5 -146.5t-283 -54q-149 0 -271.5 56.5t-197.5 155t-106.5 231.5zM356 674q-40 -213 58.5 -358.5t283.5 -145.5 q129 0 251 71.5t208.5 195t114.5 270.5q27 139 -9 255t-124.5 182t-210.5 66q-129 0 -250.5 -71t-207.5 -194.5t-114 -270.5zM870 1458l209 297h250l-278 -297h-181z" />
<glyph unicode="&#xd4;" horiz-adv-x="1550" d="M110.5 420q-31.5 133 0.5 287q37 193 158.5 352.5t298 251.5t368.5 92q200 0 347 -96.5t209.5 -264t23.5 -368.5q-29 -145 -108 -274.5t-189.5 -222t-249.5 -146.5t-283 -54q-149 0 -271.5 56.5t-197.5 155t-106.5 231.5zM356 674q-40 -213 58.5 -358.5t283.5 -145.5 q129 0 251 71.5t208.5 195t114.5 270.5q27 139 -9 255t-124.5 182t-210.5 66q-129 0 -250.5 -71t-207.5 -194.5t-114 -270.5zM649 1458l266 303h195l147 -303h-192l-78 176l-145 -176h-193z" />
<glyph unicode="&#xd5;" horiz-adv-x="1550" d="M110.5 420q-31.5 133 0.5 287q37 193 158.5 352.5t298 251.5t368.5 92q200 0 347 -96.5t209.5 -264t23.5 -368.5q-29 -145 -108 -274.5t-189.5 -222t-249.5 -146.5t-283 -54q-149 0 -271.5 56.5t-197.5 155t-106.5 231.5zM356 674q-40 -213 58.5 -358.5t283.5 -145.5 q129 0 251 71.5t208.5 195t114.5 270.5q27 139 -9 255t-124.5 182t-210.5 66q-129 0 -250.5 -71t-207.5 -194.5t-114 -270.5zM643 1483q0 68 18.5 117.5t49.5 75t64 37t69 11.5q58 0 133 -34.5t117 -34.5q30 0 48 23.5t17 62.5h168q0 -68 -18.5 -117.5t-49.5 -75.5 t-64 -37.5t-69 -11.5q-58 0 -132.5 35t-116.5 35q-30 0 -48.5 -23t-17.5 -63h-168z" />
<glyph unicode="&#xd6;" horiz-adv-x="1550" d="M110.5 420q-31.5 133 0.5 287q37 193 158.5 352.5t298 251.5t368.5 92q200 0 347 -96.5t209.5 -264t23.5 -368.5q-29 -145 -108 -274.5t-189.5 -222t-249.5 -146.5t-283 -54q-149 0 -271.5 56.5t-197.5 155t-106.5 231.5zM356 674q-40 -213 58.5 -358.5t283.5 -145.5 q129 0 251 71.5t208.5 195t114.5 270.5q27 139 -9 255t-124.5 182t-210.5 66q-129 0 -250.5 -71t-207.5 -194.5t-114 -270.5zM662 1640q9 42 47.5 74.5t81.5 32.5q54 0 86.5 -41.5t21.5 -97.5q-8 -43 -46.5 -75t-82.5 -32q-53 0 -85 42t-23 97zM1087 1640q8 42 45.5 74.5 t81.5 32.5q54 0 86.5 -42t22.5 -97q-7 -43 -45.5 -75t-81.5 -32q-55 0 -87.5 42t-21.5 97z" />
<glyph unicode="&#xd7;" horiz-adv-x="1396" d="M143 133l430 432l-430 432l136 136l430 -435l432 435l135 -136l-432 -432l432 -432l-135 -135l-432 432l-430 -432z" />
<glyph unicode="&#xd8;" horiz-adv-x="1550" d="M55 6l172 172q-84 99 -115 235.5t-1 293.5q37 193 158.5 352.5t298 251.5t368.5 92q212 0 369 -117l174 178l98 -88l-176 -180q82 -100 113.5 -234t1.5 -288q-29 -145 -108 -274.5t-189.5 -222t-249.5 -146.5t-283 -54q-209 0 -362 113l-170 -172zM356 674 q-35 -185 35 -326l764 782q-86 80 -227 80q-129 0 -250.5 -71t-207.5 -194.5t-114 -270.5zM473 246q91 -76 225 -76q129 0 251 71.5t208.5 195t114.5 270.5q34 178 -37 321z" />
<glyph unicode="&#xd9;" horiz-adv-x="1462" d="M160 401q-2 97 18 211l148 768h239l-143 -737q-21 -106 -20.5 -187.5t18.5 -135t54 -87.5t82.5 -48.5t107.5 -14.5q359 0 454 487l142 723h239l-151 -782q-57 -294 -231.5 -457.5t-463.5 -163.5q-121 0 -214 30t-151.5 85t-92 133.5t-35.5 175.5zM569 1755h250l209 -297 h-180z" />
<glyph unicode="&#xda;" horiz-adv-x="1462" d="M160 401q-2 97 18 211l148 768h239l-143 -737q-21 -106 -20.5 -187.5t18.5 -135t54 -87.5t82.5 -48.5t107.5 -14.5q359 0 454 487l142 723h239l-151 -782q-57 -294 -231.5 -457.5t-463.5 -163.5q-121 0 -214 30t-151.5 85t-92 133.5t-35.5 175.5zM819 1458l209 297h250 l-279 -297h-180z" />
<glyph unicode="&#xdb;" horiz-adv-x="1462" d="M160 401q-2 97 18 211l148 768h239l-143 -737q-21 -106 -20.5 -187.5t18.5 -135t54 -87.5t82.5 -48.5t107.5 -14.5q359 0 454 487l142 723h239l-151 -782q-57 -294 -231.5 -457.5t-463.5 -163.5q-121 0 -214 30t-151.5 85t-92 133.5t-35.5 175.5zM618 1458l267 303h194 l148 -303h-193l-78 176l-145 -176h-193z" />
<glyph unicode="&#xdc;" horiz-adv-x="1462" d="M160 401q-2 97 18 211l148 768h239l-143 -737q-21 -106 -20.5 -187.5t18.5 -135t54 -87.5t82.5 -48.5t107.5 -14.5q359 0 454 487l142 723h239l-151 -782q-57 -294 -231.5 -457.5t-463.5 -163.5q-121 0 -214 30t-151.5 85t-92 133.5t-35.5 175.5zM633 1640 q9 42 47.5 74.5t81.5 32.5q54 0 86.5 -41.5t21.5 -97.5q-8 -43 -46.5 -75t-82.5 -32q-53 0 -85 42t-23 97zM1059 1640q8 42 45.5 74.5t81.5 32.5q54 0 86.5 -41.5t21.5 -97.5q-7 -43 -45.5 -75t-81.5 -32q-55 0 -87 42t-21 97z" />
<glyph unicode="&#xdd;" horiz-adv-x="1259" d="M188 1380h271l231 -600l449 600h274l-639 -774l-121 -606h-239l118 600zM727 1458l209 297h250l-279 -297h-180z" />
<glyph unicode="&#xde;" horiz-adv-x="1210" d="M57 0l269 1380h239l-45 -235h195q265 0 386.5 -110.5t82.5 -311.5q-38 -192 -197.5 -304t-419.5 -112h-211l-59 -307h-240zM393 494h174q163 0 260 66t121 185q21 106 -45.5 159.5t-230.5 53.5h-189z" />
<glyph unicode="&#xdf;" horiz-adv-x="1222" d="M57 0l189 963q46 241 187.5 366t365.5 125t324.5 -105.5t62.5 -297.5q-22 -115 -91.5 -194.5t-183.5 -115.5q126 -30 182 -124.5t29 -237.5q-37 -191 -198.5 -288t-434.5 -91l35 180q148 0 242.5 60.5t116.5 169.5q22 106 -47.5 161.5t-225.5 55.5l39 196q121 0 201 61 t102 171q20 104 -22.5 158.5t-143.5 54.5q-115 0 -194 -76.5t-105 -212.5l-190 -979h-240z" />
<glyph unicode="&#xe0;" horiz-adv-x="1259" d="M47 504q43 224 213.5 374t384.5 150q105 0 184.5 -49t126.5 -131l29 158h238l-195 -1006h-237l32 150q-70 -78 -166.5 -124t-203.5 -46q-143 0 -246 68t-145.5 188t-14.5 268zM289 494q-26 -137 40 -231.5t191 -94.5q131 0 239 99t136 241q28 139 -37.5 236.5 t-191.5 97.5q-130 0 -239.5 -101.5t-137.5 -246.5zM379 1423h250l209 -297h-181z" />
<glyph unicode="&#xe1;" horiz-adv-x="1294" d="M76 504q43 224 213.5 374t384.5 150q105 0 184.5 -49t126.5 -131l29 158h237l-194 -1006h-238l33 150q-70 -78 -167 -124t-204 -46q-143 0 -246 68t-145 188t-14 268zM317 494q-26 -137 40.5 -231.5t191.5 -94.5q131 0 239 99t136 241q28 139 -38 236.5t-192 97.5 q-130 0 -239.5 -101.5t-137.5 -246.5zM680 1126l209 297h250l-279 -297h-180z" />
<glyph unicode="&#xe2;" d="M37 504q43 224 213.5 374t384.5 150q105 0 184.5 -49t126.5 -131l29 158h237l-194 -1006h-238l33 150q-70 -78 -167 -124t-204 -46q-143 0 -246 68t-145 188t-14 268zM279 494q-26 -137 40 -231.5t191 -94.5q131 0 239 99t136 241q28 139 -38 236.5t-192 97.5 q-130 0 -239 -101.5t-137 -246.5zM430 1126l266 304h195l147 -304h-192l-78 177l-145 -177h-193z" />
<glyph unicode="&#xe3;" d="M37 504q43 224 213.5 374t384.5 150q105 0 184.5 -49t126.5 -131l29 158h237l-194 -1006h-238l33 150q-70 -78 -167 -124t-204 -46q-143 0 -246 68t-145 188t-14 268zM279 494q-26 -137 40 -231.5t191 -94.5q131 0 239 99t136 241q28 139 -38 236.5t-192 97.5 q-130 0 -239 -101.5t-137 -246.5zM422 1165q0 68 18.5 117.5t49.5 75.5t64 37.5t69 11.5q58 0 132.5 -35t116.5 -35q30 0 48.5 23.5t17.5 62.5h168q0 -68 -18.5 -117.5t-49.5 -75t-64 -37t-69 -11.5q-58 0 -133 34.5t-117 34.5q-30 0 -48 -23t-17 -63h-168z" />
<glyph unicode="&#xe4;" d="M37 504q43 224 213.5 374t384.5 150q105 0 184.5 -49t126.5 -131l29 158h237l-194 -1006h-238l33 150q-70 -78 -167 -124t-204 -46q-143 0 -246 68t-145 188t-14 268zM279 494q-26 -137 40 -231.5t191 -94.5q131 0 239 99t136 241q28 139 -38 236.5t-192 97.5 q-130 0 -239 -101.5t-137 -246.5zM455 1309q9 42 47 74t82 32q54 0 86.5 -41.5t21.5 -97.5q-8 -43 -46.5 -75t-82.5 -32q-53 0 -85 42.5t-23 97.5zM881 1309q8 42 45.5 74t81.5 32q54 0 86.5 -41.5t21.5 -97.5q-7 -43 -45.5 -75t-81.5 -32q-55 0 -87 42.5t-21 97.5z" />
<glyph unicode="&#xe5;" d="M37 504q43 224 213.5 374t384.5 150q105 0 184.5 -49t126.5 -131l29 158h237l-194 -1006h-238l33 150q-70 -78 -167 -124t-204 -46q-143 0 -246 68t-145 188t-14 268zM279 494q-26 -137 40 -231.5t191 -94.5q131 0 239 99t136 241q28 139 -38 236.5t-192 97.5 q-130 0 -239 -101.5t-137 -246.5zM582 1303q19 87 88.5 146.5t154.5 59.5q88 0 135.5 -60t30.5 -146t-86.5 -144.5t-156.5 -58.5t-134 58.5t-32 144.5zM686 1303q-8 -41 16 -70t66 -29q43 0 77 29t42 70q8 43 -15.5 72.5t-66.5 29.5q-42 0 -77 -30t-42 -72z" />
<glyph unicode="&#xe6;" horiz-adv-x="1789" d="M10 274q29 148 167 243t355 95q57 0 111.5 -7.5t80.5 -14.5l26 -8q27 134 -13.5 205t-171.5 71q-157 0 -315 -76l-31 156q198 90 416 90q124 0 197.5 -37.5t105.5 -122.5q167 160 403 160q233 0 338 -159t41 -431h-768q-13 -130 66 -203t233 -73q80 0 161 18t122 36 l41 17l27 -161q-7 -4 -20 -10.5t-54.5 -22.5t-86 -28.5t-110 -23t-129.5 -10.5q-296 0 -424 218q-45 -52 -109.5 -98t-165.5 -83t-206 -37q-156 0 -233.5 85t-53.5 212zM254 297q-13 -66 22.5 -106.5t106.5 -40.5q105 0 207.5 69.5t111.5 120.5l19 90q-61 33 -178 33 q-124 0 -199.5 -44.5t-89.5 -121.5zM987 614h541q2 108 -53 179t-168 71q-216 0 -320 -250z" />
<glyph unicode="&#xe7;" horiz-adv-x="1007" d="M78 518q43 219 223 364.5t412 145.5q184 0 319 -92l-82 -156q-43 28 -104 45t-117 17q-157 0 -270 -103.5t-142 -251.5q-26 -137 41.5 -228t214.5 -91q61 0 131 18t125 45l37 -170q-159 -82 -325 -84l-60 -83q63 -14 99 -52.5t22 -105.5q-14 -72 -77.5 -117t-153.5 -45 q-108 0 -170 59l61 107q43 -31 103 -31q83 0 92 53q7 35 -32 47.5t-120 12.5l96 170q-182 41 -271.5 185.5t-51.5 340.5z" />
<glyph unicode="&#xe8;" horiz-adv-x="1132" d="M67 338q-5 78 9 164q20 104 72 198.5t129 168t182.5 116.5t224.5 43q154 0 254.5 -71.5t131 -202.5t-16.5 -316h-758q-9 -137 67 -206.5t234 -69.5q80 0 161 18t122 36l41 17l26 -161q-7 -4 -19.5 -10.5t-54 -22.5t-86 -28.5t-111.5 -23t-134 -10.5q-111 0 -199 27 t-144 75.5t-91 114.5t-40 144zM332 604h526q13 114 -39.5 187t-167.5 73q-112 0 -193.5 -69t-125.5 -191zM358 1423h250l209 -297h-180z" />
<glyph unicode="&#xe9;" horiz-adv-x="1132" d="M67 338q-5 78 9 164q20 104 72 198.5t129 168t182.5 116.5t224.5 43q154 0 254.5 -71.5t131 -202.5t-16.5 -316h-758q-9 -137 67 -206.5t234 -69.5q80 0 161 18t122 36l41 17l26 -161q-7 -4 -19.5 -10.5t-54 -22.5t-86 -28.5t-111.5 -23t-134 -10.5q-111 0 -199 27 t-144 75.5t-91 114.5t-40 144zM332 604h526q13 114 -39.5 187t-167.5 73q-112 0 -193.5 -69t-125.5 -191zM571 1126l209 297h250l-278 -297h-181z" />
<glyph unicode="&#xea;" horiz-adv-x="1132" d="M67 338q-5 78 9 164q20 104 72 198.5t129 168t182.5 116.5t224.5 43q154 0 254.5 -71.5t131 -202.5t-16.5 -316h-758q-9 -137 67 -206.5t234 -69.5q80 0 161 18t122 36l41 17l26 -161q-7 -4 -19.5 -10.5t-54 -22.5t-86 -28.5t-111.5 -23t-134 -10.5q-111 0 -199 27 t-144 75.5t-91 114.5t-40 144zM332 604h526q13 114 -39.5 187t-167.5 73q-112 0 -193.5 -69t-125.5 -191zM416 1126l266 304h195l147 -304h-193l-77 177l-146 -177h-192z" />
<glyph unicode="&#xeb;" horiz-adv-x="1132" d="M67 338q-5 78 9 164q20 104 72 198.5t129 168t182.5 116.5t224.5 43q154 0 254.5 -71.5t131 -202.5t-16.5 -316h-758q-9 -137 67 -206.5t234 -69.5q80 0 161 18t122 36l41 17l26 -161q-7 -4 -19.5 -10.5t-54 -22.5t-86 -28.5t-111.5 -23t-134 -10.5q-111 0 -199 27 t-144 75.5t-91 114.5t-40 144zM332 604h526q13 114 -39.5 187t-167.5 73q-112 0 -193.5 -69t-125.5 -191zM424 1309q9 42 47 74t82 32q54 0 86.5 -42t22.5 -97q-7 -43 -46.5 -75t-83.5 -32q-53 0 -85 42.5t-23 97.5zM850 1309q8 42 45.5 74t81.5 32q54 0 86.5 -41.5 t21.5 -97.5q-7 -43 -45.5 -75t-81.5 -32q-55 0 -87 42.5t-21 97.5z" />
<glyph unicode="&#xec;" horiz-adv-x="575" d="M37 1423h250l209 -297h-181zM72 0l196 1006h238l-197 -1006h-237z" />
<glyph unicode="&#xed;" horiz-adv-x="544" d="M72 0l196 1006h238l-197 -1006h-237zM326 1126l209 297h249l-278 -297h-180z" />
<glyph unicode="&#xee;" horiz-adv-x="575" d="M72 0l196 1006h238l-197 -1006h-237zM106 1126l267 304h194l148 -304h-193l-78 177l-145 -177h-193z" />
<glyph unicode="&#xef;" horiz-adv-x="575" d="M72 0l196 1006h238l-197 -1006h-237zM111 1309q9 42 47 74t82 32q54 0 86.5 -41.5t21.5 -97.5q-8 -43 -46.5 -75t-82.5 -32q-53 0 -85 42.5t-23 97.5zM537 1309q8 42 45.5 74t81.5 32q54 0 86.5 -41.5t21.5 -97.5q-7 -43 -45.5 -75t-81.5 -32q-55 0 -87 42.5t-21 97.5z " />
<glyph unicode="&#xf0;" horiz-adv-x="1204" d="M78 514q43 225 197.5 360.5t369.5 135.5q132 0 242 -62q-41 130 -133 228l-336 -121l-39 116l268 93q-81 54 -201 75l89 179q210 -40 364 -175l277 99l38 -115l-223 -80q107 -137 147.5 -314.5t2.5 -365.5q-52 -266 -224.5 -428t-416.5 -162q-234 0 -351.5 146t-70.5 391 zM317 477q-30 -153 22 -236t167 -83q102 0 186 64t134.5 162t72.5 218q12 58 16 146q-101 86 -229 86q-137 0 -236.5 -94t-132.5 -263z" />
<glyph unicode="&#xf1;" horiz-adv-x="1243" d="M43 0l197 1006h239l-26 -140q159 162 360 162q74 0 133 -17.5t96.5 -47.5t64 -70t35.5 -85.5t11.5 -93.5t-8.5 -93l-121 -621h-240l111 575q55 265 -139 265q-120 0 -221.5 -82t-143.5 -207l-108 -551h-240zM451 1165q0 68 18.5 117.5t49 75.5t63.5 37.5t69 11.5 q58 0 133 -35t117 -35q30 0 48.5 23.5t17.5 62.5h168q0 -68 -18.5 -117.5t-49.5 -75t-64 -37t-69 -11.5q-58 0 -133 34.5t-117 34.5q-30 0 -48.5 -23t-17.5 -63h-167z" />
<glyph unicode="&#xf2;" d="M74 518q43 219 224.5 364.5t410.5 145.5q157 0 272 -71t164 -195.5t20 -276.5q-43 -218 -224 -363t-411 -145q-157 0 -272 71t-164 195t-20 275zM311 487q-28 -142 37.5 -237.5t190.5 -95.5q134 0 246 105.5t143 260.5q28 142 -37.5 238t-188.5 96q-133 0 -246 -106 t-145 -261zM371 1423h250l208 -297h-180z" />
<glyph unicode="&#xf3;" d="M74 518q43 219 224.5 364.5t410.5 145.5q157 0 272 -71t164 -195.5t20 -276.5q-43 -218 -224 -363t-411 -145q-157 0 -272 71t-164 195t-20 275zM311 487q-28 -142 37.5 -237.5t190.5 -95.5q134 0 246 105.5t143 260.5q28 142 -37.5 238t-188.5 96q-133 0 -246 -106 t-145 -261zM655 1126l209 297h250l-278 -297h-181z" />
<glyph unicode="&#xf4;" d="M74 518q43 219 224.5 364.5t410.5 145.5q157 0 272 -71t164 -195.5t20 -276.5q-43 -218 -224 -363t-411 -145q-157 0 -272 71t-164 195t-20 275zM311 487q-28 -142 37.5 -237.5t190.5 -95.5q134 0 246 105.5t143 260.5q28 142 -37.5 238t-188.5 96q-133 0 -246 -106 t-145 -261zM440 1126l267 304h194l148 -304h-193l-78 177l-145 -177h-193z" />
<glyph unicode="&#xf5;" d="M74 518q43 219 224.5 364.5t410.5 145.5q157 0 272 -71t164 -195.5t20 -276.5q-43 -218 -224 -363t-411 -145q-157 0 -272 71t-164 195t-20 275zM311 487q-28 -142 37.5 -237.5t190.5 -95.5q134 0 246 105.5t143 260.5q28 142 -37.5 238t-188.5 96q-133 0 -246 -106 t-145 -261zM434 1165q0 68 18.5 117.5t49.5 75.5t64 37.5t69 11.5q58 0 133 -35t117 -35q30 0 48 23.5t17 62.5h168q0 -68 -18.5 -117.5t-49 -75t-63.5 -37t-69 -11.5q-58 0 -133 34.5t-117 34.5q-30 0 -48.5 -23t-17.5 -63h-168z" />
<glyph unicode="&#xf6;" d="M74 518q43 219 224.5 364.5t410.5 145.5q157 0 272 -71t164 -195.5t20 -276.5q-43 -218 -224 -363t-411 -145q-157 0 -272 71t-164 195t-20 275zM311 487q-28 -142 37.5 -237.5t190.5 -95.5q134 0 246 105.5t143 260.5q28 142 -37.5 238t-188.5 96q-133 0 -246 -106 t-145 -261zM444 1309q9 42 47 74t82 32q54 0 86.5 -42t22.5 -97q-8 -43 -46.5 -75t-82.5 -32q-53 0 -85.5 42.5t-23.5 97.5zM870 1309q8 42 45.5 74t81.5 32q54 0 86.5 -42t22.5 -97q-7 -43 -45.5 -75t-81.5 -32q-55 0 -87.5 42.5t-21.5 97.5z" />
<glyph unicode="&#xf7;" horiz-adv-x="1267" d="M70 449v196h1144v-196h-1144zM518 129q0 52 37.5 90.5t89.5 38.5q53 0 91 -38.5t38 -90.5q0 -53 -37.5 -91t-91.5 -38q-52 0 -89.5 38t-37.5 91zM518 961q0 52 37.5 90.5t89.5 38.5q53 0 91 -38.5t38 -90.5q0 -53 -37.5 -91.5t-91.5 -38.5q-52 0 -89.5 38.5t-37.5 91.5z " />
<glyph unicode="&#xf8;" d="M43 -14l129 133q-144 157 -98 399q43 219 224.5 364.5t410.5 145.5q156 0 276 -74l113 117l78 -72l-109 -112q69 -75 95 -178.5t3 -223.5q-43 -218 -224 -363t-411 -145q-159 0 -276 74l-133 -135zM311 487q-21 -121 19 -206l514 528q-61 45 -142 45q-133 0 -246 -106 t-145 -261zM395 199q61 -45 144 -45q134 0 246 105.5t143 260.5q22 122 -19 205z" />
<glyph unicode="&#xf9;" horiz-adv-x="1224" d="M91.5 292q-2.5 48 8.5 93l121 621h240l-111 -576q-54 -264 137 -264q119 0 220 81t145 204l111 555h239l-196 -1006h-242l27 137q-163 -160 -359 -160q-74 0 -133 17.5t-96.5 47.5t-64 70.5t-35.5 86t-11.5 93.5zM367 1423h249l209 -297h-180z" />
<glyph unicode="&#xfa;" horiz-adv-x="1224" d="M91.5 292q-2.5 48 8.5 93l121 621h240l-111 -576q-54 -264 137 -264q119 0 220 81t145 204l111 555h239l-196 -1006h-242l27 137q-163 -160 -359 -160q-74 0 -133 17.5t-96.5 47.5t-64 70.5t-35.5 86t-11.5 93.5zM639 1126l209 297h250l-279 -297h-180z" />
<glyph unicode="&#xfb;" horiz-adv-x="1224" d="M91.5 292q-2.5 48 8.5 93l121 621h240l-111 -576q-54 -264 137 -264q119 0 220 81t145 204l111 555h239l-196 -1006h-242l27 137q-163 -160 -359 -160q-74 0 -133 17.5t-96.5 47.5t-64 70.5t-35.5 86t-11.5 93.5zM430 1126l266 304h195l147 -304h-192l-78 177l-145 -177 h-193z" />
<glyph unicode="&#xfc;" horiz-adv-x="1224" d="M91.5 292q-2.5 48 8.5 93l121 621h240l-111 -576q-54 -264 137 -264q119 0 220 81t145 204l111 555h239l-196 -1006h-242l27 137q-163 -160 -359 -160q-74 0 -133 17.5t-96.5 47.5t-64 70.5t-35.5 86t-11.5 93.5zM432 1309q9 42 47 74t82 32q54 0 86.5 -42t22.5 -97 q-8 -43 -46.5 -75t-82.5 -32q-53 0 -85.5 42.5t-23.5 97.5zM858 1309q8 42 45.5 74t81.5 32q54 0 86.5 -42t22.5 -97q-7 -43 -45.5 -75t-81.5 -32q-55 0 -87.5 42.5t-21.5 97.5z" />
<glyph unicode="&#xfd;" horiz-adv-x="1107" d="M-4 -240q80 0 157 56.5t117 134.5l41 72l-194 983h254l129 -762l430 762h258l-615 -1006l-120 -201q-83 -134 -192 -193.5t-245 -64.5zM584 1126l209 297h249l-278 -297h-180z" />
<glyph unicode="&#xfe;" horiz-adv-x="1306" d="M-27 -406l363 1860h237l-118 -598q75 79 170.5 125.5t197.5 46.5q143 0 246 -71t145.5 -194.5t14.5 -275.5q-43 -217 -212.5 -362t-381.5 -145q-110 0 -190 49t-121 127l-113 -562h-238zM381 492q-26 -136 40 -230t191 -94q131 0 240 99t135 241q28 141 -37 237.5 t-192 96.5q-130 0 -239 -101.5t-138 -248.5z" />
<glyph unicode="&#xff;" horiz-adv-x="1107" d="M-4 -240q80 0 157 56.5t117 134.5l41 72l-194 983h254l129 -762l430 762h258l-615 -1006l-120 -201q-83 -134 -192 -193.5t-245 -64.5zM377 1309q9 42 47 74t82 32q54 0 86.5 -41.5t21.5 -97.5q-8 -43 -46.5 -75t-82.5 -32q-53 0 -85 42.5t-23 97.5zM803 1309 q8 42 45.5 74t81.5 32q54 0 86.5 -41.5t21.5 -97.5q-7 -43 -45.5 -75t-81.5 -32q-55 0 -87 42.5t-21 97.5z" />
<glyph unicode="&#x152;" horiz-adv-x="1841" d="M111 707q36 190 157.5 344t298.5 241.5t373 87.5h979l-39 -198h-631l-71 -375h589l-38 -197h-590l-80 -411h647l-39 -199h-983q-195 0 -340 92t-208 254.5t-25 360.5zM356 674q-40 -204 60 -339.5t295 -135.5h108l193 983h-97q-195 0 -356.5 -146.5t-202.5 -361.5z" />
<glyph unicode="&#x153;" horiz-adv-x="1976" d="M72 502q43 224 229.5 375t421.5 151q131 0 226 -52t143 -147q174 199 434 199q154 0 254.5 -71.5t130.5 -202.5t-17 -316h-757q-15 -129 65.5 -202.5t235.5 -73.5q80 0 161 18t121 36l41 17l27 -161q-7 -4 -19.5 -10.5t-54.5 -22.5t-86.5 -28.5t-111.5 -23t-134 -10.5 q-306 0 -415 203q-181 -203 -451 -203q-154 0 -266 68.5t-159.5 189t-18.5 267.5zM317 504q-28 -151 39.5 -250.5t196.5 -99.5t235 100.5t134 249.5q29 150 -37.5 250t-196.5 100q-129 0 -235.5 -100.5t-135.5 -249.5zM1169 604h531q13 114 -39.5 187t-167.5 73 q-219 0 -324 -260z" />
<glyph unicode="&#x178;" horiz-adv-x="1261" d="M188 1380h271l231 -600l449 600h274l-639 -774l-121 -606h-239l118 600zM520 1640q9 42 47.5 74.5t81.5 32.5q54 0 86.5 -42t22.5 -97q-8 -43 -46.5 -75t-82.5 -32q-53 0 -85.5 42t-23.5 97zM946 1640q8 42 45.5 74.5t81.5 32.5q54 0 86.5 -42t22.5 -97q-7 -43 -45.5 -75 t-81.5 -32q-55 0 -87.5 42t-21.5 97z" />
<glyph unicode="&#x2c6;" horiz-adv-x="1021" d="M330 1126l266 304h195l147 -304h-193l-77 177l-146 -177h-192z" />
<glyph unicode="&#x2dc;" horiz-adv-x="989" d="M307 1165q0 68 18.5 117.5t49.5 75.5t64 37.5t69 11.5q58 0 133 -35t117 -35q30 0 48 23.5t17 62.5h168q0 -68 -18.5 -117.5t-49 -75t-63.5 -37t-69 -11.5q-58 0 -133 34.5t-117 34.5q-30 0 -48.5 -23t-17.5 -63h-168z" />
<glyph unicode="&#x2000;" horiz-adv-x="921" />
<glyph unicode="&#x2001;" horiz-adv-x="1843" />
<glyph unicode="&#x2002;" horiz-adv-x="921" />
<glyph unicode="&#x2003;" horiz-adv-x="1843" />
<glyph unicode="&#x2004;" horiz-adv-x="614" />
<glyph unicode="&#x2005;" horiz-adv-x="460" />
<glyph unicode="&#x2006;" horiz-adv-x="307" />
<glyph unicode="&#x2007;" horiz-adv-x="307" />
<glyph unicode="&#x2008;" horiz-adv-x="230" />
<glyph unicode="&#x2009;" horiz-adv-x="368" />
<glyph unicode="&#x200a;" horiz-adv-x="102" />
<glyph unicode="&#x2010;" horiz-adv-x="819" d="M94 467l37 188h614l-36 -188h-615z" />
<glyph unicode="&#x2011;" horiz-adv-x="819" d="M94 467l37 188h614l-36 -188h-615z" />
<glyph unicode="&#x2012;" horiz-adv-x="819" d="M94 467l37 188h614l-36 -188h-615z" />
<glyph unicode="&#x2013;" horiz-adv-x="1024" d="M94 467l37 188h819l-37 -188h-819z" />
<glyph unicode="&#x2014;" horiz-adv-x="2048" d="M94 467l37 188h1843l-37 -188h-1843z" />
<glyph unicode="&#x2018;" horiz-adv-x="610" d="M184 881q14 74 53.5 157t85.5 147.5t90.5 118.5t73.5 84l29 29h162q-3 -3 -23 -31t-54.5 -83.5t-68.5 -119.5t-65.5 -146.5t-44.5 -155.5h-238z" />
<glyph unicode="&#x2019;" horiz-adv-x="610" d="M184 881q8 11 22.5 31.5t52.5 82t69.5 122t63.5 144t46 156.5h240q-14 -73 -53.5 -155.5t-85.5 -147.5t-90.5 -119t-73.5 -84l-29 -30h-162z" />
<glyph unicode="&#x201a;" horiz-adv-x="636" d="M-37 -258l268 549h254l-354 -549h-168z" />
<glyph unicode="&#x201c;" horiz-adv-x="978" d="M184 881q14 74 53.5 157t85.5 147.5t90.5 118.5t73.5 84l29 29h162q-8 -11 -22.5 -31t-53 -81t-70.5 -122t-64.5 -144.5t-45.5 -157.5h-238zM555 881q14 74 53.5 157t85.5 147.5t90.5 118.5t73.5 84l29 29h160q-8 -11 -22.5 -31t-53 -81t-70.5 -122t-63.5 -144.5 t-44.5 -157.5h-238z" />
<glyph unicode="&#x201d;" horiz-adv-x="978" d="M184 881q8 11 22.5 31t53 81t70.5 122t63.5 144.5t44.5 157.5h240q-15 -74 -55 -157t-86 -147.5t-90 -118.5t-73 -84l-30 -29h-160zM555 881q8 11 22.5 31t53 81t70.5 122t63.5 144.5t44.5 157.5h238q-14 -74 -53.5 -157t-85.5 -147.5t-90.5 -118.5t-73.5 -84l-29 -29 h-160z" />
<glyph unicode="&#x201e;" horiz-adv-x="1017" d="M-37 -258l268 549h254l-354 -549h-168zM342 -258l270 549h254l-354 -549h-170z" />
<glyph unicode="&#x2022;" horiz-adv-x="702" d="M109 559q0 106 72 180t179 74q108 0 181 -74t73 -180q0 -105 -73 -178.5t-181 -73.5q-106 0 -178.5 73.5t-72.5 178.5z" />
<glyph unicode="&#x2026;" horiz-adv-x="1978" d="M45 152q11 56 59.5 97.5t106.5 41.5q69 0 110 -51.5t27 -120.5q-10 -58 -60.5 -100t-109.5 -42q-69 0 -108.5 52t-24.5 123zM768 152q11 56 59.5 97.5t106.5 41.5q69 0 110 -51.5t27 -120.5q-10 -58 -60.5 -100t-109.5 -42q-69 0 -108.5 52t-24.5 123zM1489 152 q11 56 59.5 97.5t106.5 41.5q69 0 110 -51.5t27 -120.5q-10 -58 -60.5 -100t-109.5 -42q-69 0 -108.5 52t-24.5 123z" />
<glyph unicode="&#x202f;" horiz-adv-x="368" />
<glyph unicode="&#x2039;" horiz-adv-x="653" d="M41 518l391 379h223l-389 -379l242 -379h-223z" />
<glyph unicode="&#x203a;" horiz-adv-x="653" d="M4 139l389 379l-241 379h225l244 -379l-392 -379h-225z" />
<glyph unicode="&#x205f;" horiz-adv-x="460" />
<glyph unicode="&#x20ac;" horiz-adv-x="1234" d="M-45 483l70 131h157q1 10 11 68q2 9 6 26.5t6 26.5h-193l72 131h168q99 217 302 352.5t450 135.5q207 0 403 -113l-90 -170q-51 40 -131.5 65t-167.5 25q-153 0 -288 -78.5t-218 -216.5h688l-72 -131h-677q-18 -62 -23 -86l-6 -35h639l-70 -131h-571q19 -147 121 -230 t260 -83q92 0 187 29t163 69l39 -184q-222 -107 -424 -107q-254 0 -411 140.5t-175 365.5h-225z" />
<glyph unicode="&#x2122;" horiz-adv-x="1402" d="M207 1266v114h467v-114h-170v-443h-127v443h-170zM754 823v557h164l153 -379l156 379h162v-557h-134v332l-139 -332h-94l-137 328v-328h-131z" />
<glyph unicode="&#x25fc;" horiz-adv-x="1003" d="M0 0v1004h1004v-1004h-1004z" />
</font>
</defs>
</svg>
