<?xml version="1.0" encoding="utf-8"?>
<!-- Generator: Adobe Illustrator 16.0.4, SVG Export Plug-In . SVG Version: 6.00 Build 0)  -->
<!DOCTYPE svg PUBLIC "-//W3C//DTD SVG 1.1//EN" "http://www.w3.org/Graphics/SVG/1.1/DTD/svg11.dtd">
<svg version="1.1" id="Layer_1" xmlns="http://www.w3.org/2000/svg" xmlns:xlink="http://www.w3.org/1999/xlink" x="0px" y="0px"
	 preserveAspectRatio="xMidYMin meet" width="100%" height="100%" viewBox="0 0 500 500" enable-background="new 0 0 500 500" xml:space="preserve">
<defs>
	<mask id="face_mask" maskUnits="objectBoundingBox">
		<path fill="#ffffff" d="M345.678,493.366c6.557,0.048,9.92-1.186,9.309-8.715
			c-0.579-7.082-2.674-17.878,0.844-20.558c5.281-4.033,28.331-5.825,31.363-6.23c14.107-1.9,28.174-4.817,43.007-2.896
			c6.62,0.854,14.655-3.406,20.954-7.161c11.791-7.024,15.365-22.338,9.247-39.947c-1.444-4.161-5.361-7.415-0.785-11.147
			c9.62-7.842,11.664-16.783,5.697-27.758c-0.743-1.368-0.342-4.803,0.701-5.486c2.348-1.528,4.033-3.228,5.224-5.045
			c4.739-7.188,3.466-16.431,1.721-24.297c-0.603-2.72-5.755-4.435-0.909-9.731c16.555-18.104,16.197-18.431-0.58-35.351
			c-1.896-1.912-3.808-3.813-5.714-5.719c-6.35-6.351-16.972-12.154-17.878-19.205c-0.947-7.361,7.489-15.914,11.755-23.984
			c1.157-2.196,1.705-4.789,3.153-6.743c1.322-1.779,3.523-4.218,5.267-4.166c15.444,0.479,14.644-12.362,15.76-21.134
			c5.508-43.331-27.824-108.576-73.702-146.228c-40.505-33.233-93.633-41.54-97.734-43.139c-11.48-4.473-23.771-6.234-35.372-8.114
			c-20.658-3.353-40.966-2.262-61.788-2.533c-36.577-0.482-72.688,13.257-106.4,26.835c-65.812,26.5-95.801,134.226-93.587,196.785
			c1.385,38.876,15.617,78.329,31.472,113.421c9.911,21.933,24.697,41.147,41.896,57.788c10.938,10.585,27.091,33.229,42.388,36.324
			c13.519,2.733,12.723,2.675,13.802,15.029c0.859,9.837-1.708,17.156-8.361,23.496c-0.356,0.338-5.711,9.373-5.029,13.134
			s75.945,2.358,109.181,2.358C275.608,493.25,310.648,493.119,345.678,493.366z"/>
	</mask>
</defs>

<g>
	<path fill-rule="evenodd" clip-rule="evenodd" d="M345.678,493.366c6.557,0.048,9.92-1.186,9.309-8.715
		c-0.579-7.082-2.674-17.878,0.844-20.558c5.281-4.033,28.331-5.825,31.363-6.23c14.107-1.9,28.174-4.817,43.007-2.896
		c6.62,0.854,14.655-3.406,20.954-7.161c11.791-7.024,15.365-22.338,9.247-39.947c-1.444-4.161-5.361-7.415-0.785-11.147
		c9.62-7.842,11.664-16.783,5.697-27.758c-0.743-1.368-0.342-4.803,0.701-5.486c2.348-1.528,4.033-3.228,5.224-5.045
		c4.739-7.188,3.466-16.431,1.721-24.297c-0.603-2.72-5.755-4.435-0.909-9.731c16.555-18.104,16.197-18.431-0.58-35.351
		c-1.896-1.912-3.808-3.813-5.714-5.719c-6.35-6.351-16.972-12.154-17.878-19.205c-0.947-7.361,7.489-15.914,11.755-23.984
		c1.157-2.196,1.705-4.789,3.153-6.743c1.322-1.779,3.523-4.218,5.267-4.166c15.444,0.479,14.644-12.362,15.76-21.134
		c5.508-43.331-27.824-108.576-73.702-146.228c-40.505-33.233-93.633-41.54-97.734-43.139c-11.48-4.473-23.771-6.234-35.372-8.114
		c-20.658-3.353-40.966-2.262-61.788-2.533c-36.577-0.482-72.688,13.257-106.4,26.835c-65.812,26.5-95.801,134.226-93.587,196.785
		c1.385,38.876,15.617,78.329,31.472,113.421c9.911,21.933,24.697,41.147,41.896,57.788c10.938,10.585,27.091,33.229,42.388,36.324
		c13.519,2.733,12.723,2.675,13.802,15.029c0.859,9.837-1.708,17.156-8.361,23.496c-0.356,0.338-5.711,9.373-5.029,13.134
		s75.945,2.358,109.181,2.358C275.608,493.25,310.648,493.119,345.678,493.366z"/>
</g>
</svg>
