<?xml version="1.0" encoding="utf-8"?>
<!-- Generator: Adobe Illustrator 16.0.4, SVG Export Plug-In . SVG Version: 6.00 Build 0)  -->
<!DOCTYPE svg PUBLIC "-//W3C//DTD SVG 1.1//EN" "http://www.w3.org/Graphics/SVG/1.1/DTD/svg11.dtd">
<svg version="1.1" id="Layer_1" xmlns="http://www.w3.org/2000/svg" xmlns:xlink="http://www.w3.org/1999/xlink" x="0px" y="0px"
	 width="40px" height="40px" viewBox="0 0 40 40" enable-background="new 0 0 40 40" xml:space="preserve">
<g>
	<path d="M39.951,8.187c-1.115,1.631-2.463,3.02-4.043,4.168c0.017,0.234,0.022,0.583,0.022,1.048c0,2.163-0.315,4.322-0.948,6.478
		c-0.631,2.154-1.592,4.222-2.882,6.202c-1.289,1.979-2.825,3.732-4.604,5.253c-1.781,1.522-3.929,2.738-6.439,3.645
		c-2.512,0.905-5.2,1.359-8.061,1.359c-4.509,0-8.635-1.206-12.378-3.618c0.582,0.064,1.23,0.1,1.946,0.1
		c3.743,0,7.079-1.147,10.008-3.443c-1.748-0.036-3.312-0.571-4.691-1.611c-1.381-1.041-2.331-2.367-2.845-3.98
		c0.548,0.084,1.056,0.123,1.521,0.123c0.716,0,1.423-0.09,2.122-0.273c-1.864-0.382-3.407-1.311-4.63-2.782
		c-1.223-1.473-1.834-3.182-1.834-5.13v-0.1c1.131,0.634,2.346,0.974,3.645,1.023c-1.1-0.731-1.972-1.688-2.621-2.869
		c-0.648-1.182-0.974-2.463-0.974-3.844c0-1.464,0.366-2.821,1.098-4.068c2.013,2.479,4.464,4.463,7.351,5.952
		c2.887,1.489,5.977,2.317,9.272,2.484c-0.134-0.632-0.2-1.248-0.2-1.847c0-2.229,0.787-4.131,2.356-5.703
		c1.575-1.573,3.474-2.359,5.706-2.359c2.329,0,4.292,0.849,5.889,2.546c1.815-0.35,3.52-0.998,5.117-1.947
		c-0.616,1.914-1.797,3.395-3.544,4.443C36.855,9.269,38.404,8.853,39.951,8.187z"/>
</g>
<g>
	<path fill="#FFFFFF" d="M39.459,7.695c-1.115,1.631-2.464,3.02-4.043,4.168c0.017,0.234,0.022,0.583,0.022,1.048
		c0,2.164-0.315,4.322-0.948,6.478c-0.631,2.154-1.592,4.222-2.882,6.201c-1.289,1.98-2.826,3.732-4.604,5.254
		c-1.781,1.522-3.929,2.738-6.439,3.644c-2.512,0.906-5.2,1.36-8.061,1.36c-4.509,0-8.635-1.206-12.378-3.618
		c0.582,0.064,1.23,0.1,1.946,0.1c3.744,0,7.079-1.147,10.008-3.443c-1.748-0.036-3.312-0.571-4.691-1.611
		c-1.381-1.041-2.331-2.368-2.845-3.98c0.548,0.084,1.056,0.123,1.521,0.123c0.716,0,1.422-0.09,2.122-0.273
		c-1.864-0.382-3.407-1.311-4.63-2.782c-1.223-1.473-1.834-3.182-1.834-5.13v-0.1c1.131,0.634,2.346,0.974,3.645,1.023
		c-1.1-0.731-1.972-1.688-2.621-2.87c-0.648-1.182-0.974-2.463-0.974-3.843c0-1.464,0.366-2.821,1.098-4.068
		c2.013,2.479,4.464,4.463,7.351,5.952c2.887,1.49,5.977,2.318,9.272,2.484c-0.134-0.632-0.2-1.248-0.2-1.847
		c0-2.229,0.787-4.131,2.356-5.703c1.575-1.573,3.474-2.359,5.705-2.359c2.33,0,4.292,0.849,5.89,2.546
		c1.815-0.35,3.52-0.998,5.117-1.947c-0.617,1.914-1.798,3.395-3.544,4.443C36.363,8.776,37.912,8.361,39.459,7.695z"/>
</g>
</svg>
